{
.appVersion = "1032";
DisplayStrings = (
"/an-georgian/ban-georgian/gan-georgian/don-georgian/en-georgian/vin-georgian/zen-georgian/tan-georgian/in-georgian/kan-georgian/las-georgian/man-georgian/nar-georgian/on-georgian/par-georgian/zhar-georgian/rae-georgian/san-georgian/tar-georgian/un-georgian/phar-georgian/khar-georgian/ghan-georgian/qar-georgian/shin-georgian/chin-georgian/can-georgian/jil-georgian/cil-georgian/xan-georgian/jhan-georgian/hae-georgian \0120123456789",
"/xan-georgian",
"/ban-georgian/don-georgian/las-georgian/ghan-georgian/char-georgian/man-georgian"
);
copyright = "Copyright © 2017 by Unknow Designer, Davit Samsonidze. All rights reserved.";
date = "2017-06-04 13:56:20 +0000";
designer = "Unknow Designer, Mariam Akulashvili";
familyName = "GL Kupiura";
featurePrefixes = (
{
automatic = 1;
code = "languagesystem DFLT dflt;\012";
name = Languagesystems;
}
);
features = (
{
automatic = 1;
code = "feature ordn;\012";
name = aalt;
},
{
automatic = 1;
code = "sub [zero one two three four five six seven eight nine] [A a]' by ordfeminine;\012sub [zero one two three four five six seven eight nine] [O o]' by ordmasculine;\012";
name = ordn;
}
);
fontMaster = (
{
alignmentZones = (
"{710, 12}",
"{690, 12}",
"{420, 12}",
"{0, -12}",
"{-300, -12}"
);
ascender = 710;
capHeight = 690;
descender = -300;
id = "9ECE4C5B-AE6E-45F8-855F-54F501A6946D";
userData = {
GSOffsetHorizontal = -20;
GSOffsetVertical = 1;
};
visible = 1;
weight = Light;
weightValue = 60;
xHeight = 420;
},
{
alignmentZones = (
"{710, 15}",
"{690, 15}",
"{420, 15}",
"{0, -15}",
"{-300, -15}"
);
ascender = 710;
capHeight = 690;
descender = -300;
id = "6701A4D5-8A3D-41DD-8AA0-CFF5D98C5FFE";
weight = Bold;
weightValue = 160;
xHeight = 420;
}
);
glyphs = (
{
glyphname = A;
lastChange = "2017-06-10 11:33:30 +0000";
layers = (
{
layerId = "9ECE4C5B-AE6E-45F8-855F-54F501A6946D";
paths = (
{
closed = 1;
nodes = (
"320 0 LINE",
"320 31 LINE",
"254 31 LINE SMOOTH",
"216 31 OFFCURVE",
"209 59 OFFCURVE",
"209 89 CURVE SMOOTH",
"209 100 OFFCURVE",
"213 119 OFFCURVE",
"224 150 CURVE SMOOTH",
"248 219 LINE",
"488 219 LINE",
"541 70 LINE",
"544 66 OFFCURVE",
"544 61 OFFCURVE",
"544 52 CURVE SMOOTH",
"544 41 OFFCURVE",
"527 31 OFFCURVE",
"506 31 CURVE SMOOTH",
"446 31 LINE",
"446 0 LINE",
"725 0 LINE",
"725 31 LINE",
"660 31 LINE SMOOTH",
"632 31 OFFCURVE",
"616 39 OFFCURVE",
"602 71 CURVE",
"391 681 LINE",
"374 681 LINE",
"164 97 LINE SMOOTH",
"145 46 OFFCURVE",
"120 31 OFFCURVE",
"83 31 CURVE SMOOTH",
"45 31 LINE",
"45 0 LINE"
);
},
{
closed = 1;
nodes = (
"479 247 LINE",
"258 247 LINE",
"370 560 LINE"
);
}
);
width = 746;
},
{
layerId = "6701A4D5-8A3D-41DD-8AA0-CFF5D98C5FFE";
paths = (
{
closed = 1;
nodes = (
"285 0 LINE",
"285 31 LINE",
"243 31 LINE SMOOTH",
"214 31 OFFCURVE",
"192 50 OFFCURVE",
"192 73 CURVE SMOOTH",
"192 87 OFFCURVE",
"197 104 OFFCURVE",
"202 120 CURVE SMOOTH",
"222 177 LINE",
"419 177 LINE",
"447 93 LINE SMOOTH",
"451 81 OFFCURVE",
"453 70 OFFCURVE",
"453 64 CURVE SMOOTH",
"453 47 OFFCURVE",
"443 31 OFFCURVE",
"428 31 CURVE SMOOTH",
"358 31 LINE",
"358 0 LINE",
"708 0 LINE",
"708 31 LINE",
"673 31 LINE SMOOTH",
"646 31 OFFCURVE",
"627 50 OFFCURVE",
"616 83 CURVE SMOOTH",
"409 713 LINE",
"365 713 LINE",
"161 112 LINE SMOOTH",
"147 69 OFFCURVE",
"113 31 OFFCURVE",
"75 31 CURVE SMOOTH",
"43 31 LINE",
"43 0 LINE"
);
},
{
closed = 1;
nodes = (
"407 214 LINE",
"235 214 LINE",
"323 474 LINE"
);
}
);
width = 729;
}
);
leftKerningGroup = A;
note = A;
rightKerningGroup = A;
unicode = 0041;
},
{
glyphname = Aacute;
lastChange = "2017-06-10 11:33:30 +0000";
layers = (
{
layerId = "9ECE4C5B-AE6E-45F8-855F-54F501A6946D";
paths = (
{
closed = 1;
nodes = (
"494 839 LINE SMOOTH",
"511 853 OFFCURVE",
"521 867 OFFCURVE",
"521 880 CURVE SMOOTH",
"521 895 OFFCURVE",
"513 905 OFFCURVE",
"502 905 CURVE SMOOTH",
"482 905 OFFCURVE",
"471 897 OFFCURVE",
"454 873 CURVE SMOOTH",
"362 747 LINE",
"370 741 LINE"
);
},
{
closed = 1;
nodes = (
"320 0 LINE",
"320 31 LINE",
"254 31 LINE SMOOTH",
"216 31 OFFCURVE",
"209 59 OFFCURVE",
"209 89 CURVE SMOOTH",
"209 100 OFFCURVE",
"213 119 OFFCURVE",
"224 150 CURVE SMOOTH",
"248 219 LINE",
"488 219 LINE",
"541 70 LINE",
"544 66 OFFCURVE",
"544 61 OFFCURVE",
"544 52 CURVE SMOOTH",
"544 41 OFFCURVE",
"527 31 OFFCURVE",
"506 31 CURVE SMOOTH",
"446 31 LINE",
"446 0 LINE",
"725 0 LINE",
"725 31 LINE",
"660 31 LINE SMOOTH",
"632 31 OFFCURVE",
"616 39 OFFCURVE",
"602 71 CURVE",
"391 681 LINE",
"374 681 LINE",
"164 97 LINE SMOOTH",
"145 46 OFFCURVE",
"120 31 OFFCURVE",
"83 31 CURVE SMOOTH",
"45 31 LINE",
"45 0 LINE"
);
},
{
closed = 1;
nodes = (
"479 247 LINE",
"258 247 LINE",
"370 560 LINE"
);
}
);
width = 746;
},
{
layerId = "6701A4D5-8A3D-41DD-8AA0-CFF5D98C5FFE";
paths = (
{
closed = 1;
nodes = (
"502 833 LINE SMOOTH",
"521 847 OFFCURVE",
"530 862 OFFCURVE",
"530 881 CURVE SMOOTH",
"530 906 OFFCURVE",
"510 923 OFFCURVE",
"485 923 CURVE SMOOTH",
"467 923 OFFCURVE",
"452 915 OFFCURVE",
"437 892 CURVE SMOOTH",
"352 756 LINE",
"373 736 LINE"
);
},
{
closed = 1;
nodes = (
"285 0 LINE",
"285 31 LINE",
"243 31 LINE SMOOTH",
"214 31 OFFCURVE",
"192 50 OFFCURVE",
"192 73 CURVE SMOOTH",
"192 87 OFFCURVE",
"197 104 OFFCURVE",
"202 120 CURVE SMOOTH",
"222 177 LINE",
"419 177 LINE",
"447 93 LINE SMOOTH",
"451 81 OFFCURVE",
"453 70 OFFCURVE",
"453 64 CURVE SMOOTH",
"453 47 OFFCURVE",
"443 31 OFFCURVE",
"428 31 CURVE SMOOTH",
"358 31 LINE",
"358 0 LINE",
"708 0 LINE",
"708 31 LINE",
"673 31 LINE SMOOTH",
"646 31 OFFCURVE",
"627 50 OFFCURVE",
"616 83 CURVE SMOOTH",
"409 713 LINE",
"365 713 LINE",
"161 112 LINE SMOOTH",
"147 69 OFFCURVE",
"113 31 OFFCURVE",
"75 31 CURVE SMOOTH",
"43 31 LINE",
"43 0 LINE"
);
},
{
closed = 1;
nodes = (
"407 214 LINE",
"235 214 LINE",
"323 474 LINE"
);
}
);
width = 729;
}
);
leftKerningGroup = A;
note = Aacute;
rightKerningGroup = A;
unicode = 00C1;
},
{
glyphname = Acircumflex;
lastChange = "2017-06-10 11:33:30 +0000";
layers = (
{
layerId = "9ECE4C5B-AE6E-45F8-855F-54F501A6946D";
paths = (
{
closed = 1;
nodes = (
"267 746 OFFCURVE",
"354 806 OFFCURVE",
"383 840 CURVE",
"411 806 OFFCURVE",
"501 746 OFFCURVE",
"523 739 CURVE",
"530 752 LINE",
"475 786 OFFCURVE",
"432 831 OFFCURVE",
"403 887 CURVE",
"364 887 LINE",
"335 829 OFFCURVE",
"292 786 OFFCURVE",
"236 752 CURVE",
"244 739 LINE"
);
},
{
closed = 1;
nodes = (
"320 0 LINE",
"320 31 LINE",
"254 31 LINE SMOOTH",
"216 31 OFFCURVE",
"209 59 OFFCURVE",
"209 89 CURVE SMOOTH",
"209 100 OFFCURVE",
"213 119 OFFCURVE",
"224 150 CURVE SMOOTH",
"248 219 LINE",
"488 219 LINE",
"541 70 LINE",
"544 66 OFFCURVE",
"544 61 OFFCURVE",
"544 52 CURVE SMOOTH",
"544 41 OFFCURVE",
"527 31 OFFCURVE",
"506 31 CURVE SMOOTH",
"446 31 LINE",
"446 0 LINE",
"725 0 LINE",
"725 31 LINE",
"660 31 LINE SMOOTH",
"632 31 OFFCURVE",
"616 39 OFFCURVE",
"602 71 CURVE",
"391 681 LINE",
"374 681 LINE",
"164 97 LINE SMOOTH",
"145 46 OFFCURVE",
"120 31 OFFCURVE",
"83 31 CURVE SMOOTH",
"45 31 LINE",
"45 0 LINE"
);
},
{
closed = 1;
nodes = (
"479 247 LINE",
"258 247 LINE",
"370 560 LINE"
);
}
);
width = 746;
},
{
layerId = "6701A4D5-8A3D-41DD-8AA0-CFF5D98C5FFE";
paths = (
{
closed = 1;
nodes = (
"292 761 OFFCURVE",
"318 773 OFFCURVE",
"385 813 CURVE",
"451 773 OFFCURVE",
"477 761 OFFCURVE",
"537 739 CURVE",
"550 764 LINE",
"485 795 OFFCURVE",
"437 843 OFFCURVE",
"405 905 CURVE",
"366 905 LINE",
"332 844 OFFCURVE",
"283 797 OFFCURVE",
"219 764 CURVE",
"232 739 LINE"
);
},
{
closed = 1;
nodes = (
"285 0 LINE",
"285 31 LINE",
"243 31 LINE SMOOTH",
"214 31 OFFCURVE",
"192 50 OFFCURVE",
"192 73 CURVE SMOOTH",
"192 87 OFFCURVE",
"197 104 OFFCURVE",
"202 120 CURVE SMOOTH",
"222 177 LINE",
"419 177 LINE",
"447 93 LINE SMOOTH",
"451 81 OFFCURVE",
"453 70 OFFCURVE",
"453 64 CURVE SMOOTH",
"453 47 OFFCURVE",
"443 31 OFFCURVE",
"428 31 CURVE SMOOTH",
"358 31 LINE",
"358 0 LINE",
"708 0 LINE",
"708 31 LINE",
"673 31 LINE SMOOTH",
"646 31 OFFCURVE",
"627 50 OFFCURVE",
"616 83 CURVE SMOOTH",
"409 713 LINE",
"365 713 LINE",
"161 112 LINE SMOOTH",
"147 69 OFFCURVE",
"113 31 OFFCURVE",
"75 31 CURVE SMOOTH",
"43 31 LINE",
"43 0 LINE"
);
},
{
closed = 1;
nodes = (
"407 214 LINE",
"235 214 LINE",
"323 474 LINE"
);
}
);
width = 729;
}
);
leftKerningGroup = A;
note = Acircumflex;
rightKerningGroup = A;
unicode = 00C2;
},
{
glyphname = Adieresis;
lastChange = "2017-06-10 11:33:30 +0000";
layers = (
{
layerId = "9ECE4C5B-AE6E-45F8-855F-54F501A6946D";
paths = (
{
closed = 1;
nodes = (
"315 776 OFFCURVE",
"333 796 OFFCURVE",
"333 823 CURVE SMOOTH",
"333 852 OFFCURVE",
"315 868 OFFCURVE",
"287 868 CURVE SMOOTH",
"260 868 OFFCURVE",
"240 852 OFFCURVE",
"240 823 CURVE SMOOTH",
"240 796 OFFCURVE",
"260 776 OFFCURVE",
"287 776 CURVE SMOOTH"
);
},
{
closed = 1;
nodes = (
"508 776 OFFCURVE",
"527 796 OFFCURVE",
"527 823 CURVE SMOOTH",
"527 852 OFFCURVE",
"508 868 OFFCURVE",
"480 868 CURVE SMOOTH",
"454 868 OFFCURVE",
"435 852 OFFCURVE",
"435 823 CURVE SMOOTH",
"435 796 OFFCURVE",
"454 776 OFFCURVE",
"480 776 CURVE SMOOTH"
);
},
{
closed = 1;
nodes = (
"320 0 LINE",
"320 31 LINE",
"254 31 LINE SMOOTH",
"216 31 OFFCURVE",
"209 59 OFFCURVE",
"209 89 CURVE SMOOTH",
"209 100 OFFCURVE",
"213 119 OFFCURVE",
"224 150 CURVE SMOOTH",
"248 219 LINE",
"488 219 LINE",
"541 70 LINE",
"544 66 OFFCURVE",
"544 61 OFFCURVE",
"544 52 CURVE SMOOTH",
"544 41 OFFCURVE",
"527 31 OFFCURVE",
"506 31 CURVE SMOOTH",
"446 31 LINE",
"446 0 LINE",
"725 0 LINE",
"725 31 LINE",
"660 31 LINE SMOOTH",
"632 31 OFFCURVE",
"616 39 OFFCURVE",
"602 71 CURVE",
"391 681 LINE",
"374 681 LINE",
"164 97 LINE SMOOTH",
"145 46 OFFCURVE",
"120 31 OFFCURVE",
"83 31 CURVE SMOOTH",
"45 31 LINE",
"45 0 LINE"
);
},
{
closed = 1;
nodes = (
"479 247 LINE",
"258 247 LINE",
"370 560 LINE"
);
}
);
width = 746;
},
{
layerId = "6701A4D5-8A3D-41DD-8AA0-CFF5D98C5FFE";
paths = (
{
closed = 1;
nodes = (
"313 769 OFFCURVE",
"342 796 OFFCURVE",
"342 829 CURVE SMOOTH",
"342 861 OFFCURVE",
"313 890 OFFCURVE",
"280 890 CURVE SMOOTH",
"248 890 OFFCURVE",
"221 861 OFFCURVE",
"221 829 CURVE SMOOTH",
"221 796 OFFCURVE",
"248 769 OFFCURVE",
"280 769 CURVE SMOOTH"
);
},
{
closed = 1;
nodes = (
"521 769 OFFCURVE",
"548 796 OFFCURVE",
"548 829 CURVE SMOOTH",
"548 861 OFFCURVE",
"521 890 OFFCURVE",
"489 890 CURVE SMOOTH",
"456 890 OFFCURVE",
"428 861 OFFCURVE",
"428 829 CURVE SMOOTH",
"428 796 OFFCURVE",
"456 769 OFFCURVE",
"489 769 CURVE SMOOTH"
);
},
{
closed = 1;
nodes = (
"285 0 LINE",
"285 31 LINE",
"243 31 LINE SMOOTH",
"214 31 OFFCURVE",
"192 50 OFFCURVE",
"192 73 CURVE SMOOTH",
"192 87 OFFCURVE",
"197 104 OFFCURVE",
"202 120 CURVE SMOOTH",
"222 177 LINE",
"419 177 LINE",
"447 93 LINE SMOOTH",
"451 81 OFFCURVE",
"453 70 OFFCURVE",
"453 64 CURVE SMOOTH",
"453 47 OFFCURVE",
"443 31 OFFCURVE",
"428 31 CURVE SMOOTH",
"358 31 LINE",
"358 0 LINE",
"708 0 LINE",
"708 31 LINE",
"673 31 LINE SMOOTH",
"646 31 OFFCURVE",
"627 50 OFFCURVE",
"616 83 CURVE SMOOTH",
"409 713 LINE",
"365 713 LINE",
"161 112 LINE SMOOTH",
"147 69 OFFCURVE",
"113 31 OFFCURVE",
"75 31 CURVE SMOOTH",
"43 31 LINE",
"43 0 LINE"
);
},
{
closed = 1;
nodes = (
"407 214 LINE",
"235 214 LINE",
"323 474 LINE"
);
}
);
width = 729;
}
);
leftKerningGroup = A;
note = Adieresis;
rightKerningGroup = A;
unicode = 00C4;
},
{
glyphname = Agrave;
lastChange = "2017-06-10 11:33:30 +0000";
layers = (
{
layerId = "9ECE4C5B-AE6E-45F8-855F-54F501A6946D";
paths = (
{
closed = 1;
nodes = (
"404 747 LINE",
"313 874 LINE SMOOTH",
"296 897 OFFCURVE",
"284 905 OFFCURVE",
"267 905 CURVE SMOOTH",
"253 905 OFFCURVE",
"246 895 OFFCURVE",
"246 880 CURVE SMOOTH",
"246 867 OFFCURVE",
"254 854 OFFCURVE",
"273 839 CURVE SMOOTH",
"396 740 LINE"
);
},
{
closed = 1;
nodes = (
"320 0 LINE",
"320 31 LINE",
"254 31 LINE SMOOTH",
"216 31 OFFCURVE",
"209 59 OFFCURVE",
"209 89 CURVE SMOOTH",
"209 100 OFFCURVE",
"213 119 OFFCURVE",
"224 150 CURVE SMOOTH",
"248 219 LINE",
"488 219 LINE",
"541 70 LINE",
"544 66 OFFCURVE",
"544 61 OFFCURVE",
"544 52 CURVE SMOOTH",
"544 41 OFFCURVE",
"527 31 OFFCURVE",
"506 31 CURVE SMOOTH",
"446 31 LINE",
"446 0 LINE",
"725 0 LINE",
"725 31 LINE",
"660 31 LINE SMOOTH",
"632 31 OFFCURVE",
"616 39 OFFCURVE",
"602 71 CURVE",
"391 681 LINE",
"374 681 LINE",
"164 97 LINE SMOOTH",
"145 46 OFFCURVE",
"120 31 OFFCURVE",
"83 31 CURVE SMOOTH",
"45 31 LINE",
"45 0 LINE"
);
},
{
closed = 1;
nodes = (
"479 247 LINE",
"258 247 LINE",
"370 560 LINE"
);
}
);
width = 746;
},
{
layerId = "6701A4D5-8A3D-41DD-8AA0-CFF5D98C5FFE";
paths = (
{
closed = 1;
nodes = (
"415 756 LINE",
"330 891 LINE SMOOTH",
"316 914 OFFCURVE",
"302 923 OFFCURVE",
"283 923 CURVE SMOOTH",
"258 923 OFFCURVE",
"239 906 OFFCURVE",
"239 881 CURVE SMOOTH",
"239 862 OFFCURVE",
"248 847 OFFCURVE",
"266 833 CURVE SMOOTH",
"395 737 LINE"
);
},
{
closed = 1;
nodes = (
"285 0 LINE",
"285 31 LINE",
"243 31 LINE SMOOTH",
"214 31 OFFCURVE",
"192 50 OFFCURVE",
"192 73 CURVE SMOOTH",
"192 87 OFFCURVE",
"197 104 OFFCURVE",
"202 120 CURVE SMOOTH",
"222 177 LINE",
"419 177 LINE",
"447 93 LINE SMOOTH",
"451 81 OFFCURVE",
"453 70 OFFCURVE",
"453 64 CURVE SMOOTH",
"453 47 OFFCURVE",
"443 31 OFFCURVE",
"428 31 CURVE SMOOTH",
"358 31 LINE",
"358 0 LINE",
"708 0 LINE",
"708 31 LINE",
"673 31 LINE SMOOTH",
"646 31 OFFCURVE",
"627 50 OFFCURVE",
"616 83 CURVE SMOOTH",
"409 713 LINE",
"365 713 LINE",
"161 112 LINE SMOOTH",
"147 69 OFFCURVE",
"113 31 OFFCURVE",
"75 31 CURVE SMOOTH",
"43 31 LINE",
"43 0 LINE"
);
},
{
closed = 1;
nodes = (
"407 214 LINE",
"235 214 LINE",
"323 474 LINE"
);
}
);
width = 729;
}
);
leftKerningGroup = A;
note = Agrave;
rightKerningGroup = A;
unicode = 00C0;
},
{
glyphname = Aring;
lastChange = "2017-06-10 11:33:30 +0000";
layers = (
{
layerId = "9ECE4C5B-AE6E-45F8-855F-54F501A6946D";
paths = (
{
closed = 1;
nodes = (
"430 728 OFFCURVE",
"471 775 OFFCURVE",
"471 825 CURVE SMOOTH",
"471 878 OFFCURVE",
"430 922 OFFCURVE",
"383 922 CURVE SMOOTH",
"338 922 OFFCURVE",
"296 878 OFFCURVE",
"296 825 CURVE SMOOTH",
"296 775 OFFCURVE",
"338 728 OFFCURVE",
"383 728 CURVE SMOOTH"
);
},
{
closed = 1;
nodes = (
"342 741 OFFCURVE",
"307 780 OFFCURVE",
"307 825 CURVE SMOOTH",
"307 869 OFFCURVE",
"342 908 OFFCURVE",
"383 908 CURVE SMOOTH",
"424 908 OFFCURVE",
"459 869 OFFCURVE",
"459 825 CURVE SMOOTH",
"459 780 OFFCURVE",
"424 741 OFFCURVE",
"383 741 CURVE SMOOTH"
);
},
{
closed = 1;
nodes = (
"320 0 LINE",
"320 31 LINE",
"254 31 LINE SMOOTH",
"216 31 OFFCURVE",
"209 59 OFFCURVE",
"209 89 CURVE SMOOTH",
"209 100 OFFCURVE",
"213 119 OFFCURVE",
"224 150 CURVE SMOOTH",
"248 219 LINE",
"488 219 LINE",
"541 70 LINE",
"544 66 OFFCURVE",
"544 61 OFFCURVE",
"544 52 CURVE SMOOTH",
"544 41 OFFCURVE",
"527 31 OFFCURVE",
"506 31 CURVE SMOOTH",
"446 31 LINE",
"446 0 LINE",
"725 0 LINE",
"725 31 LINE",
"660 31 LINE SMOOTH",
"632 31 OFFCURVE",
"616 39 OFFCURVE",
"602 71 CURVE",
"391 681 LINE",
"374 681 LINE",
"164 97 LINE SMOOTH",
"145 46 OFFCURVE",
"120 31 OFFCURVE",
"83 31 CURVE SMOOTH",
"45 31 LINE",
"45 0 LINE"
);
},
{
closed = 1;
nodes = (
"479 247 LINE",
"258 247 LINE",
"370 560 LINE"
);
}
);
width = 746;
},
{
layerId = "6701A4D5-8A3D-41DD-8AA0-CFF5D98C5FFE";
paths = (
{
closed = 1;
nodes = (
"450 732 OFFCURVE",
"496 769 OFFCURVE",
"496 825 CURVE SMOOTH",
"496 879 OFFCURVE",
"450 917 OFFCURVE",
"385 917 CURVE SMOOTH",
"319 917 OFFCURVE",
"273 879 OFFCURVE",
"273 825 CURVE SMOOTH",
"273 769 OFFCURVE",
"319 732 OFFCURVE",
"385 732 CURVE SMOOTH"
);
},
{
closed = 1;
nodes = (
"347 780 OFFCURVE",
"321 795 OFFCURVE",
"321 825 CURVE SMOOTH",
"321 854 OFFCURVE",
"347 870 OFFCURVE",
"385 870 CURVE SMOOTH",
"422 870 OFFCURVE",
"448 854 OFFCURVE",
"448 825 CURVE SMOOTH",
"448 795 OFFCURVE",
"422 780 OFFCURVE",
"385 780 CURVE SMOOTH"
);
},
{
closed = 1;
nodes = (
"285 0 LINE",
"285 31 LINE",
"243 31 LINE SMOOTH",
"214 31 OFFCURVE",
"192 50 OFFCURVE",
"192 73 CURVE SMOOTH",
"192 87 OFFCURVE",
"197 104 OFFCURVE",
"202 120 CURVE SMOOTH",
"222 177 LINE",
"419 177 LINE",
"447 93 LINE SMOOTH",
"451 81 OFFCURVE",
"453 70 OFFCURVE",
"453 64 CURVE SMOOTH",
"453 47 OFFCURVE",
"443 31 OFFCURVE",
"428 31 CURVE SMOOTH",
"358 31 LINE",
"358 0 LINE",
"708 0 LINE",
"708 31 LINE",
"673 31 LINE SMOOTH",
"646 31 OFFCURVE",
"627 50 OFFCURVE",
"616 83 CURVE SMOOTH",
"409 713 LINE",
"365 713 LINE",
"161 112 LINE SMOOTH",
"147 69 OFFCURVE",
"113 31 OFFCURVE",
"75 31 CURVE SMOOTH",
"43 31 LINE",
"43 0 LINE"
);
},
{
closed = 1;
nodes = (
"407 214 LINE",
"235 214 LINE",
"323 474 LINE"
);
}
);
width = 729;
}
);
leftKerningGroup = A;
note = Aring;
rightKerningGroup = A;
unicode = 00C5;
},
{
glyphname = Atilde;
lastChange = "2017-06-10 11:33:30 +0000";
layers = (
{
layerId = "9ECE4C5B-AE6E-45F8-855F-54F501A6946D";
paths = (
{
closed = 1;
nodes = (
"250 815 OFFCURVE",
"267 830 OFFCURVE",
"290 830 CURVE SMOOTH",
"312 830 OFFCURVE",
"422 793 OFFCURVE",
"457 793 CURVE SMOOTH",
"506 793 OFFCURVE",
"534 824 OFFCURVE",
"538 872 CURVE",
"521 876 LINE",
"516 850 OFFCURVE",
"500 833 OFFCURVE",
"475 833 CURVE SMOOTH",
"454 833 OFFCURVE",
"344 872 OFFCURVE",
"309 872 CURVE SMOOTH",
"262 872 OFFCURVE",
"234 840 OFFCURVE",
"228 791 CURVE",
"245 789 LINE"
);
},
{
closed = 1;
nodes = (
"320 0 LINE",
"320 31 LINE",
"254 31 LINE SMOOTH",
"216 31 OFFCURVE",
"209 59 OFFCURVE",
"209 89 CURVE SMOOTH",
"209 100 OFFCURVE",
"213 119 OFFCURVE",
"224 150 CURVE SMOOTH",
"248 219 LINE",
"488 219 LINE",
"541 70 LINE",
"544 66 OFFCURVE",
"544 61 OFFCURVE",
"544 52 CURVE SMOOTH",
"544 41 OFFCURVE",
"527 31 OFFCURVE",
"506 31 CURVE SMOOTH",
"446 31 LINE",
"446 0 LINE",
"725 0 LINE",
"725 31 LINE",
"660 31 LINE SMOOTH",
"632 31 OFFCURVE",
"616 39 OFFCURVE",
"602 71 CURVE",
"391 681 LINE",
"374 681 LINE",
"164 97 LINE SMOOTH",
"145 46 OFFCURVE",
"120 31 OFFCURVE",
"83 31 CURVE SMOOTH",
"45 31 LINE",
"45 0 LINE"
);
},
{
closed = 1;
nodes = (
"479 247 LINE",
"258 247 LINE",
"370 560 LINE"
);
}
);
width = 746;
},
{
layerId = "6701A4D5-8A3D-41DD-8AA0-CFF5D98C5FFE";
paths = (
{
closed = 1;
nodes = (
"270 800 OFFCURVE",
"281 813 OFFCURVE",
"303 813 CURVE SMOOTH",
"365 813 OFFCURVE",
"377 778 OFFCURVE",
"440 778 CURVE SMOOTH",
"489 778 OFFCURVE",
"527 835 OFFCURVE",
"527 887 CURVE",
"504 887 LINE",
"499 859 OFFCURVE",
"488 848 OFFCURVE",
"467 848 CURVE SMOOTH",
"404 848 OFFCURVE",
"392 883 OFFCURVE",
"329 883 CURVE SMOOTH",
"278 883 OFFCURVE",
"243 824 OFFCURVE",
"244 774 CURVE",
"265 774 LINE"
);
},
{
closed = 1;
nodes = (
"285 0 LINE",
"285 31 LINE",
"243 31 LINE SMOOTH",
"214 31 OFFCURVE",
"192 50 OFFCURVE",
"192 73 CURVE SMOOTH",
"192 87 OFFCURVE",
"197 104 OFFCURVE",
"202 120 CURVE SMOOTH",
"222 177 LINE",
"419 177 LINE",
"447 93 LINE SMOOTH",
"451 81 OFFCURVE",
"453 70 OFFCURVE",
"453 64 CURVE SMOOTH",
"453 47 OFFCURVE",
"443 31 OFFCURVE",
"428 31 CURVE SMOOTH",
"358 31 LINE",
"358 0 LINE",
"708 0 LINE",
"708 31 LINE",
"673 31 LINE SMOOTH",
"646 31 OFFCURVE",
"627 50 OFFCURVE",
"616 83 CURVE SMOOTH",
"409 713 LINE",
"365 713 LINE",
"161 112 LINE SMOOTH",
"147 69 OFFCURVE",
"113 31 OFFCURVE",
"75 31 CURVE SMOOTH",
"43 31 LINE",
"43 0 LINE"
);
},
{
closed = 1;
nodes = (
"407 214 LINE",
"235 214 LINE",
"323 474 LINE"
);
}
);
width = 729;
}
);
leftKerningGroup = A;
note = Atilde;
rightKerningGroup = A;
unicode = 00C3;
},
{
glyphname = AE;
lastChange = "2017-06-10 11:33:30 +0000";
layers = (
{
layerId = "9ECE4C5B-AE6E-45F8-855F-54F501A6946D";
paths = (
{
closed = 1;
nodes = (
"287 0 LINE",
"287 31 LINE",
"235 31 LINE SMOOTH",
"196 31 OFFCURVE",
"194 54 OFFCURVE",
"194 82 CURVE SMOOTH",
"194 101 OFFCURVE",
"196 109 OFFCURVE",
"206 129 CURVE SMOOTH",
"247 208 LINE",
"461 208 LINE",
"461 59 LINE SMOOTH",
"461 42 OFFCURVE",
"450 31 OFFCURVE",
"434 31 CURVE SMOOTH",
"370 31 LINE",
"370 0 LINE",
"896 0 LINE",
"912 268 LINE",
"890 268 LINE",
"863 108 OFFCURVE",
"850 31 OFFCURVE",
"729 31 CURVE SMOOTH",
"546 31 LINE SMOOTH",
"529 31 OFFCURVE",
"520 42 OFFCURVE",
"520 59 CURVE SMOOTH",
"520 345 LINE",
"608 345 LINE SMOOTH",
"681 345 OFFCURVE",
"700 262 OFFCURVE",
"700 175 CURVE",
"721 175 LINE",
"721 548 LINE",
"700 548 LINE",
"700 461 OFFCURVE",
"681 374 OFFCURVE",
"608 374 CURVE SMOOTH",
"520 374 LINE",
"520 631 LINE SMOOTH",
"520 650 OFFCURVE",
"528 660 OFFCURVE",
"546 660 CURVE SMOOTH",
"727 660 LINE SMOOTH",
"850 660 OFFCURVE",
"884 559 OFFCURVE",
"884 438 CURVE",
"903 438 LINE",
"901 691 LINE",
"365 691 LINE",
"365 660 LINE",
"411 660 LINE SMOOTH",
"430 660 OFFCURVE",
"434 657 OFFCURVE",
"434 642 CURVE SMOOTH",
"434 632 OFFCURVE",
"427 615 OFFCURVE",
"419 600 CURVE SMOOTH",
"150 94 LINE SMOOTH",
"130 56 OFFCURVE",
"113 31 OFFCURVE",
"61 31 CURVE SMOOTH",
"25 31 LINE",
"25 0 LINE"
);
},
{
closed = 1;
nodes = (
"461 601 LINE",
"461 236 LINE",
"265 236 LINE"
);
}
);
width = 968;
},
{
layerId = "6701A4D5-8A3D-41DD-8AA0-CFF5D98C5FFE";
paths = (
{
closed = 1;
nodes = (
"287 0 LINE",
"287 31 LINE",
"258 31 LINE SMOOTH",
"228 31 OFFCURVE",
"210 47 OFFCURVE",
"210 81 CURVE SMOOTH",
"210 95 OFFCURVE",
"226 139 OFFCURVE",
"241 167 CURVE SMOOTH",
"260 203 LINE",
"461 203 LINE",
"461 53 LINE SMOOTH",
"461 37 OFFCURVE",
"457 31 OFFCURVE",
"438 31 CURVE SMOOTH",
"370 31 LINE",
"370 0 LINE",
"928 0 LINE",
"932 268 LINE",
"899 268 LINE",
"896 172 OFFCURVE",
"829 31 OFFCURVE",
"735 31 CURVE SMOOTH",
"643 31 LINE SMOOTH",
"626 31 OFFCURVE",
"619 37 OFFCURVE",
"619 53 CURVE SMOOTH",
"619 332 LINE",
"663 332 LINE SMOOTH",
"715 332 OFFCURVE",
"761 256 OFFCURVE",
"761 203 CURVE",
"793 203 LINE",
"793 494 LINE",
"761 494 LINE",
"761 440 OFFCURVE",
"713 368 OFFCURVE",
"663 368 CURVE SMOOTH",
"619 368 LINE",
"619 637 LINE SMOOTH",
"619 656 OFFCURVE",
"626 660 OFFCURVE",
"643 660 CURVE SMOOTH",
"736 660 LINE SMOOTH",
"807 660 OFFCURVE",
"891 538 OFFCURVE",
"891 471 CURVE",
"925 471 LINE",
"919 691 LINE",
"365 691 LINE",
"365 660 LINE",
"390 660 LINE SMOOTH",
"408 660 OFFCURVE",
"419 648 OFFCURVE",
"419 633 CURVE SMOOTH",
"419 616 OFFCURVE",
"414 602 OFFCURVE",
"397 569 CURVE SMOOTH",
"169 120 LINE SMOOTH",
"142 68 OFFCURVE",
"91 31 OFFCURVE",
"46 31 CURVE SMOOTH",
"25 31 LINE",
"25 0 LINE"
);
},
{
closed = 1;
nodes = (
"461 601 LINE",
"461 240 LINE",
"277 240 LINE"
);
}
);
width = 977;
}
);
leftKerningGroup = AE;
note = AE;
unicode = 00C6;
},
{
glyphname = B;
lastChange = "2017-06-10 11:33:30 +0000";
layers = (
{
layerId = "9ECE4C5B-AE6E-45F8-855F-54F501A6946D";
paths = (
{
closed = 1;
nodes = (
"372 0 LINE SMOOTH",
"414 0 OFFCURVE",
"452 8 OFFCURVE",
"486 22 CURVE SMOOTH",
"555 51 OFFCURVE",
"600 110 OFFCURVE",
"600 188 CURVE SMOOTH",
"600 220 OFFCURVE",
"591 250 OFFCURVE",
"577 274 CURVE SMOOTH",
"546 327 OFFCURVE",
"491 357 OFFCURVE",
"440 358 CURVE",
"440 361 LINE",
"511 373 OFFCURVE",
"581 435 OFFCURVE",
"581 526 CURVE SMOOTH",
"581 558 OFFCURVE",
"570 586 OFFCURVE",
"551 611 CURVE SMOOTH",
"512 662 OFFCURVE",
"440 691 OFFCURVE",
"361 691 CURVE SMOOTH",
"60 691 LINE",
"60 660 LINE",
"132 660 LINE SMOOTH",
"150 660 OFFCURVE",
"159 650 OFFCURVE",
"159 631 CURVE SMOOTH",
"159 59 LINE SMOOTH",
"159 42 OFFCURVE",
"147 31 OFFCURVE",
"132 31 CURVE SMOOTH",
"60 31 LINE",
"60 0 LINE"
);
},
{
closed = 1;
nodes = (
"217 631 LINE SMOOTH",
"217 650 OFFCURVE",
"226 660 OFFCURVE",
"247 660 CURVE SMOOTH",
"375 660 LINE SMOOTH",
"460 660 OFFCURVE",
"528 600 OFFCURVE",
"528 526 CURVE SMOOTH",
"528 439 OFFCURVE",
"490 376 OFFCURVE",
"365 376 CURVE SMOOTH",
"217 376 LINE"
);
},
{
closed = 1;
nodes = (
"227 31 OFFCURVE",
"217 42 OFFCURVE",
"217 59 CURVE SMOOTH",
"217 345 LINE",
"371 345 LINE SMOOTH",
"457 345 OFFCURVE",
"526 303 OFFCURVE",
"526 188 CURVE SMOOTH",
"526 75 OFFCURVE",
"457 31 OFFCURVE",
"371 31 CURVE SMOOTH",
"247 31 LINE SMOOTH"
);
}
);
width = 654;
},
{
layerId = "6701A4D5-8A3D-41DD-8AA0-CFF5D98C5FFE";
paths = (
{
closed = 1;
nodes = (
"421 0 LINE SMOOTH",
"463 0 OFFCURVE",
"501 8 OFFCURVE",
"536 22 CURVE SMOOTH",
"605 50 OFFCURVE",
"649 110 OFFCURVE",
"649 188 CURVE SMOOTH",
"649 220 OFFCURVE",
"639 247 OFFCURVE",
"620 271 CURVE SMOOTH",
"582 318 OFFCURVE",
"518 348 OFFCURVE",
"458 358 CURVE",
"458 365 LINE",
"553 391 OFFCURVE",
"625 441 OFFCURVE",
"625 526 CURVE SMOOTH",
"625 558 OFFCURVE",
"616 586 OFFCURVE",
"595 611 CURVE SMOOTH",
"554 660 OFFCURVE",
"484 691 OFFCURVE",
"409 691 CURVE SMOOTH",
"60 691 LINE",
"60 660 LINE",
"127 660 LINE SMOOTH",
"145 660 OFFCURVE",
"150 656 OFFCURVE",
"150 637 CURVE SMOOTH",
"150 53 LINE SMOOTH",
"150 37 OFFCURVE",
"146 31 OFFCURVE",
"127 31 CURVE SMOOTH",
"60 31 LINE",
"60 0 LINE"
);
},
{
closed = 1;
nodes = (
"308 637 LINE SMOOTH",
"308 656 OFFCURVE",
"315 660 OFFCURVE",
"330 660 CURVE SMOOTH",
"393 660 LINE SMOOTH",
"438 660 OFFCURVE",
"464 612 OFFCURVE",
"464 526 CURVE SMOOTH",
"464 424 OFFCURVE",
"448 376 OFFCURVE",
"387 376 CURVE SMOOTH",
"308 376 LINE"
);
},
{
closed = 1;
nodes = (
"315 31 OFFCURVE",
"308 37 OFFCURVE",
"308 53 CURVE SMOOTH",
"308 345 LINE",
"386 345 LINE SMOOTH",
"452 345 OFFCURVE",
"481 307 OFFCURVE",
"481 188 CURVE SMOOTH",
"481 70 OFFCURVE",
"452 31 OFFCURVE",
"386 31 CURVE SMOOTH",
"330 31 LINE SMOOTH"
);
}
);
width = 696;
}
);
note = B;
rightKerningGroup = B;
unicode = 0042;
},
{
glyphname = C;
lastChange = "2017-06-10 11:33:30 +0000";
layers = (
{
layerId = "9ECE4C5B-AE6E-45F8-855F-54F501A6946D";
paths = (
{
closed = 1;
nodes = (
"497 -17 OFFCURVE",
"578 91 OFFCURVE",
"585 242 CURVE",
"550 242 LINE",
"543 108 OFFCURVE",
"466 14 OFFCURVE",
"358 14 CURVE SMOOTH",
"187 14 OFFCURVE",
"136 175 OFFCURVE",
"136 358 CURVE SMOOTH",
"136 527 OFFCURVE",
"193 677 OFFCURVE",
"340 677 CURVE SMOOTH",
"430 677 OFFCURVE",
"509 564 OFFCURVE",
"552 398 CURVE",
"578 398 LINE",
"571 700 LINE",
"551 700 LINE",
"533 636 LINE SMOOTH",
"528 619 OFFCURVE",
"527 615 OFFCURVE",
"516 615 CURVE SMOOTH",
"507 615 OFFCURVE",
"422 708 OFFCURVE",
"337 708 CURVE SMOOTH",
"174 708 OFFCURVE",
"68 558 OFFCURVE",
"68 354 CURVE SMOOTH",
"68 151 OFFCURVE",
"186 -17 OFFCURVE",
"358 -17 CURVE SMOOTH"
);
}
);
width = 647;
},
{
layerId = "6701A4D5-8A3D-41DD-8AA0-CFF5D98C5FFE";
paths = (
{
closed = 1;
nodes = (
"517 -17 OFFCURVE",
"584 117 OFFCURVE",
"596 271 CURVE",
"561 271 LINE",
"547 144 OFFCURVE",
"509 14 OFFCURVE",
"348 14 CURVE SMOOTH",
"279 14 OFFCURVE",
"249 37 OFFCURVE",
"249 337 CURVE",
"249 647 OFFCURVE",
"269 677 OFFCURVE",
"340 677 CURVE SMOOTH",
"437 677 OFFCURVE",
"514 570 OFFCURVE",
"542 404 CURVE",
"573 404 LINE",
"575 700 LINE",
"541 700 LINE",
"524 669 LINE",
"519 658 OFFCURVE",
"512 651 OFFCURVE",
"501 651 CURVE SMOOTH",
"481 651 OFFCURVE",
"400 708 OFFCURVE",
"341 708 CURVE SMOOTH",
"178 708 OFFCURVE",
"68 548 OFFCURVE",
"68 344 CURVE SMOOTH",
"68 183 OFFCURVE",
"144 -17 OFFCURVE",
"348 -17 CURVE SMOOTH"
);
}
);
width = 642;
}
);
leftKerningGroup = C;
note = C;
rightKerningGroup = C;
unicode = 0043;
},
{
glyphname = Ccedilla;
lastChange = "2017-06-10 11:33:30 +0000";
layers = (
{
layerId = "9ECE4C5B-AE6E-45F8-855F-54F501A6946D";
paths = (
{
closed = 1;
nodes = (
"441 -231 OFFCURVE",
"471 -187 OFFCURVE",
"471 -136 CURVE SMOOTH",
"471 -82 OFFCURVE",
"431 -59 OFFCURVE",
"380 -59 CURVE SMOOTH",
"350 -59 LINE",
"359 -17 LINE",
"493 -17 OFFCURVE",
"578 86 OFFCURVE",
"585 242 CURVE",
"550 242 LINE",
"543 108 OFFCURVE",
"466 14 OFFCURVE",
"358 14 CURVE SMOOTH",
"187 14 OFFCURVE",
"136 175 OFFCURVE",
"136 359 CURVE SMOOTH",
"136 527 OFFCURVE",
"193 677 OFFCURVE",
"340 677 CURVE SMOOTH",
"430 677 OFFCURVE",
"509 564 OFFCURVE",
"552 398 CURVE",
"578 398 LINE",
"571 700 LINE",
"551 700 LINE",
"533 636 LINE SMOOTH",
"528 619 OFFCURVE",
"527 615 OFFCURVE",
"516 615 CURVE SMOOTH",
"507 615 OFFCURVE",
"422 708 OFFCURVE",
"337 708 CURVE SMOOTH",
"174 708 OFFCURVE",
"68 558 OFFCURVE",
"68 354 CURVE SMOOTH",
"68 199 OFFCURVE",
"150 -1 OFFCURVE",
"335 -16 CURVE",
"316 -109 LINE",
"363 -109 LINE SMOOTH",
"409 -109 OFFCURVE",
"434 -123 OFFCURVE",
"434 -161 CURVE SMOOTH",
"434 -189 OFFCURVE",
"414 -208 OFFCURVE",
"373 -208 CURVE SMOOTH",
"347 -208 OFFCURVE",
"328 -192 OFFCURVE",
"324 -171 CURVE SMOOTH",
"320 -149 OFFCURVE",
"308 -138 OFFCURVE",
"295 -138 CURVE SMOOTH",
"283 -138 OFFCURVE",
"272 -149 OFFCURVE",
"272 -162 CURVE SMOOTH",
"272 -206 OFFCURVE",
"313 -231 OFFCURVE",
"362 -231 CURVE SMOOTH"
);
}
);
width = 647;
},
{
layerId = "6701A4D5-8A3D-41DD-8AA0-CFF5D98C5FFE";
paths = (
{
closed = 1;
nodes = (
"425 -231 OFFCURVE",
"464 -187 OFFCURVE",
"464 -127 CURVE SMOOTH",
"464 -82 OFFCURVE",
"426 -44 OFFCURVE",
"375 -44 CURVE SMOOTH",
"343 -44 LINE",
"346 -17 LINE",
"527 -17 OFFCURVE",
"585 129 OFFCURVE",
"596 271 CURVE",
"561 271 LINE",
"547 144 OFFCURVE",
"509 14 OFFCURVE",
"348 14 CURVE SMOOTH",
"280 14 OFFCURVE",
"249 39 OFFCURVE",
"249 333 CURVE",
"249 648 OFFCURVE",
"269 677 OFFCURVE",
"340 677 CURVE SMOOTH",
"437 677 OFFCURVE",
"514 570 OFFCURVE",
"542 404 CURVE",
"573 404 LINE",
"575 700 LINE",
"541 700 LINE",
"524 669 LINE",
"519 658 OFFCURVE",
"512 651 OFFCURVE",
"501 651 CURVE SMOOTH",
"481 651 OFFCURVE",
"400 708 OFFCURVE",
"341 708 CURVE SMOOTH",
"178 708 OFFCURVE",
"68 548 OFFCURVE",
"68 344 CURVE SMOOTH",
"68 192 OFFCURVE",
"137 4 OFFCURVE",
"318 -16 CURVE",
"306 -108 LINE",
"357 -108 LINE SMOOTH",
"394 -108 OFFCURVE",
"411 -129 OFFCURVE",
"411 -155 CURVE SMOOTH",
"411 -188 OFFCURVE",
"391 -208 OFFCURVE",
"356 -208 CURVE SMOOTH",
"326 -208 OFFCURVE",
"309 -193 OFFCURVE",
"303 -162 CURVE SMOOTH",
"299 -140 OFFCURVE",
"291 -125 OFFCURVE",
"266 -125 CURVE SMOOTH",
"243 -125 OFFCURVE",
"232 -142 OFFCURVE",
"232 -166 CURVE SMOOTH",
"232 -205 OFFCURVE",
"290 -231 OFFCURVE",
"339 -231 CURVE SMOOTH"
);
}
);
width = 642;
}
);
leftKerningGroup = C;
note = Ccedilla;
rightKerningGroup = C;
unicode = 00C7;
},
{
glyphname = D;
lastChange = "2017-06-10 11:33:30 +0000";
layers = (
{
layerId = "9ECE4C5B-AE6E-45F8-855F-54F501A6946D";
paths = (
{
closed = 1;
nodes = (
"412 0 LINE SMOOTH",
"571 0 OFFCURVE",
"705 146 OFFCURVE",
"705 351 CURVE SMOOTH",
"705 522 OFFCURVE",
"602 691 OFFCURVE",
"412 691 CURVE SMOOTH",
"60 691 LINE",
"60 660 LINE",
"132 660 LINE SMOOTH",
"150 660 OFFCURVE",
"159 650 OFFCURVE",
"159 631 CURVE SMOOTH",
"159 59 LINE SMOOTH",
"159 42 OFFCURVE",
"147 31 OFFCURVE",
"132 31 CURVE SMOOTH",
"60 31 LINE",
"60 0 LINE"
);
},
{
closed = 1;
nodes = (
"227 31 OFFCURVE",
"217 42 OFFCURVE",
"217 59 CURVE SMOOTH",
"217 631 LINE SMOOTH",
"217 650 OFFCURVE",
"226 660 OFFCURVE",
"247 660 CURVE SMOOTH",
"415 660 LINE SMOOTH",
"561 660 OFFCURVE",
"637 472 OFFCURVE",
"637 354 CURVE SMOOTH",
"637 298 OFFCURVE",
"593 31 OFFCURVE",
"415 31 CURVE SMOOTH",
"247 31 LINE SMOOTH"
);
}
);
width = 754;
},
{
layerId = "6701A4D5-8A3D-41DD-8AA0-CFF5D98C5FFE";
paths = (
{
closed = 1;
nodes = (
"423 0 LINE SMOOTH",
"582 0 OFFCURVE",
"716 146 OFFCURVE",
"716 351 CURVE SMOOTH",
"716 522 OFFCURVE",
"613 691 OFFCURVE",
"423 691 CURVE SMOOTH",
"60 691 LINE",
"60 660 LINE",
"127 660 LINE SMOOTH",
"145 660 OFFCURVE",
"150 656 OFFCURVE",
"150 637 CURVE SMOOTH",
"150 53 LINE SMOOTH",
"150 37 OFFCURVE",
"146 31 OFFCURVE",
"127 31 CURVE SMOOTH",
"60 31 LINE",
"60 0 LINE"
);
},
{
closed = 1;
nodes = (
"315 31 OFFCURVE",
"308 37 OFFCURVE",
"308 53 CURVE SMOOTH",
"308 637 LINE SMOOTH",
"308 656 OFFCURVE",
"315 660 OFFCURVE",
"330 660 CURVE SMOOTH",
"402 660 LINE SMOOTH",
"505 660 OFFCURVE",
"534 646 OFFCURVE",
"534 344 CURVE",
"534 36 OFFCURVE",
"502 31 OFFCURVE",
"402 31 CURVE SMOOTH",
"330 31 LINE SMOOTH"
);
}
);
width = 764;
}
);
note = D;
rightKerningGroup = D;
unicode = 0044;
},
{
glyphname = Eth;
lastChange = "2017-06-10 11:33:30 +0000";
layers = (
{
layerId = "9ECE4C5B-AE6E-45F8-855F-54F501A6946D";
paths = (
{
closed = 1;
nodes = (
"412 0 LINE SMOOTH",
"571 0 OFFCURVE",
"705 146 OFFCURVE",
"705 351 CURVE SMOOTH",
"705 522 OFFCURVE",
"602 691 OFFCURVE",
"412 691 CURVE SMOOTH",
"60 691 LINE",
"60 660 LINE",
"132 660 LINE SMOOTH",
"150 660 OFFCURVE",
"159 650 OFFCURVE",
"159 631 CURVE SMOOTH",
"159 380 LINE",
"69 380 LINE",
"69 345 LINE",
"159 345 LINE",
"159 59 LINE SMOOTH",
"159 42 OFFCURVE",
"147 31 OFFCURVE",
"132 31 CURVE SMOOTH",
"60 31 LINE",
"60 0 LINE"
);
},
{
closed = 1;
nodes = (
"227 31 OFFCURVE",
"217 42 OFFCURVE",
"217 59 CURVE SMOOTH",
"217 345 LINE",
"341 345 LINE",
"341 380 LINE",
"217 380 LINE",
"217 631 LINE SMOOTH",
"217 650 OFFCURVE",
"226 660 OFFCURVE",
"247 660 CURVE SMOOTH",
"415 660 LINE SMOOTH",
"561 660 OFFCURVE",
"637 472 OFFCURVE",
"637 358 CURVE SMOOTH",
"637 298 OFFCURVE",
"593 31 OFFCURVE",
"415 31 CURVE SMOOTH",
"247 31 LINE SMOOTH"
);
}
);
width = 742;
},
{
layerId = "6701A4D5-8A3D-41DD-8AA0-CFF5D98C5FFE";
paths = (
{
closed = 1;
nodes = (
"424 0 LINE SMOOTH",
"583 0 OFFCURVE",
"717 146 OFFCURVE",
"717 351 CURVE SMOOTH",
"717 522 OFFCURVE",
"614 691 OFFCURVE",
"424 691 CURVE SMOOTH",
"62 691 LINE",
"62 660 LINE",
"129 660 LINE SMOOTH",
"147 660 OFFCURVE",
"151 656 OFFCURVE",
"151 637 CURVE SMOOTH",
"151 380 LINE",
"60 380 LINE",
"60 345 LINE",
"151 345 LINE",
"151 53 LINE SMOOTH",
"151 37 OFFCURVE",
"147 31 OFFCURVE",
"129 31 CURVE SMOOTH",
"62 31 LINE",
"62 0 LINE"
);
},
{
closed = 1;
nodes = (
"316 31 OFFCURVE",
"310 37 OFFCURVE",
"310 53 CURVE SMOOTH",
"310 345 LINE",
"395 345 LINE",
"395 380 LINE",
"310 380 LINE",
"310 637 LINE SMOOTH",
"310 656 OFFCURVE",
"316 660 OFFCURVE",
"331 660 CURVE SMOOTH",
"404 660 LINE SMOOTH",
"508 660 OFFCURVE",
"536 647 OFFCURVE",
"536 337 CURVE",
"536 37 OFFCURVE",
"502 31 OFFCURVE",
"404 31 CURVE SMOOTH",
"331 31 LINE SMOOTH"
);
}
);
width = 765;
}
);
note = Eth;
rightKerningGroup = D;
unicode = 00D0;
},
{
glyphname = E;
lastChange = "2017-06-10 11:33:30 +0000";
layers = (
{
layerId = "9ECE4C5B-AE6E-45F8-855F-54F501A6946D";
paths = (
{
closed = 1;
nodes = (
"594 0 LINE",
"610 268 LINE",
"589 268 LINE",
"588 266 OFFCURVE",
"591 274 OFFCURVE",
"591 257 CURVE SMOOTH",
"590 137 OFFCURVE",
"550 31 OFFCURVE",
"429 31 CURVE SMOOTH",
"247 31 LINE SMOOTH",
"227 31 OFFCURVE",
"217 42 OFFCURVE",
"217 59 CURVE SMOOTH",
"217 345 LINE",
"307 345 LINE SMOOTH",
"380 345 OFFCURVE",
"398 260 OFFCURVE",
"398 175 CURVE",
"420 175 LINE",
"420 548 LINE",
"398 548 LINE",
"398 456 OFFCURVE",
"376 374 OFFCURVE",
"307 374 CURVE SMOOTH",
"217 374 LINE",
"217 631 LINE SMOOTH",
"217 650 OFFCURVE",
"226 660 OFFCURVE",
"247 660 CURVE SMOOTH",
"426 660 LINE SMOOTH",
"550 660 OFFCURVE",
"581 556 OFFCURVE",
"581 438 CURVE",
"602 438 LINE",
"599 691 LINE",
"60 691 LINE",
"60 660 LINE",
"132 660 LINE SMOOTH",
"150 660 OFFCURVE",
"159 650 OFFCURVE",
"159 631 CURVE SMOOTH",
"159 59 LINE SMOOTH",
"159 42 OFFCURVE",
"147 31 OFFCURVE",
"132 31 CURVE SMOOTH",
"60 31 LINE",
"60 0 LINE"
);
}
);
width = 666;
},
{
layerId = "6701A4D5-8A3D-41DD-8AA0-CFF5D98C5FFE";
paths = (
{
closed = 1;
nodes = (
"616 0 LINE",
"621 268 LINE",
"588 268 LINE",
"587 251 OFFCURVE",
"576 186 OFFCURVE",
"563 154 CURVE SMOOTH",
"537 92 OFFCURVE",
"486 31 OFFCURVE",
"423 31 CURVE SMOOTH",
"330 31 LINE SMOOTH",
"315 31 OFFCURVE",
"308 37 OFFCURVE",
"308 53 CURVE SMOOTH",
"308 332 LINE",
"350 332 LINE SMOOTH",
"400 332 OFFCURVE",
"448 260 OFFCURVE",
"448 203 CURVE",
"481 203 LINE",
"481 494 LINE",
"448 494 LINE",
"448 449 OFFCURVE",
"408 368 OFFCURVE",
"350 368 CURVE SMOOTH",
"308 368 LINE",
"308 637 LINE SMOOTH",
"308 656 OFFCURVE",
"315 660 OFFCURVE",
"330 660 CURVE SMOOTH",
"425 660 LINE SMOOTH",
"492 660 OFFCURVE",
"580 546 OFFCURVE",
"580 471 CURVE",
"613 471 LINE",
"606 691 LINE",
"60 691 LINE",
"60 660 LINE",
"127 660 LINE SMOOTH",
"145 660 OFFCURVE",
"150 656 OFFCURVE",
"150 637 CURVE SMOOTH",
"150 53 LINE SMOOTH",
"150 37 OFFCURVE",
"146 31 OFFCURVE",
"127 31 CURVE SMOOTH",
"60 31 LINE",
"60 0 LINE"
);
}
);
width = 671;
}
);
note = E;
unicode = 0045;
},
{
glyphname = Eacute;
lastChange = "2017-06-10 11:33:30 +0000";
layers = (
{
layerId = "9ECE4C5B-AE6E-45F8-855F-54F501A6946D";
paths = (
{
closed = 1;
nodes = (
"465 839 LINE SMOOTH",
"483 854 OFFCURVE",
"493 867 OFFCURVE",
"493 880 CURVE SMOOTH",
"493 895 OFFCURVE",
"486 905 OFFCURVE",
"472 905 CURVE SMOOTH",
"454 905 OFFCURVE",
"441 897 OFFCURVE",
"425 874 CURVE SMOOTH",
"335 748 LINE",
"342 740 LINE"
);
},
{
closed = 1;
nodes = (
"594 0 LINE",
"610 268 LINE",
"589 268 LINE",
"583 254 OFFCURVE",
"598 31 OFFCURVE",
"429 31 CURVE SMOOTH",
"247 31 LINE SMOOTH",
"227 31 OFFCURVE",
"217 42 OFFCURVE",
"217 59 CURVE SMOOTH",
"217 345 LINE",
"307 345 LINE SMOOTH",
"380 345 OFFCURVE",
"398 260 OFFCURVE",
"398 175 CURVE",
"420 175 LINE",
"420 548 LINE",
"398 548 LINE",
"398 456 OFFCURVE",
"376 374 OFFCURVE",
"307 374 CURVE SMOOTH",
"217 374 LINE",
"217 631 LINE SMOOTH",
"217 650 OFFCURVE",
"226 660 OFFCURVE",
"247 660 CURVE SMOOTH",
"426 660 LINE SMOOTH",
"550 660 OFFCURVE",
"581 556 OFFCURVE",
"581 438 CURVE",
"602 438 LINE",
"599 691 LINE",
"60 691 LINE",
"60 660 LINE",
"132 660 LINE SMOOTH",
"150 660 OFFCURVE",
"159 650 OFFCURVE",
"159 631 CURVE SMOOTH",
"159 59 LINE SMOOTH",
"159 42 OFFCURVE",
"147 31 OFFCURVE",
"132 31 CURVE SMOOTH",
"60 31 LINE",
"60 0 LINE"
);
}
);
width = 666;
},
{
layerId = "6701A4D5-8A3D-41DD-8AA0-CFF5D98C5FFE";
paths = (
{
closed = 1;
nodes = (
"479 833 LINE SMOOTH",
"498 847 OFFCURVE",
"506 862 OFFCURVE",
"506 881 CURVE SMOOTH",
"506 906 OFFCURVE",
"487 923 OFFCURVE",
"463 923 CURVE SMOOTH",
"444 923 OFFCURVE",
"430 914 OFFCURVE",
"415 891 CURVE SMOOTH",
"330 756 LINE",
"350 737 LINE"
);
},
{
closed = 1;
nodes = (
"616 0 LINE",
"621 268 LINE",
"588 268 LINE",
"582 162 OFFCURVE",
"518 31 OFFCURVE",
"423 31 CURVE SMOOTH",
"330 31 LINE SMOOTH",
"315 31 OFFCURVE",
"308 37 OFFCURVE",
"308 53 CURVE SMOOTH",
"308 332 LINE",
"350 332 LINE SMOOTH",
"400 332 OFFCURVE",
"448 260 OFFCURVE",
"448 203 CURVE",
"481 203 LINE",
"481 494 LINE",
"448 494 LINE",
"448 449 OFFCURVE",
"408 368 OFFCURVE",
"350 368 CURVE SMOOTH",
"308 368 LINE",
"308 637 LINE SMOOTH",
"308 656 OFFCURVE",
"315 660 OFFCURVE",
"330 660 CURVE SMOOTH",
"425 660 LINE SMOOTH",
"492 660 OFFCURVE",
"580 546 OFFCURVE",
"580 471 CURVE",
"613 471 LINE",
"606 691 LINE",
"60 691 LINE",
"60 660 LINE",
"127 660 LINE SMOOTH",
"145 660 OFFCURVE",
"150 656 OFFCURVE",
"150 637 CURVE SMOOTH",
"150 53 LINE SMOOTH",
"150 37 OFFCURVE",
"146 31 OFFCURVE",
"127 31 CURVE SMOOTH",
"60 31 LINE",
"60 0 LINE"
);
}
);
width = 671;
}
);
note = Eacute;
unicode = 00C9;
},
{
glyphname = Ecircumflex;
lastChange = "2017-06-10 11:33:30 +0000";
layers = (
{
layerId = "9ECE4C5B-AE6E-45F8-855F-54F501A6946D";
paths = (
{
closed = 1;
nodes = (
"237 746 OFFCURVE",
"327 806 OFFCURVE",
"355 840 CURVE",
"384 806 OFFCURVE",
"472 746 OFFCURVE",
"495 739 CURVE",
"502 752 LINE",
"446 786 OFFCURVE",
"403 831 OFFCURVE",
"374 887 CURVE",
"336 887 LINE",
"307 829 OFFCURVE",
"265 786 OFFCURVE",
"207 752 CURVE",
"215 739 LINE"
);
},
{
closed = 1;
nodes = (
"594 0 LINE",
"610 268 LINE",
"589 268 LINE",
"588 266 OFFCURVE",
"591 274 OFFCURVE",
"591 257 CURVE SMOOTH",
"590 137 OFFCURVE",
"550 31 OFFCURVE",
"429 31 CURVE SMOOTH",
"247 31 LINE SMOOTH",
"227 31 OFFCURVE",
"217 42 OFFCURVE",
"217 59 CURVE SMOOTH",
"217 345 LINE",
"307 345 LINE SMOOTH",
"380 345 OFFCURVE",
"398 260 OFFCURVE",
"398 175 CURVE",
"420 175 LINE",
"420 548 LINE",
"398 548 LINE",
"398 456 OFFCURVE",
"376 374 OFFCURVE",
"307 374 CURVE SMOOTH",
"217 374 LINE",
"217 631 LINE SMOOTH",
"217 650 OFFCURVE",
"226 660 OFFCURVE",
"247 660 CURVE SMOOTH",
"426 660 LINE SMOOTH",
"477 660 OFFCURVE",
"515 644 OFFCURVE",
"538 610 CURVE SMOOTH",
"575 555 OFFCURVE",
"581 474 OFFCURVE",
"581 438 CURVE",
"602 438 LINE",
"599 691 LINE",
"60 691 LINE",
"60 660 LINE",
"132 660 LINE SMOOTH",
"150 660 OFFCURVE",
"159 650 OFFCURVE",
"159 631 CURVE SMOOTH",
"159 59 LINE SMOOTH",
"159 42 OFFCURVE",
"147 31 OFFCURVE",
"132 31 CURVE SMOOTH",
"60 31 LINE",
"60 0 LINE"
);
}
);
width = 666;
},
{
layerId = "6701A4D5-8A3D-41DD-8AA0-CFF5D98C5FFE";
paths = (
{
closed = 1;
nodes = (
"270 761 OFFCURVE",
"296 773 OFFCURVE",
"362 813 CURVE",
"428 773 OFFCURVE",
"455 761 OFFCURVE",
"515 739 CURVE",
"528 764 LINE",
"462 795 OFFCURVE",
"414 843 OFFCURVE",
"381 905 CURVE",
"342 905 LINE",
"308 844 OFFCURVE",
"260 797 OFFCURVE",
"197 764 CURVE",
"209 739 LINE"
);
},
{
closed = 1;
nodes = (
"616 0 LINE",
"621 268 LINE",
"588 268 LINE",
"587 251 OFFCURVE",
"576 186 OFFCURVE",
"563 154 CURVE SMOOTH",
"537 92 OFFCURVE",
"486 31 OFFCURVE",
"423 31 CURVE SMOOTH",
"330 31 LINE SMOOTH",
"315 31 OFFCURVE",
"308 37 OFFCURVE",
"308 53 CURVE SMOOTH",
"308 332 LINE",
"350 332 LINE SMOOTH",
"400 332 OFFCURVE",
"448 260 OFFCURVE",
"448 203 CURVE",
"481 203 LINE",
"481 494 LINE",
"448 494 LINE",
"448 449 OFFCURVE",
"408 368 OFFCURVE",
"350 368 CURVE SMOOTH",
"308 368 LINE",
"308 637 LINE SMOOTH",
"308 656 OFFCURVE",
"315 660 OFFCURVE",
"330 660 CURVE SMOOTH",
"425 660 LINE SMOOTH",
"471 660 OFFCURVE",
"510 626 OFFCURVE",
"542 571 CURVE SMOOTH",
"564 533 OFFCURVE",
"580 474 OFFCURVE",
"580 471 CURVE",
"613 471 LINE",
"606 691 LINE",
"60 691 LINE",
"60 660 LINE",
"127 660 LINE SMOOTH",
"145 660 OFFCURVE",
"150 656 OFFCURVE",
"150 637 CURVE SMOOTH",
"150 53 LINE SMOOTH",
"150 37 OFFCURVE",
"146 31 OFFCURVE",
"127 31 CURVE SMOOTH",
"60 31 LINE",
"60 0 LINE"
);
}
);
width = 671;
}
);
note = Ecircumflex;
unicode = 00CA;
},
{
glyphname = Edieresis;
lastChange = "2017-06-10 11:33:30 +0000";
layers = (
{
layerId = "9ECE4C5B-AE6E-45F8-855F-54F501A6946D";
paths = (
{
closed = 1;
nodes = (
"287 776 OFFCURVE",
"303 796 OFFCURVE",
"303 823 CURVE SMOOTH",
"303 852 OFFCURVE",
"287 868 OFFCURVE",
"258 868 CURVE SMOOTH",
"232 868 OFFCURVE",
"213 852 OFFCURVE",
"213 823 CURVE SMOOTH",
"213 796 OFFCURVE",
"232 776 OFFCURVE",
"258 776 CURVE SMOOTH"
);
},
{
closed = 1;
nodes = (
"481 776 OFFCURVE",
"497 796 OFFCURVE",
"497 823 CURVE SMOOTH",
"497 852 OFFCURVE",
"481 868 OFFCURVE",
"451 868 CURVE SMOOTH",
"426 868 OFFCURVE",
"405 852 OFFCURVE",
"405 823 CURVE SMOOTH",
"405 796 OFFCURVE",
"426 776 OFFCURVE",
"451 776 CURVE SMOOTH"
);
},
{
closed = 1;
nodes = (
"594 0 LINE",
"610 268 LINE",
"589 268 LINE",
"588 266 OFFCURVE",
"591 274 OFFCURVE",
"591 257 CURVE SMOOTH",
"590 137 OFFCURVE",
"550 31 OFFCURVE",
"429 31 CURVE SMOOTH",
"247 31 LINE SMOOTH",
"227 31 OFFCURVE",
"217 42 OFFCURVE",
"217 59 CURVE SMOOTH",
"217 345 LINE",
"307 345 LINE SMOOTH",
"380 345 OFFCURVE",
"398 260 OFFCURVE",
"398 175 CURVE",
"420 175 LINE",
"420 548 LINE",
"398 548 LINE",
"398 456 OFFCURVE",
"376 374 OFFCURVE",
"307 374 CURVE SMOOTH",
"217 374 LINE",
"217 631 LINE SMOOTH",
"217 650 OFFCURVE",
"226 660 OFFCURVE",
"247 660 CURVE SMOOTH",
"426 660 LINE SMOOTH",
"477 660 OFFCURVE",
"515 644 OFFCURVE",
"538 610 CURVE SMOOTH",
"575 555 OFFCURVE",
"581 474 OFFCURVE",
"581 438 CURVE",
"602 438 LINE",
"599 691 LINE",
"60 691 LINE",
"60 660 LINE",
"132 660 LINE SMOOTH",
"150 660 OFFCURVE",
"159 650 OFFCURVE",
"159 631 CURVE SMOOTH",
"159 59 LINE SMOOTH",
"159 42 OFFCURVE",
"147 31 OFFCURVE",
"132 31 CURVE SMOOTH",
"60 31 LINE",
"60 0 LINE"
);
}
);
width = 666;
},
{
layerId = "6701A4D5-8A3D-41DD-8AA0-CFF5D98C5FFE";
paths = (
{
closed = 1;
nodes = (
"291 769 OFFCURVE",
"318 796 OFFCURVE",
"318 829 CURVE SMOOTH",
"318 861 OFFCURVE",
"291 890 OFFCURVE",
"258 890 CURVE SMOOTH",
"225 890 OFFCURVE",
"198 861 OFFCURVE",
"198 829 CURVE SMOOTH",
"198 796 OFFCURVE",
"225 769 OFFCURVE",
"258 769 CURVE SMOOTH"
);
},
{
closed = 1;
nodes = (
"499 769 OFFCURVE",
"526 796 OFFCURVE",
"526 829 CURVE SMOOTH",
"526 861 OFFCURVE",
"499 890 OFFCURVE",
"466 890 CURVE SMOOTH",
"433 890 OFFCURVE",
"405 861 OFFCURVE",
"405 829 CURVE SMOOTH",
"405 796 OFFCURVE",
"433 769 OFFCURVE",
"466 769 CURVE SMOOTH"
);
},
{
closed = 1;
nodes = (
"616 0 LINE",
"621 268 LINE",
"588 268 LINE",
"587 251 OFFCURVE",
"576 186 OFFCURVE",
"563 154 CURVE SMOOTH",
"537 92 OFFCURVE",
"486 31 OFFCURVE",
"423 31 CURVE SMOOTH",
"330 31 LINE SMOOTH",
"315 31 OFFCURVE",
"308 37 OFFCURVE",
"308 53 CURVE SMOOTH",
"308 332 LINE",
"350 332 LINE SMOOTH",
"400 332 OFFCURVE",
"448 260 OFFCURVE",
"448 203 CURVE",
"481 203 LINE",
"481 494 LINE",
"448 494 LINE",
"448 449 OFFCURVE",
"408 368 OFFCURVE",
"350 368 CURVE SMOOTH",
"308 368 LINE",
"308 637 LINE SMOOTH",
"308 656 OFFCURVE",
"315 660 OFFCURVE",
"330 660 CURVE SMOOTH",
"425 660 LINE SMOOTH",
"471 660 OFFCURVE",
"510 626 OFFCURVE",
"542 571 CURVE SMOOTH",
"564 533 OFFCURVE",
"580 474 OFFCURVE",
"580 471 CURVE",
"613 471 LINE",
"606 691 LINE",
"60 691 LINE",
"60 660 LINE",
"127 660 LINE SMOOTH",
"145 660 OFFCURVE",
"150 656 OFFCURVE",
"150 637 CURVE SMOOTH",
"150 53 LINE SMOOTH",
"150 37 OFFCURVE",
"146 31 OFFCURVE",
"127 31 CURVE SMOOTH",
"60 31 LINE",
"60 0 LINE"
);
}
);
width = 671;
}
);
note = Edieresis;
unicode = 00CB;
},
{
glyphname = Egrave;
lastChange = "2017-06-10 11:33:30 +0000";
layers = (
{
layerId = "9ECE4C5B-AE6E-45F8-855F-54F501A6946D";
paths = (
{
closed = 1;
nodes = (
"376 748 LINE",
"284 873 LINE SMOOTH",
"266 897 OFFCURVE",
"256 905 OFFCURVE",
"236 905 CURVE SMOOTH",
"225 905 OFFCURVE",
"217 895 OFFCURVE",
"217 880 CURVE SMOOTH",
"217 867 OFFCURVE",
"226 853 OFFCURVE",
"244 839 CURVE SMOOTH",
"368 741 LINE"
);
},
{
closed = 1;
nodes = (
"594 0 LINE",
"610 268 LINE",
"589 268 LINE",
"588 266 OFFCURVE",
"591 274 OFFCURVE",
"591 257 CURVE SMOOTH",
"590 137 OFFCURVE",
"550 31 OFFCURVE",
"429 31 CURVE SMOOTH",
"247 31 LINE SMOOTH",
"227 31 OFFCURVE",
"217 42 OFFCURVE",
"217 59 CURVE SMOOTH",
"217 345 LINE",
"307 345 LINE SMOOTH",
"380 345 OFFCURVE",
"398 260 OFFCURVE",
"398 175 CURVE",
"420 175 LINE",
"420 548 LINE",
"398 548 LINE",
"398 456 OFFCURVE",
"376 374 OFFCURVE",
"307 374 CURVE SMOOTH",
"217 374 LINE",
"217 631 LINE SMOOTH",
"217 650 OFFCURVE",
"226 660 OFFCURVE",
"247 660 CURVE SMOOTH",
"426 660 LINE SMOOTH",
"477 660 OFFCURVE",
"515 644 OFFCURVE",
"538 610 CURVE SMOOTH",
"575 555 OFFCURVE",
"581 474 OFFCURVE",
"581 438 CURVE",
"602 438 LINE",
"599 691 LINE",
"60 691 LINE",
"60 660 LINE",
"132 660 LINE SMOOTH",
"150 660 OFFCURVE",
"159 650 OFFCURVE",
"159 631 CURVE SMOOTH",
"159 59 LINE SMOOTH",
"159 42 OFFCURVE",
"147 31 OFFCURVE",
"132 31 CURVE SMOOTH",
"60 31 LINE",
"60 0 LINE"
);
}
);
width = 666;
},
{
layerId = "6701A4D5-8A3D-41DD-8AA0-CFF5D98C5FFE";
paths = (
{
closed = 1;
nodes = (
"395 756 LINE",
"310 892 LINE SMOOTH",
"296 915 OFFCURVE",
"279 923 OFFCURVE",
"262 923 CURVE SMOOTH",
"237 923 OFFCURVE",
"217 906 OFFCURVE",
"217 881 CURVE SMOOTH",
"217 862 OFFCURVE",
"226 847 OFFCURVE",
"244 833 CURVE SMOOTH",
"372 736 LINE"
);
},
{
closed = 1;
nodes = (
"616 0 LINE",
"621 268 LINE",
"588 268 LINE",
"587 251 OFFCURVE",
"576 186 OFFCURVE",
"563 154 CURVE SMOOTH",
"537 92 OFFCURVE",
"486 31 OFFCURVE",
"423 31 CURVE SMOOTH",
"330 31 LINE SMOOTH",
"315 31 OFFCURVE",
"308 37 OFFCURVE",
"308 53 CURVE SMOOTH",
"308 332 LINE",
"350 332 LINE SMOOTH",
"400 332 OFFCURVE",
"448 260 OFFCURVE",
"448 203 CURVE",
"481 203 LINE",
"481 494 LINE",
"448 494 LINE",
"448 449 OFFCURVE",
"408 368 OFFCURVE",
"350 368 CURVE SMOOTH",
"308 368 LINE",
"308 637 LINE SMOOTH",
"308 656 OFFCURVE",
"315 660 OFFCURVE",
"330 660 CURVE SMOOTH",
"425 660 LINE SMOOTH",
"471 660 OFFCURVE",
"510 626 OFFCURVE",
"542 571 CURVE SMOOTH",
"564 533 OFFCURVE",
"580 474 OFFCURVE",
"580 471 CURVE",
"613 471 LINE",
"606 691 LINE",
"60 691 LINE",
"60 660 LINE",
"127 660 LINE SMOOTH",
"145 660 OFFCURVE",
"150 656 OFFCURVE",
"150 637 CURVE SMOOTH",
"150 53 LINE SMOOTH",
"150 37 OFFCURVE",
"146 31 OFFCURVE",
"127 31 CURVE SMOOTH",
"60 31 LINE",
"60 0 LINE"
);
}
);
width = 671;
}
);
note = Egrave;
unicode = 00C8;
},
{
glyphname = F;
lastChange = "2017-06-10 11:33:30 +0000";
layers = (
{
layerId = "9ECE4C5B-AE6E-45F8-855F-54F501A6946D";
paths = (
{
closed = 1;
nodes = (
"330 0 LINE",
"330 31 LINE",
"247 31 LINE SMOOTH",
"226 31 OFFCURVE",
"217 47 OFFCURVE",
"217 68 CURVE SMOOTH",
"217 345 LINE",
"307 345 LINE SMOOTH",
"380 345 OFFCURVE",
"398 252 OFFCURVE",
"398 166 CURVE",
"420 166 LINE",
"420 555 LINE",
"398 555 LINE",
"398 464 OFFCURVE",
"376 374 OFFCURVE",
"307 374 CURVE SMOOTH",
"217 374 LINE",
"217 631 LINE SMOOTH",
"217 650 OFFCURVE",
"226 660 OFFCURVE",
"247 660 CURVE SMOOTH",
"431 660 LINE SMOOTH",
"475 660 OFFCURVE",
"508 654 OFFCURVE",
"535 621 CURVE SMOOTH",
"577 569 OFFCURVE",
"579 496 OFFCURVE",
"579 461 CURVE",
"600 461 LINE",
"598 691 LINE",
"60 691 LINE",
"60 660 LINE",
"132 660 LINE SMOOTH",
"150 660 OFFCURVE",
"159 650 OFFCURVE",
"159 631 CURVE SMOOTH",
"159 59 LINE SMOOTH",
"159 42 OFFCURVE",
"147 31 OFFCURVE",
"132 31 CURVE SMOOTH",
"60 31 LINE",
"60 0 LINE"
);
}
);
width = 651;
},
{
layerId = "6701A4D5-8A3D-41DD-8AA0-CFF5D98C5FFE";
paths = (
{
closed = 1;
nodes = (
"419 0 LINE",
"419 31 LINE",
"330 31 LINE SMOOTH",
"315 31 OFFCURVE",
"308 37 OFFCURVE",
"308 52 CURVE SMOOTH",
"308 332 LINE",
"350 332 LINE SMOOTH",
"400 332 OFFCURVE",
"448 261 OFFCURVE",
"448 205 CURVE",
"481 205 LINE",
"481 493 LINE",
"448 493 LINE",
"448 448 OFFCURVE",
"408 368 OFFCURVE",
"350 368 CURVE SMOOTH",
"308 368 LINE",
"308 637 LINE SMOOTH",
"308 656 OFFCURVE",
"315 660 OFFCURVE",
"330 660 CURVE SMOOTH",
"415 660 LINE SMOOTH",
"474 660 OFFCURVE",
"525 605 OFFCURVE",
"551 543 CURVE SMOOTH",
"568 502 OFFCURVE",
"585 426 OFFCURVE",
"585 419 CURVE",
"618 419 LINE",
"609 691 LINE",
"60 691 LINE",
"60 660 LINE",
"127 660 LINE SMOOTH",
"145 660 OFFCURVE",
"150 656 OFFCURVE",
"150 637 CURVE SMOOTH",
"150 53 LINE SMOOTH",
"150 37 OFFCURVE",
"146 31 OFFCURVE",
"127 31 CURVE SMOOTH",
"60 31 LINE",
"60 0 LINE"
);
}
);
width = 653;
}
);
note = F;
rightKerningGroup = F;
unicode = 0046;
},
{
glyphname = G;
lastChange = "2017-06-10 11:33:30 +0000";
layers = (
{
layerId = "9ECE4C5B-AE6E-45F8-855F-54F501A6946D";
paths = (
{
closed = 1;
nodes = (
"403 -17 OFFCURVE",
"463 34 OFFCURVE",
"491 80 CURVE",
"503 101 OFFCURVE",
"512 114 OFFCURVE",
"528 114 CURVE SMOOTH",
"538 114 OFFCURVE",
"543 103 OFFCURVE",
"539 76 CURVE SMOOTH",
"528 -13 LINE",
"557 -13 LINE",
"557 261 LINE SMOOTH",
"557 279 OFFCURVE",
"567 289 OFFCURVE",
"585 289 CURVE SMOOTH",
"671 289 LINE",
"671 320 LINE",
"351 320 LINE",
"351 289 LINE",
"472 289 LINE SMOOTH",
"490 289 OFFCURVE",
"500 279 OFFCURVE",
"500 261 CURVE SMOOTH",
"500 198 LINE SMOOTH",
"500 130 OFFCURVE",
"426 14 OFFCURVE",
"340 14 CURVE SMOOTH",
"176 14 OFFCURVE",
"136 187 OFFCURVE",
"136 343 CURVE SMOOTH",
"136 415 OFFCURVE",
"139 677 OFFCURVE",
"330 677 CURVE SMOOTH",
"422 677 OFFCURVE",
"504 556 OFFCURVE",
"539 388 CURVE",
"564 388 LINE",
"557 700 LINE",
"538 700 LINE",
"520 636 LINE SMOOTH",
"515 619 OFFCURVE",
"514 615 OFFCURVE",
"501 615 CURVE SMOOTH",
"494 615 OFFCURVE",
"408 708 OFFCURVE",
"328 708 CURVE SMOOTH",
"167 708 OFFCURVE",
"68 558 OFFCURVE",
"68 354 CURVE SMOOTH",
"68 180 OFFCURVE",
"143 -17 OFFCURVE",
"340 -17 CURVE SMOOTH"
);
}
);
width = 700;
},
{
layerId = "6701A4D5-8A3D-41DD-8AA0-CFF5D98C5FFE";
paths = (
{
closed = 1;
nodes = (
"404 -17 OFFCURVE",
"457 29 OFFCURVE",
"490 80 CURVE SMOOTH",
"498 92 OFFCURVE",
"507 98 OFFCURVE",
"519 98 CURVE SMOOTH",
"531 98 OFFCURVE",
"538 86 OFFCURVE",
"544 76 CURVE",
"572 -13 LINE",
"605 -13 LINE",
"605 294 LINE SMOOTH",
"605 312 OFFCURVE",
"610 316 OFFCURVE",
"627 316 CURVE SMOOTH",
"666 316 LINE",
"666 347 LINE",
"344 347 LINE",
"344 316 LINE",
"424 316 LINE SMOOTH",
"442 316 OFFCURVE",
"446 312 OFFCURVE",
"446 294 CURVE SMOOTH",
"446 149 LINE SMOOTH",
"446 72 OFFCURVE",
"403 14 OFFCURVE",
"340 14 CURVE SMOOTH",
"264 14 OFFCURVE",
"249 44 OFFCURVE",
"249 349 CURVE",
"249 672 OFFCURVE",
"277 677 OFFCURVE",
"362 677 CURVE SMOOTH",
"456 677 OFFCURVE",
"525 590 OFFCURVE",
"572 427 CURVE",
"604 427 LINE",
"605 700 LINE",
"571 700 LINE",
"554 669 LINE SMOOTH",
"548 658 OFFCURVE",
"540 651 OFFCURVE",
"533 651 CURVE SMOOTH",
"512 651 OFFCURVE",
"431 708 OFFCURVE",
"362 708 CURVE SMOOTH",
"195 708 OFFCURVE",
"68 548 OFFCURVE",
"68 344 CURVE SMOOTH",
"68 179 OFFCURVE",
"152 -17 OFFCURVE",
"340 -17 CURVE SMOOTH"
);
}
);
width = 697;
}
);
leftKerningGroup = C;
note = G;
rightKerningGroup = G;
unicode = 0047;
},
{
glyphname = H;
lastChange = "2017-06-10 11:33:30 +0000";
layers = (
{
layerId = "9ECE4C5B-AE6E-45F8-855F-54F501A6946D";
paths = (
{
closed = 1;
nodes = (
"316 0 LINE",
"316 31 LINE",
"247 31 LINE SMOOTH",
"227 31 OFFCURVE",
"217 42 OFFCURVE",
"217 59 CURVE SMOOTH",
"217 349 LINE",
"546 349 LINE",
"546 59 LINE SMOOTH",
"546 42 OFFCURVE",
"537 31 OFFCURVE",
"519 31 CURVE SMOOTH",
"447 31 LINE",
"447 0 LINE",
"704 0 LINE",
"704 31 LINE",
"634 31 LINE SMOOTH",
"615 31 OFFCURVE",
"606 42 OFFCURVE",
"606 59 CURVE SMOOTH",
"606 631 LINE SMOOTH",
"606 649 OFFCURVE",
"615 660 OFFCURVE",
"634 660 CURVE SMOOTH",
"704 660 LINE",
"704 691 LINE",
"449 691 LINE",
"449 660 LINE",
"519 660 LINE SMOOTH",
"537 660 OFFCURVE",
"546 649 OFFCURVE",
"546 631 CURVE SMOOTH",
"546 377 LINE",
"217 377 LINE",
"217 631 LINE SMOOTH",
"217 649 OFFCURVE",
"227 660 OFFCURVE",
"247 660 CURVE SMOOTH",
"316 660 LINE",
"316 691 LINE",
"60 691 LINE",
"60 660 LINE",
"132 660 LINE SMOOTH",
"147 660 OFFCURVE",
"159 649 OFFCURVE",
"159 631 CURVE SMOOTH",
"159 59 LINE SMOOTH",
"159 42 OFFCURVE",
"147 31 OFFCURVE",
"132 31 CURVE SMOOTH",
"60 31 LINE",
"60 0 LINE"
);
}
);
width = 744;
},
{
layerId = "6701A4D5-8A3D-41DD-8AA0-CFF5D98C5FFE";
paths = (
{
closed = 1;
nodes = (
"398 0 LINE",
"398 31 LINE",
"330 31 LINE SMOOTH",
"315 31 OFFCURVE",
"308 37 OFFCURVE",
"308 53 CURVE SMOOTH",
"308 344 LINE",
"520 344 LINE",
"520 53 LINE SMOOTH",
"520 37 OFFCURVE",
"516 31 OFFCURVE",
"498 31 CURVE SMOOTH",
"431 31 LINE",
"431 0 LINE",
"768 0 LINE",
"768 31 LINE",
"701 31 LINE SMOOTH",
"684 31 OFFCURVE",
"677 37 OFFCURVE",
"677 53 CURVE SMOOTH",
"677 637 LINE SMOOTH",
"677 656 OFFCURVE",
"684 660 OFFCURVE",
"701 660 CURVE SMOOTH",
"768 660 LINE",
"768 691 LINE",
"428 691 LINE",
"428 660 LINE",
"498 660 LINE SMOOTH",
"516 660 OFFCURVE",
"520 656 OFFCURVE",
"520 637 CURVE SMOOTH",
"520 381 LINE",
"308 381 LINE",
"308 637 LINE SMOOTH",
"308 656 OFFCURVE",
"315 660 OFFCURVE",
"330 660 CURVE SMOOTH",
"398 660 LINE",
"398 691 LINE",
"60 691 LINE",
"60 660 LINE",
"127 660 LINE SMOOTH",
"146 660 OFFCURVE",
"150 656 OFFCURVE",
"150 637 CURVE SMOOTH",
"150 53 LINE SMOOTH",
"150 37 OFFCURVE",
"146 31 OFFCURVE",
"127 31 CURVE SMOOTH",
"60 31 LINE",
"60 0 LINE"
);
}
);
width = 808;
}
);
note = H;
unicode = 0048;
},
{
glyphname = I;
lastChange = "2017-06-10 11:33:30 +0000";
layers = (
{
layerId = "9ECE4C5B-AE6E-45F8-855F-54F501A6946D";
paths = (
{
closed = 1;
nodes = (
"316 0 LINE",
"316 31 LINE",
"247 31 LINE SMOOTH",
"227 31 OFFCURVE",
"217 42 OFFCURVE",
"217 59 CURVE SMOOTH",
"217 631 LINE SMOOTH",
"217 650 OFFCURVE",
"226 660 OFFCURVE",
"247 660 CURVE SMOOTH",
"316 660 LINE",
"316 691 LINE",
"60 691 LINE",
"60 660 LINE",
"132 660 LINE SMOOTH",
"150 660 OFFCURVE",
"159 650 OFFCURVE",
"159 631 CURVE SMOOTH",
"159 59 LINE SMOOTH",
"159 42 OFFCURVE",
"147 31 OFFCURVE",
"132 31 CURVE SMOOTH",
"60 31 LINE",
"60 0 LINE"
);
}
);
width = 357;
},
{
layerId = "6701A4D5-8A3D-41DD-8AA0-CFF5D98C5FFE";
paths = (
{
closed = 1;
nodes = (
"398 0 LINE",
"398 31 LINE",
"330 31 LINE SMOOTH",
"315 31 OFFCURVE",
"308 37 OFFCURVE",
"308 53 CURVE SMOOTH",
"308 637 LINE SMOOTH",
"308 656 OFFCURVE",
"315 660 OFFCURVE",
"330 660 CURVE SMOOTH",
"398 660 LINE",
"398 691 LINE",
"60 691 LINE",
"60 660 LINE",
"127 660 LINE SMOOTH",
"145 660 OFFCURVE",
"150 656 OFFCURVE",
"150 637 CURVE SMOOTH",
"150 53 LINE SMOOTH",
"150 37 OFFCURVE",
"146 31 OFFCURVE",
"127 31 CURVE SMOOTH",
"60 31 LINE",
"60 0 LINE"
);
}
);
width = 439;
}
);
note = I;
unicode = 0049;
},
{
glyphname = Iacute;
lastChange = "2017-06-10 11:33:30 +0000";
layers = (
{
layerId = "9ECE4C5B-AE6E-45F8-855F-54F501A6946D";
paths = (
{
closed = 1;
nodes = (
"300 839 LINE SMOOTH",
"319 854 OFFCURVE",
"326 867 OFFCURVE",
"326 880 CURVE SMOOTH",
"326 895 OFFCURVE",
"321 905 OFFCURVE",
"307 905 CURVE SMOOTH",
"290 905 OFFCURVE",
"276 897 OFFCURVE",
"260 874 CURVE SMOOTH",
"170 748 LINE",
"178 741 LINE"
);
},
{
closed = 1;
nodes = (
"316 0 LINE",
"316 31 LINE",
"247 31 LINE SMOOTH",
"227 31 OFFCURVE",
"217 42 OFFCURVE",
"217 59 CURVE SMOOTH",
"217 631 LINE SMOOTH",
"217 650 OFFCURVE",
"226 660 OFFCURVE",
"247 660 CURVE SMOOTH",
"316 660 LINE",
"316 691 LINE",
"60 691 LINE",
"60 660 LINE",
"132 660 LINE SMOOTH",
"150 660 OFFCURVE",
"159 650 OFFCURVE",
"159 631 CURVE SMOOTH",
"159 59 LINE SMOOTH",
"159 42 OFFCURVE",
"147 31 OFFCURVE",
"132 31 CURVE SMOOTH",
"60 31 LINE",
"60 0 LINE"
);
}
);
width = 367;
},
{
layerId = "6701A4D5-8A3D-41DD-8AA0-CFF5D98C5FFE";
paths = (
{
closed = 1;
nodes = (
"347 833 LINE SMOOTH",
"365 847 OFFCURVE",
"374 862 OFFCURVE",
"374 881 CURVE SMOOTH",
"374 906 OFFCURVE",
"354 923 OFFCURVE",
"329 923 CURVE SMOOTH",
"310 923 OFFCURVE",
"296 914 OFFCURVE",
"281 891 CURVE SMOOTH",
"196 756 LINE",
"217 736 LINE"
);
},
{
closed = 1;
nodes = (
"398 0 LINE",
"398 31 LINE",
"330 31 LINE SMOOTH",
"315 31 OFFCURVE",
"308 37 OFFCURVE",
"308 53 CURVE SMOOTH",
"308 637 LINE SMOOTH",
"308 656 OFFCURVE",
"315 660 OFFCURVE",
"330 660 CURVE SMOOTH",
"398 660 LINE",
"398 691 LINE",
"60 691 LINE",
"60 660 LINE",
"127 660 LINE SMOOTH",
"145 660 OFFCURVE",
"150 656 OFFCURVE",
"150 637 CURVE SMOOTH",
"150 53 LINE SMOOTH",
"150 37 OFFCURVE",
"146 31 OFFCURVE",
"127 31 CURVE SMOOTH",
"60 31 LINE",
"60 0 LINE"
);
}
);
width = 439;
}
);
note = Iacute;
unicode = 00CD;
},
{
glyphname = Icircumflex;
lastChange = "2017-06-10 11:33:30 +0000";
layers = (
{
layerId = "9ECE4C5B-AE6E-45F8-855F-54F501A6946D";
paths = (
{
closed = 1;
nodes = (
"79 746 OFFCURVE",
"169 806 OFFCURVE",
"197 840 CURVE",
"225 806 OFFCURVE",
"313 746 OFFCURVE",
"335 739 CURVE",
"343 752 LINE",
"288 786 OFFCURVE",
"244 831 OFFCURVE",
"215 887 CURVE",
"176 887 LINE",
"147 829 OFFCURVE",
"106 786 OFFCURVE",
"49 752 CURVE",
"56 739 LINE"
);
},
{
closed = 1;
nodes = (
"322 0 LINE",
"322 31 LINE",
"252 31 LINE SMOOTH",
"234 31 OFFCURVE",
"223 42 OFFCURVE",
"223 59 CURVE SMOOTH",
"223 631 LINE SMOOTH",
"223 650 OFFCURVE",
"231 660 OFFCURVE",
"252 660 CURVE SMOOTH",
"322 660 LINE",
"322 691 LINE",
"67 691 LINE",
"67 660 LINE",
"137 660 LINE SMOOTH",
"155 660 OFFCURVE",
"165 650 OFFCURVE",
"165 631 CURVE SMOOTH",
"165 59 LINE SMOOTH",
"165 42 OFFCURVE",
"154 31 OFFCURVE",
"137 31 CURVE SMOOTH",
"67 31 LINE",
"67 0 LINE"
);
}
);
width = 370;
},
{
layerId = "6701A4D5-8A3D-41DD-8AA0-CFF5D98C5FFE";
paths = (
{
closed = 1;
nodes = (
"136 761 OFFCURVE",
"162 773 OFFCURVE",
"229 813 CURVE",
"295 773 OFFCURVE",
"321 761 OFFCURVE",
"382 739 CURVE",
"394 764 LINE",
"329 795 OFFCURVE",
"281 843 OFFCURVE",
"249 905 CURVE",
"210 905 LINE",
"176 844 OFFCURVE",
"127 797 OFFCURVE",
"63 764 CURVE",
"76 739 LINE"
);
},
{
closed = 1;
nodes = (
"398 0 LINE",
"398 31 LINE",
"330 31 LINE SMOOTH",
"315 31 OFFCURVE",
"308 37 OFFCURVE",
"308 53 CURVE SMOOTH",
"308 637 LINE SMOOTH",
"308 656 OFFCURVE",
"315 660 OFFCURVE",
"330 660 CURVE SMOOTH",
"398 660 LINE",
"398 691 LINE",
"60 691 LINE",
"60 660 LINE",
"128 660 LINE SMOOTH",
"146 660 OFFCURVE",
"150 656 OFFCURVE",
"150 637 CURVE SMOOTH",
"150 53 LINE SMOOTH",
"150 37 OFFCURVE",
"146 31 OFFCURVE",
"128 31 CURVE SMOOTH",
"60 31 LINE",
"60 0 LINE"
);
}
);
width = 439;
}
);
note = Icircumflex;
unicode = 00CE;
},
{
glyphname = Idieresis;
lastChange = "2017-06-10 11:33:30 +0000";
layers = (
{
layerId = "9ECE4C5B-AE6E-45F8-855F-54F501A6946D";
paths = (
{
closed = 1;
nodes = (
"128 776 OFFCURVE",
"145 796 OFFCURVE",
"145 823 CURVE SMOOTH",
"145 852 OFFCURVE",
"128 868 OFFCURVE",
"100 868 CURVE SMOOTH",
"73 868 OFFCURVE",
"52 852 OFFCURVE",
"52 823 CURVE SMOOTH",
"52 796 OFFCURVE",
"73 776 OFFCURVE",
"100 776 CURVE SMOOTH"
);
},
{
closed = 1;
nodes = (
"321 776 OFFCURVE",
"338 796 OFFCURVE",
"338 823 CURVE SMOOTH",
"338 852 OFFCURVE",
"321 868 OFFCURVE",
"293 868 CURVE SMOOTH",
"267 868 OFFCURVE",
"245 852 OFFCURVE",
"245 823 CURVE SMOOTH",
"245 796 OFFCURVE",
"267 776 OFFCURVE",
"293 776 CURVE SMOOTH"
);
},
{
closed = 1;
nodes = (
"321 0 LINE",
"321 31 LINE",
"252 31 LINE SMOOTH",
"232 31 OFFCURVE",
"223 42 OFFCURVE",
"223 59 CURVE SMOOTH",
"223 631 LINE SMOOTH",
"223 650 OFFCURVE",
"231 660 OFFCURVE",
"252 660 CURVE SMOOTH",
"321 660 LINE",
"321 691 LINE",
"65 691 LINE",
"65 660 LINE",
"137 660 LINE SMOOTH",
"155 660 OFFCURVE",
"164 650 OFFCURVE",
"164 631 CURVE SMOOTH",
"164 59 LINE SMOOTH",
"164 42 OFFCURVE",
"154 31 OFFCURVE",
"137 31 CURVE SMOOTH",
"65 31 LINE",
"65 0 LINE"
);
}
);
width = 369;
},
{
layerId = "6701A4D5-8A3D-41DD-8AA0-CFF5D98C5FFE";
paths = (
{
closed = 1;
nodes = (
"157 769 OFFCURVE",
"184 796 OFFCURVE",
"184 829 CURVE SMOOTH",
"184 861 OFFCURVE",
"157 890 OFFCURVE",
"124 890 CURVE SMOOTH",
"91 890 OFFCURVE",
"65 861 OFFCURVE",
"65 829 CURVE SMOOTH",
"65 796 OFFCURVE",
"91 769 OFFCURVE",
"124 769 CURVE SMOOTH"
);
},
{
closed = 1;
nodes = (
"365 769 OFFCURVE",
"393 796 OFFCURVE",
"393 829 CURVE SMOOTH",
"393 861 OFFCURVE",
"365 890 OFFCURVE",
"332 890 CURVE SMOOTH",
"299 890 OFFCURVE",
"273 861 OFFCURVE",
"273 829 CURVE SMOOTH",
"273 796 OFFCURVE",
"299 769 OFFCURVE",
"332 769 CURVE SMOOTH"
);
},
{
closed = 1;
nodes = (
"398 0 LINE",
"398 31 LINE",
"330 31 LINE SMOOTH",
"315 31 OFFCURVE",
"308 37 OFFCURVE",
"308 53 CURVE SMOOTH",
"308 637 LINE SMOOTH",
"308 656 OFFCURVE",
"315 660 OFFCURVE",
"330 660 CURVE SMOOTH",
"398 660 LINE",
"398 691 LINE",
"60 691 LINE",
"60 660 LINE",
"127 660 LINE SMOOTH",
"145 660 OFFCURVE",
"150 656 OFFCURVE",
"150 637 CURVE SMOOTH",
"150 53 LINE SMOOTH",
"150 37 OFFCURVE",
"146 31 OFFCURVE",
"127 31 CURVE SMOOTH",
"60 31 LINE",
"60 0 LINE"
);
}
);
width = 439;
}
);
note = Idieresis;
unicode = 00CF;
},
{
glyphname = Igrave;
lastChange = "2017-06-10 11:33:30 +0000";
layers = (
{
layerId = "9ECE4C5B-AE6E-45F8-855F-54F501A6946D";
paths = (
{
closed = 1;
nodes = (
"219 747 LINE",
"127 873 LINE SMOOTH",
"110 897 OFFCURVE",
"99 905 OFFCURVE",
"80 905 CURVE SMOOTH",
"68 905 OFFCURVE",
"60 895 OFFCURVE",
"60 880 CURVE SMOOTH",
"60 867 OFFCURVE",
"70 853 OFFCURVE",
"87 839 CURVE SMOOTH",
"209 741 LINE"
);
},
{
closed = 1;
nodes = (
"324 0 LINE",
"324 31 LINE",
"255 31 LINE SMOOTH",
"235 31 OFFCURVE",
"225 42 OFFCURVE",
"225 59 CURVE SMOOTH",
"225 631 LINE SMOOTH",
"225 650 OFFCURVE",
"234 660 OFFCURVE",
"255 660 CURVE SMOOTH",
"324 660 LINE",
"324 691 LINE",
"68 691 LINE",
"68 660 LINE",
"140 660 LINE SMOOTH",
"158 660 OFFCURVE",
"167 650 OFFCURVE",
"167 631 CURVE SMOOTH",
"167 59 LINE SMOOTH",
"167 42 OFFCURVE",
"155 31 OFFCURVE",
"140 31 CURVE SMOOTH",
"68 31 LINE",
"68 0 LINE"
);
}
);
width = 365;
},
{
layerId = "6701A4D5-8A3D-41DD-8AA0-CFF5D98C5FFE";
paths = (
{
closed = 1;
nodes = (
"261 757 LINE",
"176 892 LINE SMOOTH",
"162 915 OFFCURVE",
"147 923 OFFCURVE",
"128 923 CURVE SMOOTH",
"103 923 OFFCURVE",
"85 906 OFFCURVE",
"85 881 CURVE SMOOTH",
"85 862 OFFCURVE",
"92 847 OFFCURVE",
"111 833 CURVE SMOOTH",
"240 736 LINE"
);
},
{
closed = 1;
nodes = (
"398 0 LINE",
"398 31 LINE",
"330 31 LINE SMOOTH",
"315 31 OFFCURVE",
"308 37 OFFCURVE",
"308 53 CURVE SMOOTH",
"308 637 LINE SMOOTH",
"308 656 OFFCURVE",
"315 660 OFFCURVE",
"330 660 CURVE SMOOTH",
"398 660 LINE",
"398 691 LINE",
"60 691 LINE",
"60 660 LINE",
"127 660 LINE SMOOTH",
"145 660 OFFCURVE",
"150 656 OFFCURVE",
"150 637 CURVE SMOOTH",
"150 53 LINE SMOOTH",
"150 37 OFFCURVE",
"146 31 OFFCURVE",
"127 31 CURVE SMOOTH",
"60 31 LINE",
"60 0 LINE"
);
}
);
width = 439;
}
);
note = Igrave;
unicode = 00CC;
},
{
glyphname = J;
lastChange = "2017-06-10 11:33:30 +0000";
layers = (
{
layerId = "9ECE4C5B-AE6E-45F8-855F-54F501A6946D";
paths = (
{
closed = 1;
nodes = (
"237 -17 OFFCURVE",
"267 -10 OFFCURVE",
"294 6 CURVE SMOOTH",
"348 38 OFFCURVE",
"384 103 OFFCURVE",
"384 188 CURVE SMOOTH",
"384 631 LINE SMOOTH",
"384 650 OFFCURVE",
"391 660 OFFCURVE",
"411 660 CURVE SMOOTH",
"486 660 LINE",
"486 691 LINE",
"229 691 LINE",
"229 660 LINE",
"296 660 LINE SMOOTH",
"315 660 OFFCURVE",
"324 650 OFFCURVE",
"324 631 CURVE SMOOTH",
"324 146 LINE SMOOTH",
"324 80 OFFCURVE",
"281 14 OFFCURVE",
"210 14 CURVE SMOOTH",
"140 14 OFFCURVE",
"96 42 OFFCURVE",
"96 83 CURVE SMOOTH",
"96 101 OFFCURVE",
"106 106 OFFCURVE",
"128 113 CURVE SMOOTH",
"160 123 OFFCURVE",
"166 128 OFFCURVE",
"166 145 CURVE SMOOTH",
"166 167 OFFCURVE",
"155 183 OFFCURVE",
"120 183 CURVE SMOOTH",
"110 183 OFFCURVE",
"99 182 OFFCURVE",
"86 175 CURVE SMOOTH",
"63 163 OFFCURVE",
"43 140 OFFCURVE",
"43 106 CURVE SMOOTH",
"43 25 OFFCURVE",
"114 -17 OFFCURVE",
"203 -17 CURVE SMOOTH"
);
}
);
width = 517;
},
{
layerId = "6701A4D5-8A3D-41DD-8AA0-CFF5D98C5FFE";
paths = (
{
closed = 1;
nodes = (
"244 -17 OFFCURVE",
"278 -9 OFFCURVE",
"310 8 CURVE SMOOTH",
"374 41 OFFCURVE",
"419 104 OFFCURVE",
"419 188 CURVE SMOOTH",
"419 637 LINE SMOOTH",
"419 656 OFFCURVE",
"426 660 OFFCURVE",
"443 660 CURVE SMOOTH",
"500 660 LINE",
"500 691 LINE",
"160 691 LINE",
"160 660 LINE",
"239 660 LINE SMOOTH",
"258 660 OFFCURVE",
"262 656 OFFCURVE",
"262 637 CURVE SMOOTH",
"262 123 LINE SMOOTH",
"262 46 OFFCURVE",
"240 14 OFFCURVE",
"195 14 CURVE SMOOTH",
"160 14 OFFCURVE",
"103 37 OFFCURVE",
"103 73 CURVE SMOOTH",
"103 95 OFFCURVE",
"111 107 OFFCURVE",
"134 114 CURVE SMOOTH",
"167 125 OFFCURVE",
"197 156 OFFCURVE",
"197 205 CURVE SMOOTH",
"197 243 OFFCURVE",
"167 276 OFFCURVE",
"124 276 CURVE SMOOTH",
"109 276 OFFCURVE",
"95 271 OFFCURVE",
"82 261 CURVE",
"53 241 OFFCURVE",
"35 204 OFFCURVE",
"35 156 CURVE SMOOTH",
"35 58 OFFCURVE",
"99 -17 OFFCURVE",
"210 -17 CURVE SMOOTH"
);
}
);
width = 527;
}
);
leftKerningGroup = J;
note = J;
rightKerningGroup = J;
unicode = 004A;
},
{
glyphname = K;
lastChange = "2017-06-10 11:33:30 +0000";
layers = (
{
layerId = "9ECE4C5B-AE6E-45F8-855F-54F501A6946D";
paths = (
{
closed = 1;
nodes = (
"314 0 LINE",
"314 31 LINE",
"247 31 LINE SMOOTH",
"227 31 OFFCURVE",
"217 42 OFFCURVE",
"217 59 CURVE SMOOTH",
"217 288 LINE",
"320 389 LINE",
"488 76 LINE",
"493 71 OFFCURVE",
"496 59 OFFCURVE",
"496 51 CURVE SMOOTH",
"496 41 OFFCURVE",
"482 31 OFFCURVE",
"467 31 CURVE SMOOTH",
"387 31 LINE",
"387 0 LINE",
"673 0 LINE",
"673 31 LINE",
"639 31 LINE SMOOTH",
"595 31 OFFCURVE",
"574 43 OFFCURVE",
"557 74 CURVE SMOOTH",
"364 424 LINE",
"545 597 LINE SMOOTH",
"590 640 OFFCURVE",
"617 660 OFFCURVE",
"635 660 CURVE SMOOTH",
"677 660 LINE",
"677 691 LINE",
"412 691 LINE",
"412 660 LINE",
"437 660 LINE SMOOTH",
"463 660 OFFCURVE",
"486 642 OFFCURVE",
"486 619 CURVE SMOOTH",
"486 594 OFFCURVE",
"476 574 OFFCURVE",
"462 558 CURVE",
"217 325 LINE",
"217 631 LINE SMOOTH",
"217 650 OFFCURVE",
"226 660 OFFCURVE",
"247 660 CURVE SMOOTH",
"314 660 LINE",
"314 691 LINE",
"60 691 LINE",
"60 660 LINE",
"132 660 LINE SMOOTH",
"150 660 OFFCURVE",
"159 650 OFFCURVE",
"159 631 CURVE SMOOTH",
"159 59 LINE SMOOTH",
"159 42 OFFCURVE",
"147 31 OFFCURVE",
"132 31 CURVE SMOOTH",
"60 31 LINE",
"60 0 LINE"
);
}
);
width = 717;
},
{
layerId = "6701A4D5-8A3D-41DD-8AA0-CFF5D98C5FFE";
paths = (
{
closed = 1;
nodes = (
"389 0 LINE",
"389 31 LINE",
"330 31 LINE SMOOTH",
"315 31 OFFCURVE",
"308 37 OFFCURVE",
"308 53 CURVE SMOOTH",
"308 297 LINE",
"340 335 LINE",
"475 76 LINE",
"478 71 OFFCURVE",
"480 59 OFFCURVE",
"480 51 CURVE SMOOTH",
"480 41 OFFCURVE",
"472 31 OFFCURVE",
"461 31 CURVE SMOOTH",
"429 31 LINE",
"429 0 LINE",
"737 0 LINE",
"737 31 LINE",
"711 31 LINE SMOOTH",
"684 31 OFFCURVE",
"674 42 OFFCURVE",
"657 74 CURVE SMOOTH",
"450 467 LINE",
"572 613 LINE SMOOTH",
"592 637 OFFCURVE",
"623 660 OFFCURVE",
"651 660 CURVE SMOOTH",
"684 660 LINE",
"684 691 LINE",
"448 691 LINE",
"448 660 LINE",
"477 660 LINE SMOOTH",
"497 660 OFFCURVE",
"509 642 OFFCURVE",
"509 619 CURVE SMOOTH",
"509 600 OFFCURVE",
"505 590 OFFCURVE",
"486 567 CURVE SMOOTH",
"308 353 LINE",
"308 637 LINE SMOOTH",
"308 656 OFFCURVE",
"315 660 OFFCURVE",
"330 660 CURVE SMOOTH",
"389 660 LINE",
"389 691 LINE",
"60 691 LINE",
"60 660 LINE",
"127 660 LINE SMOOTH",
"145 660 OFFCURVE",
"150 656 OFFCURVE",
"150 637 CURVE SMOOTH",
"150 53 LINE SMOOTH",
"150 37 OFFCURVE",
"146 31 OFFCURVE",
"127 31 CURVE SMOOTH",
"60 31 LINE",
"60 0 LINE"
);
}
);
width = 756;
}
);
note = K;
rightKerningGroup = K;
unicode = 004B;
},
{
glyphname = L;
lastChange = "2017-06-10 11:33:30 +0000";
layers = (
{
layerId = "9ECE4C5B-AE6E-45F8-855F-54F501A6946D";
paths = (
{
closed = 1;
nodes = (
"572 0 LINE",
"581 284 LINE",
"559 284 LINE",
"560 284 OFFCURVE",
"564 298 OFFCURVE",
"563 288 CURVE SMOOTH",
"548 139 OFFCURVE",
"510 31 OFFCURVE",
"345 31 CURVE SMOOTH",
"247 31 LINE SMOOTH",
"227 31 OFFCURVE",
"217 40 OFFCURVE",
"217 57 CURVE SMOOTH",
"217 631 LINE SMOOTH",
"217 650 OFFCURVE",
"226 660 OFFCURVE",
"247 660 CURVE SMOOTH",
"341 660 LINE",
"341 691 LINE",
"60 691 LINE",
"60 660 LINE",
"132 660 LINE SMOOTH",
"150 660 OFFCURVE",
"159 650 OFFCURVE",
"159 631 CURVE SMOOTH",
"159 57 LINE SMOOTH",
"159 40 OFFCURVE",
"149 31 OFFCURVE",
"132 31 CURVE SMOOTH",
"60 31 LINE",
"60 0 LINE"
);
}
);
width = 637;
},
{
layerId = "6701A4D5-8A3D-41DD-8AA0-CFF5D98C5FFE";
paths = (
{
closed = 1;
nodes = (
"615 0 LINE",
"623 302 LINE",
"591 302 LINE",
"587 284 OFFCURVE",
"571 218 OFFCURVE",
"561 186 CURVE SMOOTH",
"538 115 OFFCURVE",
"482 31 OFFCURVE",
"428 31 CURVE SMOOTH",
"330 31 LINE SMOOTH",
"315 31 OFFCURVE",
"308 39 OFFCURVE",
"308 57 CURVE SMOOTH",
"308 637 LINE SMOOTH",
"308 656 OFFCURVE",
"315 660 OFFCURVE",
"330 660 CURVE SMOOTH",
"394 660 LINE",
"394 691 LINE",
"60 691 LINE",
"60 660 LINE",
"127 660 LINE SMOOTH",
"145 660 OFFCURVE",
"150 656 OFFCURVE",
"150 637 CURVE SMOOTH",
"150 57 LINE SMOOTH",
"150 39 OFFCURVE",
"144 31 OFFCURVE",
"127 31 CURVE SMOOTH",
"60 31 LINE",
"60 0 LINE"
);
}
);
width = 656;
}
);
note = L;
rightKerningGroup = L;
unicode = 004C;
},
{
glyphname = M;
lastChange = "2017-06-10 11:33:30 +0000";
layers = (
{
layerId = "9ECE4C5B-AE6E-45F8-855F-54F501A6946D";
paths = (
{
closed = 1;
nodes = (
"391 -12 LINE",
"574 643 LINE",
"574 59 LINE SMOOTH",
"574 42 OFFCURVE",
"563 31 OFFCURVE",
"546 31 CURVE SMOOTH",
"476 31 LINE",
"476 0 LINE",
"732 0 LINE",
"732 31 LINE",
"660 31 LINE SMOOTH",
"643 31 OFFCURVE",
"633 42 OFFCURVE",
"633 59 CURVE SMOOTH",
"633 631 LINE SMOOTH",
"633 650 OFFCURVE",
"641 660 OFFCURVE",
"660 660 CURVE SMOOTH",
"732 660 LINE",
"732 691 LINE",
"556 691 LINE",
"399 124 LINE",
"252 691 LINE",
"60 691 LINE",
"60 660 LINE",
"127 660 LINE SMOOTH",
"143 660 OFFCURVE",
"154 650 OFFCURVE",
"154 631 CURVE SMOOTH",
"154 104 LINE SMOOTH",
"154 45 OFFCURVE",
"149 31 OFFCURVE",
"60 31 CURVE",
"60 0 LINE",
"286 0 LINE",
"286 31 LINE",
"200 31 OFFCURVE",
"193 43 OFFCURVE",
"193 104 CURVE SMOOTH",
"193 648 LINE",
"198 648 LINE",
"376 -12 LINE"
);
}
);
width = 773;
},
{
layerId = "6701A4D5-8A3D-41DD-8AA0-CFF5D98C5FFE";
paths = (
{
closed = 1;
nodes = (
"438 -12 LINE",
"604 600 LINE",
"604 53 LINE SMOOTH",
"604 37 OFFCURVE",
"600 31 OFFCURVE",
"581 31 CURVE SMOOTH",
"513 31 LINE",
"513 0 LINE",
"851 0 LINE",
"851 31 LINE",
"784 31 LINE SMOOTH",
"768 31 OFFCURVE",
"761 37 OFFCURVE",
"761 53 CURVE SMOOTH",
"761 637 LINE SMOOTH",
"761 656 OFFCURVE",
"768 660 OFFCURVE",
"784 660 CURVE SMOOTH",
"851 660 LINE",
"851 691 LINE",
"593 691 LINE",
"468 228 LINE",
"285 691 LINE",
"47 691 LINE",
"47 660 LINE",
"126 660 LINE SMOOTH",
"145 660 OFFCURVE",
"148 656 OFFCURVE",
"148 637 CURVE SMOOTH",
"148 120 LINE SMOOTH",
"148 63 OFFCURVE",
"96 31 OFFCURVE",
"47 31 CURVE",
"47 0 LINE",
"289 0 LINE",
"289 31 LINE",
"240 31 OFFCURVE",
"187 63 OFFCURVE",
"187 120 CURVE SMOOTH",
"187 500 LINE",
"194 500 LINE",
"396 -12 LINE"
);
}
);
width = 882;
}
);
note = M;
unicode = 004D;
},
{
glyphname = N;
lastChange = "2017-06-10 11:33:30 +0000";
layers = (
{
layerId = "9ECE4C5B-AE6E-45F8-855F-54F501A6946D";
paths = (
{
closed = 1;
nodes = (
"616 -17 LINE",
"616 595 LINE SMOOTH",
"616 651 OFFCURVE",
"619 660 OFFCURVE",
"699 660 CURVE",
"699 691 LINE",
"497 691 LINE",
"497 660 LINE",
"575 660 OFFCURVE",
"577 655 OFFCURVE",
"577 595 CURVE SMOOTH",
"577 94 LINE",
"225 691 LINE",
"60 691 LINE",
"60 660 LINE",
"160 660 LINE SMOOTH",
"155 660 OFFCURVE",
"140 694 OFFCURVE",
"141 681 CURVE",
"141 96 LINE SMOOTH",
"141 37 OFFCURVE",
"144 31 OFFCURVE",
"60 31 CURVE",
"60 0 LINE",
"263 0 LINE",
"263 31 LINE",
"185 31 OFFCURVE",
"180 36 OFFCURVE",
"180 96 CURVE SMOOTH",
"180 632 LINE",
"186 632 LINE",
"577 -17 LINE"
);
}
);
width = 730;
},
{
layerId = "6701A4D5-8A3D-41DD-8AA0-CFF5D98C5FFE";
paths = (
{
closed = 1;
nodes = (
"612 -17 LINE",
"612 553 LINE SMOOTH",
"612 613 OFFCURVE",
"673 660 OFFCURVE",
"741 660 CURVE",
"741 691 LINE",
"444 691 LINE",
"444 660 LINE",
"514 660 OFFCURVE",
"573 612 OFFCURVE",
"573 553 CURVE SMOOTH",
"573 273 LINE",
"270 691 LINE",
"47 691 LINE",
"47 660 LINE",
"50 660 LINE SMOOTH",
"119 660 OFFCURVE",
"176 558 OFFCURVE",
"176 524 CURVE SMOOTH",
"176 138 LINE SMOOTH",
"176 79 OFFCURVE",
"115 31 OFFCURVE",
"47 31 CURVE",
"47 0 LINE",
"343 0 LINE",
"343 31 LINE",
"274 31 OFFCURVE",
"215 79 OFFCURVE",
"215 138 CURVE SMOOTH",
"215 479 LINE",
"217 479 LINE",
"576 -17 LINE"
);
}
);
width = 749;
}
);
note = N;
rightKerningGroup = G;
unicode = 004E;
},
{
glyphname = Ntilde;
lastChange = "2017-06-10 11:33:30 +0000";
layers = (
{
layerId = "9ECE4C5B-AE6E-45F8-855F-54F501A6946D";
paths = (
{
closed = 1;
nodes = (
"263 815 OFFCURVE",
"278 830 OFFCURVE",
"302 830 CURVE SMOOTH",
"294 830 OFFCURVE",
"315 840 OFFCURVE",
"334 828 CURVE SMOOTH",
"383 798 OFFCURVE",
"421 790 OFFCURVE",
"444 784 CURVE SMOOTH",
"507 769 OFFCURVE",
"545 812 OFFCURVE",
"552 872 CURVE",
"532 876 LINE",
"528 850 OFFCURVE",
"513 833 OFFCURVE",
"488 833 CURVE SMOOTH",
"475 833 OFFCURVE",
"451 841 OFFCURVE",
"414 852 CURVE SMOOTH",
"371 865 OFFCURVE",
"335 872 OFFCURVE",
"323 872 CURVE SMOOTH",
"273 872 OFFCURVE",
"246 838 OFFCURVE",
"239 791 CURVE",
"259 789 LINE"
);
},
{
closed = 1;
nodes = (
"616 -17 LINE",
"616 595 LINE SMOOTH",
"616 651 OFFCURVE",
"619 660 OFFCURVE",
"699 660 CURVE",
"699 691 LINE",
"497 691 LINE",
"497 660 LINE",
"575 660 OFFCURVE",
"577 655 OFFCURVE",
"577 595 CURVE SMOOTH",
"577 94 LINE",
"225 691 LINE",
"60 691 LINE",
"60 660 LINE",
"160 660 LINE SMOOTH",
"155 660 OFFCURVE",
"140 694 OFFCURVE",
"141 681 CURVE",
"141 96 LINE SMOOTH",
"141 37 OFFCURVE",
"144 31 OFFCURVE",
"60 31 CURVE",
"60 0 LINE",
"263 0 LINE",
"263 31 LINE",
"185 31 OFFCURVE",
"180 36 OFFCURVE",
"180 96 CURVE SMOOTH",
"180 632 LINE",
"186 632 LINE",
"577 -17 LINE"
);
}
);
width = 730;
},
{
layerId = "6701A4D5-8A3D-41DD-8AA0-CFF5D98C5FFE";
paths = (
{
closed = 1;
nodes = (
"294 800 OFFCURVE",
"307 813 OFFCURVE",
"328 813 CURVE SMOOTH",
"394 813 OFFCURVE",
"421 770 OFFCURVE",
"488 775 CURVE SMOOTH",
"499 776 OFFCURVE",
"511 786 OFFCURVE",
"520 798 CURVE SMOOTH",
"541 826 OFFCURVE",
"552 860 OFFCURVE",
"551 887 CURVE",
"530 887 LINE",
"524 859 OFFCURVE",
"512 848 OFFCURVE",
"491 848 CURVE SMOOTH",
"471 848 OFFCURVE",
"450 853 OFFCURVE",
"431 861 CURVE SMOOTH",
"398 875 OFFCURVE",
"384 883 OFFCURVE",
"353 883 CURVE SMOOTH",
"304 883 OFFCURVE",
"267 828 OFFCURVE",
"268 774 CURVE",
"289 774 LINE"
);
},
{
closed = 1;
nodes = (
"612 -17 LINE",
"612 553 LINE SMOOTH",
"612 613 OFFCURVE",
"673 660 OFFCURVE",
"741 660 CURVE",
"741 691 LINE",
"444 691 LINE",
"444 660 LINE",
"514 660 OFFCURVE",
"573 612 OFFCURVE",
"573 553 CURVE SMOOTH",
"573 273 LINE",
"270 691 LINE",
"47 691 LINE",
"47 660 LINE",
"50 660 LINE SMOOTH",
"119 660 OFFCURVE",
"176 558 OFFCURVE",
"176 524 CURVE SMOOTH",
"176 138 LINE SMOOTH",
"176 79 OFFCURVE",
"115 31 OFFCURVE",
"47 31 CURVE",
"47 0 LINE",
"343 0 LINE",
"343 31 LINE",
"274 31 OFFCURVE",
"215 79 OFFCURVE",
"215 138 CURVE SMOOTH",
"215 479 LINE",
"217 479 LINE",
"576 -17 LINE"
);
}
);
width = 749;
}
);
note = Ntilde;
rightKerningGroup = G;
unicode = 00D1;
},
{
glyphname = O;
lastChange = "2017-06-10 11:33:30 +0000";
layers = (
{
layerId = "9ECE4C5B-AE6E-45F8-855F-54F501A6946D";
paths = (
{
closed = 1;
nodes = (
"511 -17 OFFCURVE",
"625 146 OFFCURVE",
"625 345 CURVE SMOOTH",
"625 508 OFFCURVE",
"536 708 OFFCURVE",
"346 708 CURVE SMOOTH",
"179 708 OFFCURVE",
"68 544 OFFCURVE",
"68 345 CURVE SMOOTH",
"68 182 OFFCURVE",
"157 -17 OFFCURVE",
"346 -17 CURVE SMOOTH"
);
},
{
closed = 1;
nodes = (
"204 14 OFFCURVE",
"136 182 OFFCURVE",
"136 345 CURVE SMOOTH",
"136 515 OFFCURVE",
"204 677 OFFCURVE",
"346 677 CURVE SMOOTH",
"488 677 OFFCURVE",
"556 513 OFFCURVE",
"556 347 CURVE SMOOTH",
"556 180 OFFCURVE",
"488 14 OFFCURVE",
"346 14 CURVE SMOOTH"
);
}
);
width = 673;
},
{
layerId = "6701A4D5-8A3D-41DD-8AA0-CFF5D98C5FFE";
paths = (
{
closed = 1;
nodes = (
"505 -17 OFFCURVE",
"645 155 OFFCURVE",
"645 345 CURVE SMOOTH",
"645 502 OFFCURVE",
"530 708 OFFCURVE",
"357 708 CURVE SMOOTH",
"211 708 OFFCURVE",
"68 535 OFFCURVE",
"68 345 CURVE SMOOTH",
"68 189 OFFCURVE",
"184 -17 OFFCURVE",
"357 -17 CURVE SMOOTH"
);
},
{
closed = 1;
nodes = (
"265 14 OFFCURVE",
"249 30 OFFCURVE",
"249 346 CURVE",
"249 655 OFFCURVE",
"264 677 OFFCURVE",
"357 677 CURVE SMOOTH",
"448 677 OFFCURVE",
"464 660 OFFCURVE",
"464 340 CURVE",
"464 34 OFFCURVE",
"448 14 OFFCURVE",
"357 14 CURVE SMOOTH"
);
}
);
width = 694;
}
);
leftKerningGroup = O;
note = O;
rightKerningGroup = O;
unicode = 004F;
},
{
glyphname = Oacute;
lastChange = "2017-06-10 11:33:30 +0000";
layers = (
{
layerId = "9ECE4C5B-AE6E-45F8-855F-54F501A6946D";
paths = (
{
closed = 1;
nodes = (
"457 839 LINE SMOOTH",
"475 853 OFFCURVE",
"484 867 OFFCURVE",
"484 880 CURVE SMOOTH",
"484 895 OFFCURVE",
"476 905 OFFCURVE",
"464 905 CURVE SMOOTH",
"445 905 OFFCURVE",
"434 897 OFFCURVE",
"417 873 CURVE SMOOTH",
"325 747 LINE",
"334 741 LINE"
);
},
{
closed = 1;
nodes = (
"404 -17 OFFCURVE",
"452 0 OFFCURVE",
"494 34 CURVE SMOOTH",
"577 102 OFFCURVE",
"625 222 OFFCURVE",
"625 345 CURVE SMOOTH",
"625 406 OFFCURVE",
"614 466 OFFCURVE",
"591 522 CURVE SMOOTH",
"546 633 OFFCURVE",
"460 708 OFFCURVE",
"346 708 CURVE SMOOTH",
"289 708 OFFCURVE",
"239 691 OFFCURVE",
"199 657 CURVE SMOOTH",
"116 587 OFFCURVE",
"68 469 OFFCURVE",
"68 345 CURVE SMOOTH",
"68 284 OFFCURVE",
"80 225 OFFCURVE",
"101 170 CURVE SMOOTH",
"144 57 OFFCURVE",
"233 -17 OFFCURVE",
"346 -17 CURVE SMOOTH"
);
},
{
closed = 1;
nodes = (
"204 14 OFFCURVE",
"136 182 OFFCURVE",
"136 342 CURVE SMOOTH",
"136 516 OFFCURVE",
"204 677 OFFCURVE",
"346 677 CURVE SMOOTH",
"489 677 OFFCURVE",
"556 513 OFFCURVE",
"556 345 CURVE SMOOTH",
"556 180 OFFCURVE",
"488 14 OFFCURVE",
"346 14 CURVE SMOOTH"
);
}
);
width = 673;
},
{
layerId = "6701A4D5-8A3D-41DD-8AA0-CFF5D98C5FFE";
paths = (
{
closed = 1;
nodes = (
"473 833 LINE SMOOTH",
"492 847 OFFCURVE",
"502 862 OFFCURVE",
"502 881 CURVE SMOOTH",
"502 906 OFFCURVE",
"482 923 OFFCURVE",
"457 923 CURVE SMOOTH",
"438 923 OFFCURVE",
"423 915 OFFCURVE",
"409 892 CURVE SMOOTH",
"324 757 LINE",
"344 737 LINE"
);
},
{
closed = 1;
nodes = (
"404 -17 OFFCURVE",
"452 0 OFFCURVE",
"497 34 CURVE SMOOTH",
"587 102 OFFCURVE",
"645 222 OFFCURVE",
"645 345 CURVE SMOOTH",
"645 406 OFFCURVE",
"632 466 OFFCURVE",
"604 522 CURVE SMOOTH",
"549 633 OFFCURVE",
"454 708 OFFCURVE",
"357 708 CURVE SMOOTH",
"309 708 OFFCURVE",
"262 691 OFFCURVE",
"217 657 CURVE SMOOTH",
"127 589 OFFCURVE",
"68 469 OFFCURVE",
"68 345 CURVE SMOOTH",
"68 284 OFFCURVE",
"81 225 OFFCURVE",
"109 170 CURVE SMOOTH",
"165 58 OFFCURVE",
"259 -17 OFFCURVE",
"357 -17 CURVE SMOOTH"
);
},
{
closed = 1;
nodes = (
"265 14 OFFCURVE",
"249 29 OFFCURVE",
"249 354 CURVE",
"249 654 OFFCURVE",
"265 677 OFFCURVE",
"357 677 CURVE SMOOTH",
"447 677 OFFCURVE",
"464 659 OFFCURVE",
"464 346 CURVE",
"464 34 OFFCURVE",
"450 14 OFFCURVE",
"357 14 CURVE SMOOTH"
);
}
);
width = 694;
}
);
leftKerningGroup = O;
note = Oacute;
rightKerningGroup = O;
unicode = 00D3;
},
{
glyphname = Ocircumflex;
lastChange = "2017-06-10 11:33:30 +0000";
layers = (
{
layerId = "9ECE4C5B-AE6E-45F8-855F-54F501A6946D";
paths = (
{
closed = 1;
nodes = (
"230 746 OFFCURVE",
"317 806 OFFCURVE",
"346 840 CURVE",
"374 806 OFFCURVE",
"464 746 OFFCURVE",
"486 739 CURVE",
"494 752 LINE",
"437 786 OFFCURVE",
"396 831 OFFCURVE",
"366 887 CURVE",
"327 887 LINE",
"298 829 OFFCURVE",
"255 786 OFFCURVE",
"198 752 CURVE",
"208 739 LINE"
);
},
{
closed = 1;
nodes = (
"404 -17 OFFCURVE",
"452 0 OFFCURVE",
"494 34 CURVE SMOOTH",
"577 102 OFFCURVE",
"625 222 OFFCURVE",
"625 345 CURVE SMOOTH",
"625 406 OFFCURVE",
"614 466 OFFCURVE",
"591 522 CURVE SMOOTH",
"546 633 OFFCURVE",
"460 708 OFFCURVE",
"346 708 CURVE SMOOTH",
"289 708 OFFCURVE",
"239 691 OFFCURVE",
"199 657 CURVE SMOOTH",
"116 587 OFFCURVE",
"68 469 OFFCURVE",
"68 345 CURVE SMOOTH",
"68 284 OFFCURVE",
"80 225 OFFCURVE",
"101 170 CURVE SMOOTH",
"144 57 OFFCURVE",
"233 -17 OFFCURVE",
"346 -17 CURVE SMOOTH"
);
},
{
closed = 1;
nodes = (
"202 14 OFFCURVE",
"136 182 OFFCURVE",
"136 345 CURVE SMOOTH",
"136 515 OFFCURVE",
"204 677 OFFCURVE",
"346 677 CURVE SMOOTH",
"489 677 OFFCURVE",
"556 513 OFFCURVE",
"556 343 CURVE SMOOTH",
"556 180 OFFCURVE",
"488 14 OFFCURVE",
"346 14 CURVE SMOOTH"
);
}
);
width = 673;
},
{
layerId = "6701A4D5-8A3D-41DD-8AA0-CFF5D98C5FFE";
paths = (
{
closed = 1;
nodes = (
"264 761 OFFCURVE",
"290 773 OFFCURVE",
"357 813 CURVE",
"423 773 OFFCURVE",
"449 761 OFFCURVE",
"509 739 CURVE",
"522 764 LINE",
"457 795 OFFCURVE",
"408 843 OFFCURVE",
"375 905 CURVE",
"338 905 LINE",
"304 844 OFFCURVE",
"255 797 OFFCURVE",
"191 764 CURVE",
"203 739 LINE"
);
},
{
closed = 1;
nodes = (
"404 -17 OFFCURVE",
"452 0 OFFCURVE",
"497 34 CURVE SMOOTH",
"587 102 OFFCURVE",
"645 222 OFFCURVE",
"645 345 CURVE SMOOTH",
"645 406 OFFCURVE",
"632 466 OFFCURVE",
"604 522 CURVE SMOOTH",
"549 633 OFFCURVE",
"454 708 OFFCURVE",
"357 708 CURVE SMOOTH",
"309 708 OFFCURVE",
"262 691 OFFCURVE",
"217 657 CURVE SMOOTH",
"127 589 OFFCURVE",
"68 469 OFFCURVE",
"68 345 CURVE SMOOTH",
"68 284 OFFCURVE",
"81 225 OFFCURVE",
"109 170 CURVE SMOOTH",
"165 58 OFFCURVE",
"259 -17 OFFCURVE",
"357 -17 CURVE SMOOTH"
);
},
{
closed = 1;
nodes = (
"266 14 OFFCURVE",
"249 30 OFFCURVE",
"249 344 CURVE",
"249 655 OFFCURVE",
"264 677 OFFCURVE",
"357 677 CURVE SMOOTH",
"447 677 OFFCURVE",
"464 659 OFFCURVE",
"464 349 CURVE",
"464 34 OFFCURVE",
"450 14 OFFCURVE",
"357 14 CURVE SMOOTH"
);
}
);
width = 694;
}
);
leftKerningGroup = O;
note = Ocircumflex;
rightKerningGroup = O;
unicode = 00D4;
},
{
glyphname = Odieresis;
lastChange = "2017-06-10 11:33:30 +0000";
layers = (
{
layerId = "9ECE4C5B-AE6E-45F8-855F-54F501A6946D";
paths = (
{
closed = 1;
nodes = (
"278 776 OFFCURVE",
"296 796 OFFCURVE",
"296 823 CURVE SMOOTH",
"296 852 OFFCURVE",
"278 868 OFFCURVE",
"248 868 CURVE SMOOTH",
"224 868 OFFCURVE",
"203 852 OFFCURVE",
"203 823 CURVE SMOOTH",
"203 796 OFFCURVE",
"224 776 OFFCURVE",
"248 776 CURVE SMOOTH"
);
},
{
closed = 1;
nodes = (
"471 776 OFFCURVE",
"489 796 OFFCURVE",
"489 823 CURVE SMOOTH",
"489 852 OFFCURVE",
"471 868 OFFCURVE",
"443 868 CURVE SMOOTH",
"417 868 OFFCURVE",
"397 852 OFFCURVE",
"397 823 CURVE SMOOTH",
"397 796 OFFCURVE",
"417 776 OFFCURVE",
"443 776 CURVE SMOOTH"
);
},
{
closed = 1;
nodes = (
"404 -17 OFFCURVE",
"452 0 OFFCURVE",
"494 34 CURVE SMOOTH",
"577 102 OFFCURVE",
"625 222 OFFCURVE",
"625 345 CURVE SMOOTH",
"625 406 OFFCURVE",
"614 466 OFFCURVE",
"591 522 CURVE SMOOTH",
"546 633 OFFCURVE",
"460 708 OFFCURVE",
"346 708 CURVE SMOOTH",
"289 708 OFFCURVE",
"239 691 OFFCURVE",
"199 657 CURVE SMOOTH",
"116 587 OFFCURVE",
"68 469 OFFCURVE",
"68 345 CURVE SMOOTH",
"68 284 OFFCURVE",
"80 225 OFFCURVE",
"101 170 CURVE SMOOTH",
"144 57 OFFCURVE",
"233 -17 OFFCURVE",
"346 -17 CURVE SMOOTH"
);
},
{
closed = 1;
nodes = (
"202 14 OFFCURVE",
"136 182 OFFCURVE",
"136 345 CURVE SMOOTH",
"136 515 OFFCURVE",
"204 677 OFFCURVE",
"346 677 CURVE SMOOTH",
"488 677 OFFCURVE",
"556 513 OFFCURVE",
"556 347 CURVE SMOOTH",
"556 180 OFFCURVE",
"488 14 OFFCURVE",
"346 14 CURVE SMOOTH"
);
}
);
width = 673;
},
{
layerId = "6701A4D5-8A3D-41DD-8AA0-CFF5D98C5FFE";
paths = (
{
closed = 1;
nodes = (
"285 769 OFFCURVE",
"312 796 OFFCURVE",
"312 829 CURVE SMOOTH",
"312 861 OFFCURVE",
"285 890 OFFCURVE",
"253 890 CURVE SMOOTH",
"219 890 OFFCURVE",
"193 861 OFFCURVE",
"193 829 CURVE SMOOTH",
"193 796 OFFCURVE",
"219 769 OFFCURVE",
"253 769 CURVE SMOOTH"
);
},
{
closed = 1;
nodes = (
"493 769 OFFCURVE",
"521 796 OFFCURVE",
"521 829 CURVE SMOOTH",
"521 861 OFFCURVE",
"493 890 OFFCURVE",
"461 890 CURVE SMOOTH",
"428 890 OFFCURVE",
"401 861 OFFCURVE",
"401 829 CURVE SMOOTH",
"401 796 OFFCURVE",
"428 769 OFFCURVE",
"461 769 CURVE SMOOTH"
);
},
{
closed = 1;
nodes = (
"404 -17 OFFCURVE",
"452 0 OFFCURVE",
"497 34 CURVE SMOOTH",
"587 102 OFFCURVE",
"645 222 OFFCURVE",
"645 345 CURVE SMOOTH",
"645 406 OFFCURVE",
"632 466 OFFCURVE",
"604 522 CURVE SMOOTH",
"549 633 OFFCURVE",
"454 708 OFFCURVE",
"357 708 CURVE SMOOTH",
"309 708 OFFCURVE",
"262 691 OFFCURVE",
"217 657 CURVE SMOOTH",
"127 589 OFFCURVE",
"68 469 OFFCURVE",
"68 345 CURVE SMOOTH",
"68 284 OFFCURVE",
"81 225 OFFCURVE",
"109 170 CURVE SMOOTH",
"165 58 OFFCURVE",
"259 -17 OFFCURVE",
"357 -17 CURVE SMOOTH"
);
},
{
closed = 1;
nodes = (
"266 14 OFFCURVE",
"249 30 OFFCURVE",
"249 344 CURVE",
"249 655 OFFCURVE",
"264 677 OFFCURVE",
"357 677 CURVE SMOOTH",
"448 677 OFFCURVE",
"464 659 OFFCURVE",
"464 341 CURVE",
"464 34 OFFCURVE",
"448 14 OFFCURVE",
"357 14 CURVE SMOOTH"
);
}
);
width = 694;
}
);
leftKerningGroup = O;
note = Odieresis;
rightKerningGroup = O;
unicode = 00D6;
},
{
glyphname = Ograve;
lastChange = "2017-06-10 11:33:30 +0000";
layers = (
{
layerId = "9ECE4C5B-AE6E-45F8-855F-54F501A6946D";
paths = (
{
closed = 1;
nodes = (
"366 748 LINE",
"276 874 LINE SMOOTH",
"260 897 OFFCURVE",
"247 905 OFFCURVE",
"229 905 CURVE SMOOTH",
"215 905 OFFCURVE",
"210 895 OFFCURVE",
"210 880 CURVE SMOOTH",
"210 867 OFFCURVE",
"216 854 OFFCURVE",
"235 839 CURVE SMOOTH",
"358 741 LINE"
);
},
{
closed = 1;
nodes = (
"404 -17 OFFCURVE",
"452 0 OFFCURVE",
"494 34 CURVE SMOOTH",
"577 102 OFFCURVE",
"625 222 OFFCURVE",
"625 345 CURVE SMOOTH",
"625 406 OFFCURVE",
"614 466 OFFCURVE",
"591 522 CURVE SMOOTH",
"546 633 OFFCURVE",
"460 708 OFFCURVE",
"346 708 CURVE SMOOTH",
"289 708 OFFCURVE",
"239 691 OFFCURVE",
"199 657 CURVE SMOOTH",
"116 587 OFFCURVE",
"68 469 OFFCURVE",
"68 345 CURVE SMOOTH",
"68 284 OFFCURVE",
"80 225 OFFCURVE",
"101 170 CURVE SMOOTH",
"144 57 OFFCURVE",
"233 -17 OFFCURVE",
"346 -17 CURVE SMOOTH"
);
},
{
closed = 1;
nodes = (
"202 14 OFFCURVE",
"136 182 OFFCURVE",
"136 345 CURVE SMOOTH",
"136 515 OFFCURVE",
"204 677 OFFCURVE",
"346 677 CURVE SMOOTH",
"489 677 OFFCURVE",
"556 513 OFFCURVE",
"556 343 CURVE SMOOTH",
"556 180 OFFCURVE",
"488 14 OFFCURVE",
"346 14 CURVE SMOOTH"
);
}
);
width = 673;
},
{
layerId = "6701A4D5-8A3D-41DD-8AA0-CFF5D98C5FFE";
paths = (
{
closed = 1;
nodes = (
"389 756 LINE",
"304 891 LINE SMOOTH",
"289 914 OFFCURVE",
"275 923 OFFCURVE",
"256 923 CURVE SMOOTH",
"231 923 OFFCURVE",
"211 906 OFFCURVE",
"211 881 CURVE SMOOTH",
"211 862 OFFCURVE",
"221 847 OFFCURVE",
"240 833 CURVE SMOOTH",
"369 737 LINE"
);
},
{
closed = 1;
nodes = (
"404 -17 OFFCURVE",
"452 0 OFFCURVE",
"497 34 CURVE SMOOTH",
"587 102 OFFCURVE",
"645 222 OFFCURVE",
"645 345 CURVE SMOOTH",
"645 406 OFFCURVE",
"632 466 OFFCURVE",
"604 522 CURVE SMOOTH",
"549 633 OFFCURVE",
"454 708 OFFCURVE",
"357 708 CURVE SMOOTH",
"309 708 OFFCURVE",
"262 691 OFFCURVE",
"217 657 CURVE SMOOTH",
"127 589 OFFCURVE",
"68 469 OFFCURVE",
"68 345 CURVE SMOOTH",
"68 284 OFFCURVE",
"81 225 OFFCURVE",
"109 170 CURVE SMOOTH",
"165 58 OFFCURVE",
"259 -17 OFFCURVE",
"357 -17 CURVE SMOOTH"
);
},
{
closed = 1;
nodes = (
"266 14 OFFCURVE",
"249 30 OFFCURVE",
"249 344 CURVE",
"249 655 OFFCURVE",
"264 677 OFFCURVE",
"357 677 CURVE SMOOTH",
"447 677 OFFCURVE",
"464 659 OFFCURVE",
"464 350 CURVE",
"464 34 OFFCURVE",
"450 14 OFFCURVE",
"357 14 CURVE SMOOTH"
);
}
);
width = 694;
}
);
leftKerningGroup = O;
note = Ograve;
rightKerningGroup = O;
unicode = 00D2;
},
{
glyphname = Oslash;
lastChange = "2017-06-10 11:33:30 +0000";
layers = (
{
layerId = "9ECE4C5B-AE6E-45F8-855F-54F501A6946D";
paths = (
{
closed = 1;
nodes = (
"162 67 LINE",
"211 14 OFFCURVE",
"273 -17 OFFCURVE",
"346 -17 CURVE SMOOTH",
"404 -17 OFFCURVE",
"452 0 OFFCURVE",
"494 34 CURVE SMOOTH",
"577 102 OFFCURVE",
"625 222 OFFCURVE",
"625 345 CURVE SMOOTH",
"625 437 OFFCURVE",
"599 526 OFFCURVE",
"552 593 CURVE",
"622 685 LINE",
"590 708 LINE",
"530 626 LINE",
"480 678 OFFCURVE",
"419 708 OFFCURVE",
"346 708 CURVE SMOOTH",
"289 708 OFFCURVE",
"240 691 OFFCURVE",
"199 657 CURVE SMOOTH",
"115 587 OFFCURVE",
"68 469 OFFCURVE",
"68 345 CURVE SMOOTH",
"68 256 OFFCURVE",
"93 167 OFFCURVE",
"138 100 CURVE",
"68 6 LINE",
"99 -17 LINE"
);
},
{
closed = 1;
nodes = (
"146 164 OFFCURVE",
"136 208 OFFCURVE",
"136 264 CURVE SMOOTH",
"136 521 OFFCURVE",
"192 677 OFFCURVE",
"346 677 CURVE SMOOTH",
"415 677 OFFCURVE",
"467 646 OFFCURVE",
"507 593 CURVE",
"163 138 LINE"
);
},
{
closed = 1;
nodes = (
"277 14 OFFCURVE",
"225 46 OFFCURVE",
"185 98 CURVE",
"527 557 LINE",
"547 530 OFFCURVE",
"556 487 OFFCURVE",
"556 425 CURVE SMOOTH",
"556 173 OFFCURVE",
"499 14 OFFCURVE",
"346 14 CURVE SMOOTH"
);
}
);
width = 673;
},
{
layerId = "6701A4D5-8A3D-41DD-8AA0-CFF5D98C5FFE";
paths = (
{
closed = 1;
nodes = (
"171 78 LINE",
"223 18 OFFCURVE",
"291 -17 OFFCURVE",
"357 -17 CURVE SMOOTH",
"404 -17 OFFCURVE",
"452 0 OFFCURVE",
"497 34 CURVE SMOOTH",
"587 102 OFFCURVE",
"645 222 OFFCURVE",
"645 345 CURVE SMOOTH",
"645 431 OFFCURVE",
"617 517 OFFCURVE",
"567 584 CURVE",
"645 685 LINE",
"616 708 LINE",
"542 613 LINE",
"491 672 OFFCURVE",
"423 708 OFFCURVE",
"357 708 CURVE SMOOTH",
"309 708 OFFCURVE",
"261 691 OFFCURVE",
"217 657 CURVE SMOOTH",
"127 588 OFFCURVE",
"68 469 OFFCURVE",
"68 345 CURVE SMOOTH",
"68 260 OFFCURVE",
"96 174 OFFCURVE",
"147 107 CURVE",
"68 6 LINE",
"98 -17 LINE"
);
},
{
closed = 1;
nodes = (
"248 333 OFFCURVE",
"249 432 OFFCURVE",
"249 529 CURVE SMOOTH",
"249 641 OFFCURVE",
"290 677 OFFCURVE",
"357 677 CURVE SMOOTH",
"427 677 OFFCURVE",
"468 633 OFFCURVE",
"470 522 CURVE",
"245 231 LINE"
);
},
{
closed = 1;
nodes = (
"286 14 OFFCURVE",
"246 57 OFFCURVE",
"243 169 CURVE",
"469 458 LINE",
"465 356 OFFCURVE",
"464 258 OFFCURVE",
"464 163 CURVE SMOOTH",
"464 49 OFFCURVE",
"423 14 OFFCURVE",
"357 14 CURVE SMOOTH"
);
}
);
width = 694;
}
);
note = Oslash;
unicode = 00D8;
},
{
glyphname = Otilde;
lastChange = "2017-06-10 11:33:30 +0000";
layers = (
{
layerId = "9ECE4C5B-AE6E-45F8-855F-54F501A6946D";
paths = (
{
closed = 1;
nodes = (
"214 815 OFFCURVE",
"230 830 OFFCURVE",
"253 830 CURVE SMOOTH",
"267 830 OFFCURVE",
"291 824 OFFCURVE",
"328 813 CURVE SMOOTH",
"371 800 OFFCURVE",
"407 793 OFFCURVE",
"419 793 CURVE SMOOTH",
"471 793 OFFCURVE",
"496 825 OFFCURVE",
"503 872 CURVE",
"483 876 LINE",
"478 850 OFFCURVE",
"464 833 OFFCURVE",
"438 833 CURVE SMOOTH",
"426 833 OFFCURVE",
"402 841 OFFCURVE",
"365 852 CURVE SMOOTH",
"322 865 OFFCURVE",
"287 872 OFFCURVE",
"273 872 CURVE SMOOTH",
"224 872 OFFCURVE",
"197 838 OFFCURVE",
"191 791 CURVE",
"209 789 LINE"
);
},
{
closed = 1;
nodes = (
"404 -17 OFFCURVE",
"452 0 OFFCURVE",
"494 34 CURVE SMOOTH",
"577 102 OFFCURVE",
"625 222 OFFCURVE",
"625 345 CURVE SMOOTH",
"625 406 OFFCURVE",
"614 466 OFFCURVE",
"591 522 CURVE SMOOTH",
"546 633 OFFCURVE",
"460 708 OFFCURVE",
"346 708 CURVE SMOOTH",
"289 708 OFFCURVE",
"239 691 OFFCURVE",
"199 657 CURVE SMOOTH",
"116 587 OFFCURVE",
"68 469 OFFCURVE",
"68 345 CURVE SMOOTH",
"68 284 OFFCURVE",
"80 225 OFFCURVE",
"101 170 CURVE SMOOTH",
"144 57 OFFCURVE",
"233 -17 OFFCURVE",
"346 -17 CURVE SMOOTH"
);
},
{
closed = 1;
nodes = (
"202 14 OFFCURVE",
"136 182 OFFCURVE",
"136 347 CURVE SMOOTH",
"136 515 OFFCURVE",
"204 677 OFFCURVE",
"346 677 CURVE SMOOTH",
"488 677 OFFCURVE",
"556 513 OFFCURVE",
"556 350 CURVE SMOOTH",
"556 179 OFFCURVE",
"488 14 OFFCURVE",
"346 14 CURVE SMOOTH"
);
}
);
width = 673;
},
{
layerId = "6701A4D5-8A3D-41DD-8AA0-CFF5D98C5FFE";
paths = (
{
closed = 1;
nodes = (
"242 800 OFFCURVE",
"253 813 OFFCURVE",
"275 813 CURVE SMOOTH",
"294 813 OFFCURVE",
"314 808 OFFCURVE",
"335 798 CURVE SMOOTH",
"367 783 OFFCURVE",
"381 778 OFFCURVE",
"412 778 CURVE SMOOTH",
"458 778 OFFCURVE",
"500 832 OFFCURVE",
"498 887 CURVE",
"476 887 LINE",
"471 859 OFFCURVE",
"459 848 OFFCURVE",
"438 848 CURVE SMOOTH",
"419 848 OFFCURVE",
"399 853 OFFCURVE",
"378 862 CURVE SMOOTH",
"345 876 OFFCURVE",
"331 883 OFFCURVE",
"301 883 CURVE SMOOTH",
"251 883 OFFCURVE",
"213 828 OFFCURVE",
"214 774 CURVE",
"237 774 LINE"
);
},
{
closed = 1;
nodes = (
"404 -17 OFFCURVE",
"452 0 OFFCURVE",
"497 34 CURVE SMOOTH",
"587 102 OFFCURVE",
"645 222 OFFCURVE",
"645 345 CURVE SMOOTH",
"645 406 OFFCURVE",
"632 466 OFFCURVE",
"604 522 CURVE SMOOTH",
"549 633 OFFCURVE",
"454 708 OFFCURVE",
"357 708 CURVE SMOOTH",
"309 708 OFFCURVE",
"262 691 OFFCURVE",
"217 657 CURVE SMOOTH",
"127 589 OFFCURVE",
"68 469 OFFCURVE",
"68 345 CURVE SMOOTH",
"68 284 OFFCURVE",
"81 225 OFFCURVE",
"109 170 CURVE SMOOTH",
"165 58 OFFCURVE",
"259 -17 OFFCURVE",
"357 -17 CURVE SMOOTH"
);
},
{
closed = 1;
nodes = (
"266 14 OFFCURVE",
"249 30 OFFCURVE",
"249 340 CURVE",
"249 655 OFFCURVE",
"264 677 OFFCURVE",
"357 677 CURVE SMOOTH",
"448 677 OFFCURVE",
"464 660 OFFCURVE",
"464 333 CURVE",
"464 36 OFFCURVE",
"448 14 OFFCURVE",
"357 14 CURVE SMOOTH"
);
}
);
width = 694;
}
);
leftKerningGroup = O;
note = Otilde;
rightKerningGroup = O;
unicode = 00D5;
},
{
glyphname = OE;
lastChange = "2017-06-10 11:33:30 +0000";
layers = (
{
layerId = "9ECE4C5B-AE6E-45F8-855F-54F501A6946D";
paths = (
{
closed = 1;
nodes = (
"369 -17 OFFCURVE",
"442 0 OFFCURVE",
"512 0 CURVE SMOOTH",
"961 0 LINE",
"975 268 LINE",
"955 268 LINE",
"949 254 OFFCURVE",
"964 31 OFFCURVE",
"794 31 CURVE SMOOTH",
"612 31 LINE SMOOTH",
"593 31 OFFCURVE",
"585 42 OFFCURVE",
"585 59 CURVE SMOOTH",
"585 345 LINE",
"672 345 LINE SMOOTH",
"745 345 OFFCURVE",
"762 260 OFFCURVE",
"762 175 CURVE",
"786 175 LINE",
"786 548 LINE",
"762 548 LINE",
"762 456 OFFCURVE",
"742 374 OFFCURVE",
"672 374 CURVE SMOOTH",
"585 374 LINE",
"585 631 LINE SMOOTH",
"585 650 OFFCURVE",
"592 660 OFFCURVE",
"612 660 CURVE SMOOTH",
"792 660 LINE SMOOTH",
"916 660 OFFCURVE",
"947 556 OFFCURVE",
"947 438 CURVE",
"968 438 LINE",
"966 691 LINE",
"510 691 LINE SMOOTH",
"437 691 OFFCURVE",
"377 708 OFFCURVE",
"349 708 CURVE SMOOTH",
"292 708 OFFCURVE",
"243 691 OFFCURVE",
"201 657 CURVE SMOOTH",
"115 587 OFFCURVE",
"68 471 OFFCURVE",
"68 345 CURVE SMOOTH",
"68 284 OFFCURVE",
"80 224 OFFCURVE",
"102 170 CURVE SMOOTH",
"148 58 OFFCURVE",
"236 -17 OFFCURVE",
"349 -17 CURVE SMOOTH"
);
},
{
closed = 1;
nodes = (
"205 14 OFFCURVE",
"136 182 OFFCURVE",
"136 342 CURVE SMOOTH",
"136 515 OFFCURVE",
"205 677 OFFCURVE",
"349 677 CURVE SMOOTH",
"474 677 OFFCURVE",
"523 611 OFFCURVE",
"523 527 CURVE SMOOTH",
"523 163 LINE SMOOTH",
"523 83 OFFCURVE",
"459 14 OFFCURVE",
"349 14 CURVE SMOOTH"
);
}
);
width = 1032;
},
{
layerId = "6701A4D5-8A3D-41DD-8AA0-CFF5D98C5FFE";
paths = (
{
closed = 1;
nodes = (
"401 -17 OFFCURVE",
"429 0 OFFCURVE",
"483 0 CURVE SMOOTH",
"921 0 LINE",
"926 268 LINE",
"893 268 LINE",
"887 162 OFFCURVE",
"823 31 OFFCURVE",
"729 31 CURVE SMOOTH",
"635 31 LINE SMOOTH",
"620 31 OFFCURVE",
"613 37 OFFCURVE",
"613 53 CURVE SMOOTH",
"613 332 LINE",
"657 332 LINE SMOOTH",
"705 332 OFFCURVE",
"755 260 OFFCURVE",
"755 203 CURVE",
"787 203 LINE",
"787 494 LINE",
"755 494 LINE",
"755 449 OFFCURVE",
"713 368 OFFCURVE",
"657 368 CURVE SMOOTH",
"613 368 LINE",
"613 637 LINE SMOOTH",
"613 656 OFFCURVE",
"620 660 OFFCURVE",
"635 660 CURVE SMOOTH",
"730 660 LINE SMOOTH",
"797 660 OFFCURVE",
"885 546 OFFCURVE",
"885 471 CURVE",
"918 471 LINE",
"912 691 LINE",
"483 691 LINE SMOOTH",
"432 691 OFFCURVE",
"400 708 OFFCURVE",
"349 708 CURVE SMOOTH",
"301 708 OFFCURVE",
"255 691 OFFCURVE",
"212 657 CURVE SMOOTH",
"124 588 OFFCURVE",
"68 466 OFFCURVE",
"68 345 CURVE SMOOTH",
"68 284 OFFCURVE",
"81 227 OFFCURVE",
"107 171 CURVE SMOOTH",
"159 59 OFFCURVE",
"251 -17 OFFCURVE",
"349 -17 CURVE SMOOTH"
);
},
{
closed = 1;
nodes = (
"260 14 OFFCURVE",
"249 29 OFFCURVE",
"249 354 CURVE",
"249 655 OFFCURVE",
"260 677 OFFCURVE",
"349 677 CURVE SMOOTH",
"419 677 OFFCURVE",
"457 629 OFFCURVE",
"457 485 CURVE SMOOTH",
"457 206 LINE SMOOTH",
"457 62 OFFCURVE",
"422 14 OFFCURVE",
"349 14 CURVE SMOOTH"
);
}
);
width = 977;
}
);
leftKerningGroup = O;
note = OE;
unicode = 0152;
},
{
glyphname = P;
lastChange = "2017-06-10 11:33:30 +0000";
layers = (
{
layerId = "9ECE4C5B-AE6E-45F8-855F-54F501A6946D";
paths = (
{
closed = 1;
nodes = (
"331 0 LINE",
"331 31 LINE",
"247 31 LINE SMOOTH",
"224 31 OFFCURVE",
"217 39 OFFCURVE",
"217 59 CURVE SMOOTH",
"217 326 LINE",
"372 326 LINE SMOOTH",
"418 326 OFFCURVE",
"457 334 OFFCURVE",
"493 350 CURVE SMOOTH",
"563 381 OFFCURVE",
"605 439 OFFCURVE",
"605 510 CURVE SMOOTH",
"605 545 OFFCURVE",
"595 576 OFFCURVE",
"576 604 CURVE SMOOTH",
"538 660 OFFCURVE",
"462 691 OFFCURVE",
"372 691 CURVE SMOOTH",
"60 691 LINE",
"60 660 LINE",
"132 660 LINE SMOOTH",
"150 660 OFFCURVE",
"159 650 OFFCURVE",
"159 631 CURVE SMOOTH",
"159 59 LINE SMOOTH",
"159 42 OFFCURVE",
"147 31 OFFCURVE",
"132 31 CURVE SMOOTH",
"60 31 LINE",
"60 0 LINE"
);
},
{
closed = 1;
nodes = (
"217 631 LINE SMOOTH",
"217 650 OFFCURVE",
"226 660 OFFCURVE",
"247 660 CURVE SMOOTH",
"400 660 LINE SMOOTH",
"473 660 OFFCURVE",
"531 590 OFFCURVE",
"531 510 CURVE SMOOTH",
"531 433 OFFCURVE",
"472 357 OFFCURVE",
"400 357 CURVE SMOOTH",
"217 357 LINE"
);
}
);
width = 648;
},
{
layerId = "6701A4D5-8A3D-41DD-8AA0-CFF5D98C5FFE";
paths = (
{
closed = 1;
nodes = (
"416 0 LINE",
"416 31 LINE",
"330 31 LINE SMOOTH",
"315 31 OFFCURVE",
"308 38 OFFCURVE",
"308 53 CURVE SMOOTH",
"308 326 LINE",
"411 326 LINE SMOOTH",
"457 326 OFFCURVE",
"497 334 OFFCURVE",
"533 350 CURVE SMOOTH",
"603 381 OFFCURVE",
"644 439 OFFCURVE",
"644 510 CURVE SMOOTH",
"644 545 OFFCURVE",
"635 576 OFFCURVE",
"614 604 CURVE SMOOTH",
"573 659 OFFCURVE",
"502 691 OFFCURVE",
"411 691 CURVE SMOOTH",
"60 691 LINE",
"60 660 LINE",
"127 660 LINE SMOOTH",
"145 660 OFFCURVE",
"150 656 OFFCURVE",
"150 637 CURVE SMOOTH",
"150 53 LINE SMOOTH",
"150 37 OFFCURVE",
"146 31 OFFCURVE",
"127 31 CURVE SMOOTH",
"60 31 LINE",
"60 0 LINE"
);
},
{
closed = 1;
nodes = (
"308 637 LINE SMOOTH",
"308 656 OFFCURVE",
"315 660 OFFCURVE",
"330 660 CURVE SMOOTH",
"390 660 LINE SMOOTH",
"458 660 OFFCURVE",
"475 606 OFFCURVE",
"475 510 CURVE SMOOTH",
"475 411 OFFCURVE",
"456 357 OFFCURVE",
"390 357 CURVE SMOOTH",
"308 357 LINE"
);
}
);
width = 687;
}
);
note = P;
rightKerningGroup = P;
unicode = 0050;
},
{
glyphname = Thorn;
lastChange = "2017-06-10 11:33:30 +0000";
layers = (
{
layerId = "9ECE4C5B-AE6E-45F8-855F-54F501A6946D";
paths = (
{
closed = 1;
nodes = (
"331 0 LINE",
"331 31 LINE",
"247 31 LINE SMOOTH",
"227 31 OFFCURVE",
"217 42 OFFCURVE",
"217 59 CURVE SMOOTH",
"217 204 LINE",
"372 204 LINE SMOOTH",
"418 204 OFFCURVE",
"456 211 OFFCURVE",
"493 228 CURVE SMOOTH",
"563 260 OFFCURVE",
"605 317 OFFCURVE",
"605 388 CURVE SMOOTH",
"605 423 OFFCURVE",
"595 454 OFFCURVE",
"576 482 CURVE SMOOTH",
"538 537 OFFCURVE",
"462 568 OFFCURVE",
"372 568 CURVE SMOOTH",
"217 568 LINE",
"217 631 LINE SMOOTH",
"217 650 OFFCURVE",
"226 660 OFFCURVE",
"247 660 CURVE SMOOTH",
"331 660 LINE",
"331 691 LINE",
"60 691 LINE",
"60 660 LINE",
"132 660 LINE SMOOTH",
"150 660 OFFCURVE",
"159 650 OFFCURVE",
"159 631 CURVE SMOOTH",
"159 59 LINE SMOOTH",
"159 42 OFFCURVE",
"147 31 OFFCURVE",
"132 31 CURVE SMOOTH",
"60 31 LINE",
"60 0 LINE"
);
},
{
closed = 1;
nodes = (
"217 509 LINE SMOOTH",
"217 528 OFFCURVE",
"226 537 OFFCURVE",
"247 537 CURVE SMOOTH",
"400 537 LINE SMOOTH",
"473 537 OFFCURVE",
"531 467 OFFCURVE",
"531 388 CURVE SMOOTH",
"531 311 OFFCURVE",
"472 235 OFFCURVE",
"400 235 CURVE SMOOTH",
"217 235 LINE"
);
}
);
width = 648;
},
{
layerId = "6701A4D5-8A3D-41DD-8AA0-CFF5D98C5FFE";
paths = (
{
closed = 1;
nodes = (
"416 0 LINE",
"416 31 LINE",
"330 31 LINE SMOOTH",
"315 31 OFFCURVE",
"308 37 OFFCURVE",
"308 53 CURVE SMOOTH",
"308 204 LINE",
"411 204 LINE SMOOTH",
"457 204 OFFCURVE",
"496 211 OFFCURVE",
"533 228 CURVE SMOOTH",
"603 260 OFFCURVE",
"644 317 OFFCURVE",
"644 388 CURVE SMOOTH",
"644 423 OFFCURVE",
"635 454 OFFCURVE",
"614 482 CURVE SMOOTH",
"574 536 OFFCURVE",
"502 568 OFFCURVE",
"411 568 CURVE SMOOTH",
"308 568 LINE",
"308 637 LINE SMOOTH",
"308 656 OFFCURVE",
"315 660 OFFCURVE",
"330 660 CURVE SMOOTH",
"416 660 LINE",
"416 691 LINE",
"60 691 LINE",
"60 660 LINE",
"127 660 LINE SMOOTH",
"145 660 OFFCURVE",
"150 656 OFFCURVE",
"150 637 CURVE SMOOTH",
"150 53 LINE SMOOTH",
"150 37 OFFCURVE",
"146 31 OFFCURVE",
"127 31 CURVE SMOOTH",
"60 31 LINE",
"60 0 LINE"
);
},
{
closed = 1;
nodes = (
"308 515 LINE SMOOTH",
"308 534 OFFCURVE",
"315 537 OFFCURVE",
"330 537 CURVE SMOOTH",
"390 537 LINE SMOOTH",
"458 537 OFFCURVE",
"475 485 OFFCURVE",
"475 388 CURVE SMOOTH",
"475 289 OFFCURVE",
"456 235 OFFCURVE",
"390 235 CURVE SMOOTH",
"308 235 LINE"
);
}
);
width = 687;
}
);
note = Thorn;
unicode = 00DE;
},
{
glyphname = Q;
lastChange = "2017-06-10 11:33:30 +0000";
layers = (
{
layerId = "9ECE4C5B-AE6E-45F8-855F-54F501A6946D";
paths = (
{
closed = 1;
nodes = (
"582 -125 OFFCURVE",
"618 -107 OFFCURVE",
"626 46 CURVE",
"612 46 LINE",
"609 -53 OFFCURVE",
"589 -85 OFFCURVE",
"557 -85 CURVE SMOOTH",
"520 -85 OFFCURVE",
"498 -41 OFFCURVE",
"477 23 CURVE",
"508 45 OFFCURVE",
"536 70 OFFCURVE",
"556 100 CURVE SMOOTH",
"600 166 OFFCURVE",
"625 253 OFFCURVE",
"625 351 CURVE SMOOTH",
"625 412 OFFCURVE",
"614 471 OFFCURVE",
"592 527 CURVE SMOOTH",
"549 637 OFFCURVE",
"460 708 OFFCURVE",
"346 708 CURVE SMOOTH",
"289 708 OFFCURVE",
"240 692 OFFCURVE",
"198 659 CURVE SMOOTH",
"114 593 OFFCURVE",
"68 474 OFFCURVE",
"68 351 CURVE SMOOTH",
"68 289 OFFCURVE",
"80 228 OFFCURVE",
"101 172 CURVE SMOOTH",
"143 59 OFFCURVE",
"234 -17 OFFCURVE",
"346 -17 CURVE SMOOTH",
"361 -17 OFFCURVE",
"383 -15 OFFCURVE",
"411 -6 CURVE",
"428 -93 OFFCURVE",
"464 -125 OFFCURVE",
"521 -125 CURVE SMOOTH"
);
},
{
closed = 1;
nodes = (
"164 106 OFFCURVE",
"136 268 OFFCURVE",
"136 349 CURVE SMOOTH",
"136 518 OFFCURVE",
"201 677 OFFCURVE",
"346 677 CURVE SMOOTH",
"490 677 OFFCURVE",
"556 517 OFFCURVE",
"556 351 CURVE SMOOTH",
"556 249 OFFCURVE",
"525 109 OFFCURVE",
"464 56 CURVE",
"442 123 OFFCURVE",
"409 169 OFFCURVE",
"343 169 CURVE SMOOTH",
"290 169 OFFCURVE",
"244 130 OFFCURVE",
"244 70 CURVE SMOOTH",
"244 57 OFFCURVE",
"247 48 OFFCURVE",
"250 41 CURVE",
"249 40 LINE"
);
},
{
closed = 1;
nodes = (
"300 14 OFFCURVE",
"280 40 OFFCURVE",
"280 72 CURVE SMOOTH",
"280 116 OFFCURVE",
"307 138 OFFCURVE",
"345 138 CURVE SMOOTH",
"387 138 OFFCURVE",
"400 90 OFFCURVE",
"405 24 CURVE",
"388 17 OFFCURVE",
"368 14 OFFCURVE",
"346 14 CURVE SMOOTH"
);
}
);
width = 674;
},
{
layerId = "6701A4D5-8A3D-41DD-8AA0-CFF5D98C5FFE";
paths = (
{
closed = 1;
nodes = (
"665 -249 OFFCURVE",
"660 -24 OFFCURVE",
"644 55 CURVE",
"612 55 LINE",
"621 2 OFFCURVE",
"622 -111 OFFCURVE",
"535 -111 CURVE SMOOTH",
"483 -111 OFFCURVE",
"456 -69 OFFCURVE",
"454 7 CURVE",
"491 24 OFFCURVE",
"524 52 OFFCURVE",
"553 87 CURVE SMOOTH",
"611 157 OFFCURVE",
"645 252 OFFCURVE",
"645 344 CURVE SMOOTH",
"645 405 OFFCURVE",
"631 465 OFFCURVE",
"604 521 CURVE SMOOTH",
"550 632 OFFCURVE",
"454 708 OFFCURVE",
"357 708 CURVE SMOOTH",
"309 708 OFFCURVE",
"261 691 OFFCURVE",
"217 657 CURVE SMOOTH",
"127 588 OFFCURVE",
"68 468 OFFCURVE",
"68 344 CURVE SMOOTH",
"68 283 OFFCURVE",
"81 226 OFFCURVE",
"109 171 CURVE SMOOTH",
"165 59 OFFCURVE",
"257 -17 OFFCURVE",
"358 -17 CURVE SMOOTH",
"376 -17 OFFCURVE",
"392 -16 OFFCURVE",
"405 -12 CURVE",
"390 -108 OFFCURVE",
"389 -249 OFFCURVE",
"515 -249 CURVE SMOOTH"
);
},
{
closed = 1;
nodes = (
"247 96 OFFCURVE",
"249 98 OFFCURVE",
"249 348 CURVE",
"249 655 OFFCURVE",
"265 677 OFFCURVE",
"357 677 CURVE SMOOTH",
"447 677 OFFCURVE",
"464 658 OFFCURVE",
"464 344 CURVE",
"464 113 OFFCURVE",
"470 120 OFFCURVE",
"448 71 CURVE",
"442 122 OFFCURVE",
"404 160 OFFCURVE",
"352 160 CURVE SMOOTH",
"299 160 OFFCURVE",
"270 120 OFFCURVE",
"270 79 CURVE SMOOTH",
"270 72 OFFCURVE",
"270 64 OFFCURVE",
"272 56 CURVE",
"270 55 LINE"
);
},
{
closed = 1;
nodes = (
"322 14 OFFCURVE",
"295 18 OFFCURVE",
"295 73 CURVE SMOOTH",
"295 99 OFFCURVE",
"314 128 OFFCURVE",
"339 128 CURVE SMOOTH",
"398 128 OFFCURVE",
"409 89 OFFCURVE",
"409 24 CURVE",
"392 17 OFFCURVE",
"374 14 OFFCURVE",
"357 14 CURVE SMOOTH"
);
}
);
width = 694;
}
);
leftKerningGroup = O;
note = Q;
unicode = 0051;
},
{
glyphname = R;
lastChange = "2017-06-10 11:33:30 +0000";
layers = (
{
layerId = "9ECE4C5B-AE6E-45F8-855F-54F501A6946D";
paths = (
{
closed = 1;
nodes = (
"640 -5 OFFCURVE",
"646 83 OFFCURVE",
"646 144 CURVE",
"626 144 LINE",
"626 68 OFFCURVE",
"611 60 OFFCURVE",
"590 60 CURVE SMOOTH",
"564 60 OFFCURVE",
"556 70 OFFCURVE",
"544 109 CURVE SMOOTH",
"541 116 OFFCURVE",
"534 138 OFFCURVE",
"526 176 CURVE SMOOTH",
"498 312 OFFCURVE",
"457 355 OFFCURVE",
"398 368 CURVE",
"398 371 LINE",
"495 379 OFFCURVE",
"585 444 OFFCURVE",
"585 543 CURVE SMOOTH",
"585 659 OFFCURVE",
"497 691 OFFCURVE",
"380 691 CURVE SMOOTH",
"60 691 LINE",
"60 660 LINE",
"132 660 LINE SMOOTH",
"150 660 OFFCURVE",
"159 650 OFFCURVE",
"159 631 CURVE SMOOTH",
"159 59 LINE SMOOTH",
"159 42 OFFCURVE",
"147 31 OFFCURVE",
"132 31 CURVE SMOOTH",
"60 31 LINE",
"60 0 LINE",
"333 0 LINE",
"333 31 LINE",
"247 31 LINE SMOOTH",
"224 31 OFFCURVE",
"217 39 OFFCURVE",
"217 59 CURVE SMOOTH",
"217 359 LINE",
"353 359 LINE SMOOTH",
"420 359 OFFCURVE",
"447 285 OFFCURVE",
"448 186 CURVE SMOOTH",
"449 82 OFFCURVE",
"465 15 OFFCURVE",
"498 -8 CURVE SMOOTH",
"512 -18 OFFCURVE",
"534 -5 OFFCURVE",
"555 -5 CURVE SMOOTH"
);
},
{
closed = 1;
nodes = (
"217 631 LINE SMOOTH",
"217 650 OFFCURVE",
"226 660 OFFCURVE",
"247 660 CURVE SMOOTH",
"379 660 LINE SMOOTH",
"454 660 OFFCURVE",
"512 613 OFFCURVE",
"512 539 CURVE SMOOTH",
"512 446 OFFCURVE",
"458 390 OFFCURVE",
"329 390 CURVE SMOOTH",
"217 390 LINE"
);
}
);
width = 678;
},
{
layerId = "6701A4D5-8A3D-41DD-8AA0-CFF5D98C5FFE";
paths = (
{
closed = 1;
nodes = (
"667 -26 OFFCURVE",
"701 43 OFFCURVE",
"701 180 CURVE",
"668 180 LINE",
"668 124 OFFCURVE",
"660 26 OFFCURVE",
"617 26 CURVE SMOOTH",
"600 26 OFFCURVE",
"592 41 OFFCURVE",
"592 66 CURVE SMOOTH",
"593 106 OFFCURVE",
"595 145 OFFCURVE",
"596 179 CURVE SMOOTH",
"599 289 OFFCURVE",
"542 338 OFFCURVE",
"434 358 CURVE",
"434 365 LINE",
"543 378 OFFCURVE",
"611 429 OFFCURVE",
"611 516 CURVE SMOOTH",
"611 619 OFFCURVE",
"517 691 OFFCURVE",
"373 691 CURVE SMOOTH",
"60 691 LINE",
"60 660 LINE",
"127 660 LINE SMOOTH",
"145 660 OFFCURVE",
"150 656 OFFCURVE",
"150 637 CURVE SMOOTH",
"150 53 LINE SMOOTH",
"150 37 OFFCURVE",
"146 31 OFFCURVE",
"127 31 CURVE SMOOTH",
"60 31 LINE",
"60 0 LINE",
"416 0 LINE",
"416 31 LINE",
"330 31 LINE SMOOTH",
"315 31 OFFCURVE",
"308 38 OFFCURVE",
"308 53 CURVE SMOOTH",
"308 352 LINE",
"348 352 LINE SMOOTH",
"411 352 OFFCURVE",
"441 309 OFFCURVE",
"441 253 CURVE SMOOTH",
"441 224 OFFCURVE",
"438 186 OFFCURVE",
"435 144 CURVE SMOOTH",
"427 34 OFFCURVE",
"489 -26 OFFCURVE",
"581 -26 CURVE SMOOTH"
);
},
{
closed = 1;
nodes = (
"308 637 LINE SMOOTH",
"308 656 OFFCURVE",
"315 660 OFFCURVE",
"330 660 CURVE SMOOTH",
"357 660 LINE SMOOTH",
"425 660 OFFCURVE",
"442 617 OFFCURVE",
"442 526 CURVE SMOOTH",
"442 436 OFFCURVE",
"424 383 OFFCURVE",
"365 383 CURVE SMOOTH",
"308 383 LINE"
);
}
);
width = 716;
}
);
note = R;
rightKerningGroup = R;
unicode = 0052;
},
{
glyphname = S;
lastChange = "2017-06-10 11:33:30 +0000";
layers = (
{
layerId = "9ECE4C5B-AE6E-45F8-855F-54F501A6946D";
paths = (
{
closed = 1;
nodes = (
"391 -17 OFFCURVE",
"430 -8 OFFCURVE",
"462 12 CURVE SMOOTH",
"522 49 OFFCURVE",
"551 112 OFFCURVE",
"551 182 CURVE SMOOTH",
"551 256 OFFCURVE",
"503 333 OFFCURVE",
"397 361 CURVE SMOOTH",
"223 406 LINE SMOOTH",
"164 421 OFFCURVE",
"133 444 OFFCURVE",
"133 513 CURVE SMOOTH",
"133 616 OFFCURVE",
"195 677 OFFCURVE",
"270 677 CURVE SMOOTH",
"302 677 OFFCURVE",
"331 667 OFFCURVE",
"363 647 CURVE SMOOTH",
"424 609 OFFCURVE",
"472 534 OFFCURVE",
"491 438 CURVE",
"509 438 LINE",
"499 691 LINE",
"480 691 LINE",
"477 651 LINE SMOOTH",
"476 633 OFFCURVE",
"470 627 OFFCURVE",
"459 627 CURVE SMOOTH",
"447 627 OFFCURVE",
"434 638 OFFCURVE",
"421 645 CURVE",
"367 687 OFFCURVE",
"318 708 OFFCURVE",
"277 708 CURVE SMOOTH",
"169 708 OFFCURVE",
"87 652 OFFCURVE",
"87 528 CURVE SMOOTH",
"87 431 OFFCURVE",
"133 354 OFFCURVE",
"261 325 CURVE SMOOTH",
"374 298 LINE SMOOTH",
"460 278 OFFCURVE",
"505 237 OFFCURVE",
"505 158 CURVE SMOOTH",
"505 76 OFFCURVE",
"448 14 OFFCURVE",
"340 14 CURVE SMOOTH",
"305 14 OFFCURVE",
"267 27 OFFCURVE",
"231 54 CURVE SMOOTH",
"159 109 OFFCURVE",
"106 203 OFFCURVE",
"106 297 CURVE",
"85 297 LINE",
"92 -10 LINE",
"111 -10 LINE",
"113 34 LINE",
"119 64 OFFCURVE",
"128 81 OFFCURVE",
"141 81 CURVE SMOOTH",
"138 81 OFFCURVE",
"157 70 OFFCURVE",
"187 48 CURVE SMOOTH",
"230 17 OFFCURVE",
"291 -17 OFFCURVE",
"343 -17 CURVE SMOOTH"
);
}
);
width = 601;
},
{
layerId = "6701A4D5-8A3D-41DD-8AA0-CFF5D98C5FFE";
paths = (
{
closed = 1;
nodes = (
"383 -17 OFFCURVE",
"423 -8 OFFCURVE",
"455 12 CURVE SMOOTH",
"519 52 OFFCURVE",
"553 116 OFFCURVE",
"553 182 CURVE SMOOTH",
"553 247 OFFCURVE",
"522 312 OFFCURVE",
"476 345 CURVE SMOOTH",
"262 497 LINE SMOOTH",
"205 538 OFFCURVE",
"177 578 OFFCURVE",
"177 610 CURVE SMOOTH",
"177 656 OFFCURVE",
"204 677 OFFCURVE",
"272 677 CURVE SMOOTH",
"303 677 OFFCURVE",
"334 666 OFFCURVE",
"362 645 CURVE SMOOTH",
"419 602 OFFCURVE",
"464 527 OFFCURVE",
"488 438 CURVE",
"522 438 LINE",
"512 691 LINE",
"478 691 LINE",
"472 666 LINE SMOOTH",
"468 653 OFFCURVE",
"463 645 OFFCURVE",
"451 645 CURVE SMOOTH",
"442 645 OFFCURVE",
"431 650 OFFCURVE",
"416 663 CURVE",
"373 693 OFFCURVE",
"326 708 OFFCURVE",
"279 708 CURVE SMOOTH",
"172 708 OFFCURVE",
"89 646 OFFCURVE",
"89 521 CURVE SMOOTH",
"89 443 OFFCURVE",
"137 388 OFFCURVE",
"190 351 CURVE SMOOTH",
"410 195 LINE SMOOTH",
"450 166 OFFCURVE",
"470 145 OFFCURVE",
"470 118 CURVE SMOOTH",
"470 66 OFFCURVE",
"443 14 OFFCURVE",
"342 14 CURVE SMOOTH",
"307 14 OFFCURVE",
"275 27 OFFCURVE",
"245 53 CURVE SMOOTH",
"184 106 OFFCURVE",
"142 198 OFFCURVE",
"120 297 CURVE",
"87 297 LINE",
"93 -10 LINE",
"125 -10 LINE",
"130 19 LINE SMOOTH",
"133 41 OFFCURVE",
"142 50 OFFCURVE",
"155 50 CURVE SMOOTH",
"173 50 OFFCURVE",
"184 39 OFFCURVE",
"207 21 CURVE",
"234 -2 OFFCURVE",
"277 -17 OFFCURVE",
"336 -17 CURVE SMOOTH"
);
}
);
width = 601;
}
);
note = S;
rightKerningGroup = S;
unicode = 0053;
},
{
glyphname = T;
lastChange = "2017-06-10 11:33:30 +0000";
layers = (
{
layerId = "9ECE4C5B-AE6E-45F8-855F-54F501A6946D";
paths = (
{
closed = 1;
nodes = (
"508 0 LINE",
"508 31 LINE",
"407 31 LINE SMOOTH",
"387 31 OFFCURVE",
"379 42 OFFCURVE",
"379 59 CURVE SMOOTH",
"379 641 LINE SMOOTH",
"379 660 OFFCURVE",
"381 665 OFFCURVE",
"399 665 CURVE SMOOTH",
"566 665 OFFCURVE",
"623 578 OFFCURVE",
"603 420 CURVE",
"627 420 LINE",
"619 691 LINE",
"78 691 LINE",
"70 420 LINE",
"95 420 LINE",
"77 589 OFFCURVE",
"136 665 OFFCURVE",
"298 665 CURVE SMOOTH",
"317 665 OFFCURVE",
"319 660 OFFCURVE",
"319 641 CURVE SMOOTH",
"319 59 LINE SMOOTH",
"319 42 OFFCURVE",
"310 31 OFFCURVE",
"292 31 CURVE SMOOTH",
"190 31 LINE",
"190 0 LINE"
);
}
);
width = 678;
},
{
layerId = "6701A4D5-8A3D-41DD-8AA0-CFF5D98C5FFE";
paths = (
{
closed = 1;
nodes = (
"536 0 LINE",
"536 31 LINE",
"462 31 LINE SMOOTH",
"446 31 OFFCURVE",
"439 37 OFFCURVE",
"439 53 CURVE SMOOTH",
"439 625 LINE SMOOTH",
"439 645 OFFCURVE",
"454 659 OFFCURVE",
"478 659 CURVE SMOOTH",
"555 659 OFFCURVE",
"585 538 OFFCURVE",
"631 399 CURVE",
"663 399 LINE",
"655 691 LINE",
"66 691 LINE",
"58 399 LINE",
"90 399 LINE",
"129 513 OFFCURVE",
"156 659 OFFCURVE",
"243 659 CURVE SMOOTH",
"267 659 OFFCURVE",
"281 645 OFFCURVE",
"281 625 CURVE SMOOTH",
"281 53 LINE SMOOTH",
"281 37 OFFCURVE",
"277 31 OFFCURVE",
"259 31 CURVE SMOOTH",
"185 31 LINE",
"185 0 LINE"
);
}
);
width = 702;
}
);
leftKerningGroup = T;
note = T;
rightKerningGroup = T;
unicode = 0054;
},
{
glyphname = U;
lastChange = "2017-06-10 11:33:30 +0000";
layers = (
{
layerId = "9ECE4C5B-AE6E-45F8-855F-54F501A6946D";
paths = (
{
closed = 1;
nodes = (
"456 -17 OFFCURVE",
"496 -8 OFFCURVE",
"532 12 CURVE SMOOTH",
"602 51 OFFCURVE",
"640 120 OFFCURVE",
"640 202 CURVE SMOOTH",
"640 586 LINE SMOOTH",
"640 642 OFFCURVE",
"646 660 OFFCURVE",
"732 660 CURVE",
"732 691 LINE",
"508 691 LINE",
"508 660 LINE",
"591 660 OFFCURVE",
"602 646 OFFCURVE",
"602 586 CURVE SMOOTH",
"602 192 LINE SMOOTH",
"602 160 OFFCURVE",
"593 130 OFFCURVE",
"577 102 CURVE SMOOTH",
"545 46 OFFCURVE",
"485 10 OFFCURVE",
"394 10 CURVE SMOOTH",
"282 10 OFFCURVE",
"213 88 OFFCURVE",
"213 211 CURVE SMOOTH",
"213 631 LINE SMOOTH",
"213 650 OFFCURVE",
"220 660 OFFCURVE",
"240 660 CURVE SMOOTH",
"316 660 LINE",
"316 691 LINE",
"50 691 LINE",
"50 660 LINE",
"125 660 LINE SMOOTH",
"144 660 OFFCURVE",
"153 650 OFFCURVE",
"153 631 CURVE SMOOTH",
"153 230 LINE SMOOTH",
"153 185 OFFCURVE",
"161 145 OFFCURVE",
"180 108 CURVE SMOOTH",
"218 34 OFFCURVE",
"292 -17 OFFCURVE",
"409 -17 CURVE SMOOTH"
);
}
);
width = 760;
},
{
layerId = "6701A4D5-8A3D-41DD-8AA0-CFF5D98C5FFE";
paths = (
{
closed = 1;
nodes = (
"451 -17 OFFCURVE",
"492 -8 OFFCURVE",
"528 12 CURVE SMOOTH",
"597 50 OFFCURVE",
"635 120 OFFCURVE",
"635 202 CURVE SMOOTH",
"635 570 LINE SMOOTH",
"635 629 OFFCURVE",
"688 660 OFFCURVE",
"738 660 CURVE",
"738 691 LINE",
"495 691 LINE",
"495 660 LINE",
"545 660 OFFCURVE",
"596 629 OFFCURVE",
"596 570 CURVE SMOOTH",
"596 192 LINE SMOOTH",
"596 161 OFFCURVE",
"590 134 OFFCURVE",
"575 108 CURVE SMOOTH",
"547 57 OFFCURVE",
"496 23 OFFCURVE",
"438 23 CURVE SMOOTH",
"347 23 OFFCURVE",
"306 71 OFFCURVE",
"306 189 CURVE SMOOTH",
"306 637 LINE SMOOTH",
"306 656 OFFCURVE",
"313 660 OFFCURVE",
"328 660 CURVE SMOOTH",
"388 660 LINE",
"388 691 LINE",
"66 691 LINE",
"66 660 LINE",
"126 660 LINE SMOOTH",
"144 660 OFFCURVE",
"148 656 OFFCURVE",
"148 637 CURVE SMOOTH",
"148 230 LINE SMOOTH",
"148 185 OFFCURVE",
"157 145 OFFCURVE",
"174 108 CURVE SMOOTH",
"209 33 OFFCURVE",
"287 -17 OFFCURVE",
"403 -17 CURVE SMOOTH"
);
}
);
width = 769;
}
);
leftKerningGroup = U;
note = U;
rightKerningGroup = U;
unicode = 0055;
},
{
glyphname = Uacute;
lastChange = "2017-06-10 11:33:30 +0000";
layers = (
{
layerId = "9ECE4C5B-AE6E-45F8-855F-54F501A6946D";
paths = (
{
closed = 1;
nodes = (
"509 839 LINE SMOOTH",
"528 854 OFFCURVE",
"536 867 OFFCURVE",
"536 880 CURVE SMOOTH",
"536 895 OFFCURVE",
"531 905 OFFCURVE",
"517 905 CURVE SMOOTH",
"499 905 OFFCURVE",
"487 897 OFFCURVE",
"470 874 CURVE SMOOTH",
"377 747 LINE",
"387 741 LINE"
);
},
{
closed = 1;
nodes = (
"456 -17 OFFCURVE",
"496 -8 OFFCURVE",
"532 12 CURVE SMOOTH",
"602 51 OFFCURVE",
"640 120 OFFCURVE",
"640 202 CURVE SMOOTH",
"640 586 LINE SMOOTH",
"640 642 OFFCURVE",
"646 660 OFFCURVE",
"732 660 CURVE",
"732 691 LINE",
"508 691 LINE",
"508 660 LINE",
"591 660 OFFCURVE",
"602 646 OFFCURVE",
"602 586 CURVE SMOOTH",
"602 192 LINE SMOOTH",
"602 160 OFFCURVE",
"593 130 OFFCURVE",
"577 102 CURVE SMOOTH",
"545 46 OFFCURVE",
"485 10 OFFCURVE",
"394 10 CURVE SMOOTH",
"282 10 OFFCURVE",
"213 88 OFFCURVE",
"213 211 CURVE SMOOTH",
"213 631 LINE SMOOTH",
"213 650 OFFCURVE",
"220 660 OFFCURVE",
"240 660 CURVE SMOOTH",
"316 660 LINE",
"316 691 LINE",
"50 691 LINE",
"50 660 LINE",
"125 660 LINE SMOOTH",
"144 660 OFFCURVE",
"153 650 OFFCURVE",
"153 631 CURVE SMOOTH",
"153 230 LINE SMOOTH",
"153 185 OFFCURVE",
"161 145 OFFCURVE",
"180 108 CURVE SMOOTH",
"218 34 OFFCURVE",
"292 -17 OFFCURVE",
"409 -17 CURVE SMOOTH"
);
}
);
width = 760;
},
{
layerId = "6701A4D5-8A3D-41DD-8AA0-CFF5D98C5FFE";
paths = (
{
closed = 1;
nodes = (
"535 833 LINE SMOOTH",
"553 847 OFFCURVE",
"563 862 OFFCURVE",
"563 881 CURVE SMOOTH",
"563 906 OFFCURVE",
"542 923 OFFCURVE",
"518 923 CURVE SMOOTH",
"499 923 OFFCURVE",
"484 914 OFFCURVE",
"469 891 CURVE SMOOTH",
"384 756 LINE",
"405 736 LINE"
);
},
{
closed = 1;
nodes = (
"451 -17 OFFCURVE",
"492 -8 OFFCURVE",
"528 12 CURVE SMOOTH",
"597 50 OFFCURVE",
"635 120 OFFCURVE",
"635 202 CURVE SMOOTH",
"635 570 LINE SMOOTH",
"635 629 OFFCURVE",
"688 660 OFFCURVE",
"738 660 CURVE",
"738 691 LINE",
"495 691 LINE",
"495 660 LINE",
"545 660 OFFCURVE",
"596 629 OFFCURVE",
"596 570 CURVE SMOOTH",
"596 192 LINE SMOOTH",
"596 161 OFFCURVE",
"590 134 OFFCURVE",
"575 108 CURVE SMOOTH",
"547 57 OFFCURVE",
"496 23 OFFCURVE",
"438 23 CURVE SMOOTH",
"347 23 OFFCURVE",
"306 71 OFFCURVE",
"306 189 CURVE SMOOTH",
"306 637 LINE SMOOTH",
"306 656 OFFCURVE",
"313 660 OFFCURVE",
"328 660 CURVE SMOOTH",
"388 660 LINE",
"388 691 LINE",
"66 691 LINE",
"66 660 LINE",
"126 660 LINE SMOOTH",
"144 660 OFFCURVE",
"148 656 OFFCURVE",
"148 637 CURVE SMOOTH",
"148 230 LINE SMOOTH",
"148 185 OFFCURVE",
"157 145 OFFCURVE",
"174 108 CURVE SMOOTH",
"209 33 OFFCURVE",
"287 -17 OFFCURVE",
"403 -17 CURVE SMOOTH"
);
}
);
width = 769;
}
);
leftKerningGroup = U;
note = Uacute;
rightKerningGroup = U;
unicode = 00DA;
},
{
glyphname = Ucircumflex;
lastChange = "2017-06-10 11:33:30 +0000";
layers = (
{
layerId = "9ECE4C5B-AE6E-45F8-855F-54F501A6946D";
paths = (
{
closed = 1;
nodes = (
"282 746 OFFCURVE",
"372 806 OFFCURVE",
"400 840 CURVE",
"426 806 OFFCURVE",
"516 746 OFFCURVE",
"538 739 CURVE",
"546 752 LINE",
"491 786 OFFCURVE",
"447 831 OFFCURVE",
"418 887 CURVE",
"379 887 LINE",
"350 829 OFFCURVE",
"309 786 OFFCURVE",
"251 752 CURVE",
"259 739 LINE"
);
},
{
closed = 1;
nodes = (
"456 -17 OFFCURVE",
"496 -8 OFFCURVE",
"532 12 CURVE SMOOTH",
"602 51 OFFCURVE",
"640 120 OFFCURVE",
"640 202 CURVE SMOOTH",
"640 586 LINE SMOOTH",
"640 642 OFFCURVE",
"646 660 OFFCURVE",
"732 660 CURVE",
"732 691 LINE",
"508 691 LINE",
"508 660 LINE",
"591 660 OFFCURVE",
"602 646 OFFCURVE",
"602 586 CURVE SMOOTH",
"602 192 LINE SMOOTH",
"602 160 OFFCURVE",
"593 130 OFFCURVE",
"577 102 CURVE SMOOTH",
"545 46 OFFCURVE",
"485 10 OFFCURVE",
"394 10 CURVE SMOOTH",
"282 10 OFFCURVE",
"213 88 OFFCURVE",
"213 211 CURVE SMOOTH",
"213 631 LINE SMOOTH",
"213 650 OFFCURVE",
"220 660 OFFCURVE",
"240 660 CURVE SMOOTH",
"316 660 LINE",
"316 691 LINE",
"50 691 LINE",
"50 660 LINE",
"125 660 LINE SMOOTH",
"144 660 OFFCURVE",
"153 650 OFFCURVE",
"153 631 CURVE SMOOTH",
"153 230 LINE SMOOTH",
"153 185 OFFCURVE",
"161 145 OFFCURVE",
"180 108 CURVE SMOOTH",
"218 34 OFFCURVE",
"292 -17 OFFCURVE",
"409 -17 CURVE SMOOTH"
);
}
);
width = 760;
},
{
layerId = "6701A4D5-8A3D-41DD-8AA0-CFF5D98C5FFE";
paths = (
{
closed = 1;
nodes = (
"325 761 OFFCURVE",
"351 773 OFFCURVE",
"417 813 CURVE",
"484 773 OFFCURVE",
"510 761 OFFCURVE",
"570 739 CURVE",
"583 764 LINE",
"518 795 OFFCURVE",
"470 843 OFFCURVE",
"438 905 CURVE",
"399 905 LINE",
"365 844 OFFCURVE",
"316 797 OFFCURVE",
"252 764 CURVE",
"265 739 LINE"
);
},
{
closed = 1;
nodes = (
"451 -17 OFFCURVE",
"492 -8 OFFCURVE",
"528 12 CURVE SMOOTH",
"597 50 OFFCURVE",
"635 120 OFFCURVE",
"635 202 CURVE SMOOTH",
"635 570 LINE SMOOTH",
"635 629 OFFCURVE",
"688 660 OFFCURVE",
"738 660 CURVE",
"738 691 LINE",
"495 691 LINE",
"495 660 LINE",
"545 660 OFFCURVE",
"596 629 OFFCURVE",
"596 570 CURVE SMOOTH",
"596 192 LINE SMOOTH",
"596 161 OFFCURVE",
"590 134 OFFCURVE",
"575 108 CURVE SMOOTH",
"547 57 OFFCURVE",
"496 23 OFFCURVE",
"438 23 CURVE SMOOTH",
"347 23 OFFCURVE",
"306 71 OFFCURVE",
"306 189 CURVE SMOOTH",
"306 637 LINE SMOOTH",
"306 656 OFFCURVE",
"313 660 OFFCURVE",
"328 660 CURVE SMOOTH",
"388 660 LINE",
"388 691 LINE",
"66 691 LINE",
"66 660 LINE",
"126 660 LINE SMOOTH",
"144 660 OFFCURVE",
"148 656 OFFCURVE",
"148 637 CURVE SMOOTH",
"148 230 LINE SMOOTH",
"148 185 OFFCURVE",
"157 145 OFFCURVE",
"174 108 CURVE SMOOTH",
"209 33 OFFCURVE",
"287 -17 OFFCURVE",
"403 -17 CURVE SMOOTH"
);
}
);
width = 769;
}
);
leftKerningGroup = U;
note = Ucircumflex;
rightKerningGroup = U;
unicode = 00DB;
},
{
glyphname = Udieresis;
lastChange = "2017-06-10 11:33:30 +0000";
layers = (
{
layerId = "9ECE4C5B-AE6E-45F8-855F-54F501A6946D";
paths = (
{
closed = 1;
nodes = (
"331 776 OFFCURVE",
"348 796 OFFCURVE",
"348 823 CURVE SMOOTH",
"348 852 OFFCURVE",
"331 868 OFFCURVE",
"303 868 CURVE SMOOTH",
"277 868 OFFCURVE",
"255 852 OFFCURVE",
"255 823 CURVE SMOOTH",
"255 796 OFFCURVE",
"277 776 OFFCURVE",
"303 776 CURVE SMOOTH"
);
},
{
closed = 1;
nodes = (
"526 776 OFFCURVE",
"542 796 OFFCURVE",
"542 823 CURVE SMOOTH",
"542 852 OFFCURVE",
"526 868 OFFCURVE",
"496 868 CURVE SMOOTH",
"469 868 OFFCURVE",
"450 852 OFFCURVE",
"450 823 CURVE SMOOTH",
"450 796 OFFCURVE",
"469 776 OFFCURVE",
"496 776 CURVE SMOOTH"
);
},
{
closed = 1;
nodes = (
"456 -17 OFFCURVE",
"496 -8 OFFCURVE",
"532 12 CURVE SMOOTH",
"602 51 OFFCURVE",
"640 120 OFFCURVE",
"640 202 CURVE SMOOTH",
"640 586 LINE SMOOTH",
"640 642 OFFCURVE",
"646 660 OFFCURVE",
"732 660 CURVE",
"732 691 LINE",
"508 691 LINE",
"508 660 LINE",
"591 660 OFFCURVE",
"602 646 OFFCURVE",
"602 586 CURVE SMOOTH",
"602 192 LINE SMOOTH",
"602 160 OFFCURVE",
"593 130 OFFCURVE",
"577 102 CURVE SMOOTH",
"545 46 OFFCURVE",
"485 10 OFFCURVE",
"394 10 CURVE SMOOTH",
"282 10 OFFCURVE",
"213 88 OFFCURVE",
"213 211 CURVE SMOOTH",
"213 631 LINE SMOOTH",
"213 650 OFFCURVE",
"220 660 OFFCURVE",
"240 660 CURVE SMOOTH",
"316 660 LINE",
"316 691 LINE",
"50 691 LINE",
"50 660 LINE",
"125 660 LINE SMOOTH",
"144 660 OFFCURVE",
"153 650 OFFCURVE",
"153 631 CURVE SMOOTH",
"153 230 LINE SMOOTH",
"153 185 OFFCURVE",
"161 145 OFFCURVE",
"180 108 CURVE SMOOTH",
"218 34 OFFCURVE",
"292 -17 OFFCURVE",
"409 -17 CURVE SMOOTH"
);
}
);
width = 760;
},
{
layerId = "6701A4D5-8A3D-41DD-8AA0-CFF5D98C5FFE";
paths = (
{
closed = 1;
nodes = (
"346 769 OFFCURVE",
"373 796 OFFCURVE",
"373 829 CURVE SMOOTH",
"373 861 OFFCURVE",
"346 890 OFFCURVE",
"313 890 CURVE SMOOTH",
"280 890 OFFCURVE",
"254 861 OFFCURVE",
"254 829 CURVE SMOOTH",
"254 796 OFFCURVE",
"280 769 OFFCURVE",
"313 769 CURVE SMOOTH"
);
},
{
closed = 1;
nodes = (
"554 769 OFFCURVE",
"581 796 OFFCURVE",
"581 829 CURVE SMOOTH",
"581 861 OFFCURVE",
"554 890 OFFCURVE",
"521 890 CURVE SMOOTH",
"489 890 OFFCURVE",
"461 861 OFFCURVE",
"461 829 CURVE SMOOTH",
"461 796 OFFCURVE",
"489 769 OFFCURVE",
"521 769 CURVE SMOOTH"
);
},
{
closed = 1;
nodes = (
"451 -17 OFFCURVE",
"492 -8 OFFCURVE",
"528 12 CURVE SMOOTH",
"597 50 OFFCURVE",
"635 120 OFFCURVE",
"635 202 CURVE SMOOTH",
"635 570 LINE SMOOTH",
"635 629 OFFCURVE",
"688 660 OFFCURVE",
"738 660 CURVE",
"738 691 LINE",
"495 691 LINE",
"495 660 LINE",
"545 660 OFFCURVE",
"596 629 OFFCURVE",
"596 570 CURVE SMOOTH",
"596 192 LINE SMOOTH",
"596 161 OFFCURVE",
"590 134 OFFCURVE",
"575 108 CURVE SMOOTH",
"547 57 OFFCURVE",
"496 23 OFFCURVE",
"438 23 CURVE SMOOTH",
"347 23 OFFCURVE",
"306 71 OFFCURVE",
"306 189 CURVE SMOOTH",
"306 637 LINE SMOOTH",
"306 656 OFFCURVE",
"313 660 OFFCURVE",
"328 660 CURVE SMOOTH",
"388 660 LINE",
"388 691 LINE",
"66 691 LINE",
"66 660 LINE",
"126 660 LINE SMOOTH",
"144 660 OFFCURVE",
"148 656 OFFCURVE",
"148 637 CURVE SMOOTH",
"148 230 LINE SMOOTH",
"148 185 OFFCURVE",
"157 145 OFFCURVE",
"174 108 CURVE SMOOTH",
"209 33 OFFCURVE",
"287 -17 OFFCURVE",
"403 -17 CURVE SMOOTH"
);
}
);
width = 769;
}
);
leftKerningGroup = U;
note = Udieresis;
rightKerningGroup = U;
unicode = 00DC;
},
{
glyphname = Ugrave;
lastChange = "2017-06-10 11:33:30 +0000";
layers = (
{
layerId = "9ECE4C5B-AE6E-45F8-855F-54F501A6946D";
paths = (
{
closed = 1;
nodes = (
"420 748 LINE",
"329 873 LINE SMOOTH",
"311 897 OFFCURVE",
"300 905 OFFCURVE",
"281 905 CURVE SMOOTH",
"269 905 OFFCURVE",
"262 895 OFFCURVE",
"262 880 CURVE SMOOTH",
"262 867 OFFCURVE",
"271 853 OFFCURVE",
"288 839 CURVE SMOOTH",
"410 741 LINE"
);
},
{
closed = 1;
nodes = (
"456 -17 OFFCURVE",
"496 -8 OFFCURVE",
"532 12 CURVE SMOOTH",
"602 51 OFFCURVE",
"640 120 OFFCURVE",
"640 202 CURVE SMOOTH",
"640 586 LINE SMOOTH",
"640 642 OFFCURVE",
"646 660 OFFCURVE",
"732 660 CURVE",
"732 691 LINE",
"508 691 LINE",
"508 660 LINE",
"591 660 OFFCURVE",
"602 646 OFFCURVE",
"602 586 CURVE SMOOTH",
"602 192 LINE SMOOTH",
"602 160 OFFCURVE",
"593 130 OFFCURVE",
"577 102 CURVE SMOOTH",
"545 46 OFFCURVE",
"485 10 OFFCURVE",
"394 10 CURVE SMOOTH",
"282 10 OFFCURVE",
"213 88 OFFCURVE",
"213 211 CURVE SMOOTH",
"213 631 LINE SMOOTH",
"213 650 OFFCURVE",
"220 660 OFFCURVE",
"240 660 CURVE SMOOTH",
"316 660 LINE",
"316 691 LINE",
"50 691 LINE",
"50 660 LINE",
"125 660 LINE SMOOTH",
"144 660 OFFCURVE",
"153 650 OFFCURVE",
"153 631 CURVE SMOOTH",
"153 230 LINE SMOOTH",
"153 185 OFFCURVE",
"161 145 OFFCURVE",
"180 108 CURVE SMOOTH",
"218 34 OFFCURVE",
"292 -17 OFFCURVE",
"409 -17 CURVE SMOOTH"
);
}
);
width = 760;
},
{
layerId = "6701A4D5-8A3D-41DD-8AA0-CFF5D98C5FFE";
paths = (
{
closed = 1;
nodes = (
"450 756 LINE",
"364 892 LINE SMOOTH",
"350 915 OFFCURVE",
"336 923 OFFCURVE",
"317 923 CURVE SMOOTH",
"292 923 OFFCURVE",
"273 906 OFFCURVE",
"273 881 CURVE SMOOTH",
"273 862 OFFCURVE",
"281 847 OFFCURVE",
"300 833 CURVE SMOOTH",
"429 736 LINE"
);
},
{
closed = 1;
nodes = (
"451 -17 OFFCURVE",
"492 -8 OFFCURVE",
"528 12 CURVE SMOOTH",
"597 50 OFFCURVE",
"635 120 OFFCURVE",
"635 202 CURVE SMOOTH",
"635 570 LINE SMOOTH",
"635 629 OFFCURVE",
"688 660 OFFCURVE",
"738 660 CURVE",
"738 691 LINE",
"495 691 LINE",
"495 660 LINE",
"545 660 OFFCURVE",
"596 629 OFFCURVE",
"596 570 CURVE SMOOTH",
"596 192 LINE SMOOTH",
"596 161 OFFCURVE",
"590 134 OFFCURVE",
"575 108 CURVE SMOOTH",
"547 57 OFFCURVE",
"496 23 OFFCURVE",
"438 23 CURVE SMOOTH",
"347 23 OFFCURVE",
"306 71 OFFCURVE",
"306 189 CURVE SMOOTH",
"306 637 LINE SMOOTH",
"306 656 OFFCURVE",
"313 660 OFFCURVE",
"328 660 CURVE SMOOTH",
"388 660 LINE",
"388 691 LINE",
"66 691 LINE",
"66 660 LINE",
"126 660 LINE SMOOTH",
"144 660 OFFCURVE",
"148 656 OFFCURVE",
"148 637 CURVE SMOOTH",
"148 230 LINE SMOOTH",
"148 185 OFFCURVE",
"157 145 OFFCURVE",
"174 108 CURVE SMOOTH",
"209 33 OFFCURVE",
"287 -17 OFFCURVE",
"403 -17 CURVE SMOOTH"
);
}
);
width = 769;
}
);
leftKerningGroup = U;
note = Ugrave;
rightKerningGroup = U;
unicode = 00D9;
},
{
glyphname = V;
lastChange = "2017-06-10 11:33:30 +0000";
layers = (
{
layerId = "9ECE4C5B-AE6E-45F8-855F-54F501A6946D";
paths = (
{
closed = 1;
nodes = (
"410 -17 LINE",
"612 599 LINE SMOOTH",
"623 631 OFFCURVE",
"639 660 OFFCURVE",
"687 660 CURVE SMOOTH",
"726 660 LINE",
"726 691 LINE",
"464 691 LINE",
"464 660 LINE",
"518 660 LINE SMOOTH",
"554 660 OFFCURVE",
"566 638 OFFCURVE",
"566 612 CURVE SMOOTH",
"566 589 OFFCURVE",
"561 563 OFFCURVE",
"552 535 CURVE SMOOTH",
"416 113 LINE",
"237 614 LINE",
"234 621 OFFCURVE",
"233 629 OFFCURVE",
"233 635 CURVE SMOOTH",
"233 648 OFFCURVE",
"248 660 OFFCURVE",
"266 660 CURVE SMOOTH",
"338 660 LINE",
"338 691 LINE",
"43 691 LINE",
"43 660 LINE",
"120 660 LINE SMOOTH",
"140 660 OFFCURVE",
"156 652 OFFCURVE",
"166 625 CURVE SMOOTH",
"397 -17 LINE"
);
}
);
width = 749;
},
{
layerId = "6701A4D5-8A3D-41DD-8AA0-CFF5D98C5FFE";
paths = (
{
closed = 1;
nodes = (
"414 -17 LINE",
"602 566 LINE SMOOTH",
"623 630 OFFCURVE",
"656 660 OFFCURVE",
"698 660 CURVE SMOOTH",
"728 660 LINE",
"728 691 LINE",
"466 691 LINE",
"466 660 LINE",
"513 660 LINE SMOOTH",
"549 660 OFFCURVE",
"568 629 OFFCURVE",
"568 599 CURVE SMOOTH",
"568 588 OFFCURVE",
"566 573 OFFCURVE",
"561 555 CURVE SMOOTH",
"452 222 LINE",
"315 614 LINE",
"312 621 OFFCURVE",
"311 629 OFFCURVE",
"311 635 CURVE SMOOTH",
"311 648 OFFCURVE",
"325 660 OFFCURVE",
"344 660 CURVE SMOOTH",
"388 660 LINE",
"388 691 LINE",
"45 691 LINE",
"45 660 LINE",
"70 660 LINE SMOOTH",
"115 660 OFFCURVE",
"135 644 OFFCURVE",
"151 599 CURVE SMOOTH",
"367 -17 LINE"
);
}
);
width = 749;
}
);
leftKerningGroup = V;
note = V;
rightKerningGroup = V;
unicode = 0056;
},
{
glyphname = W;
lastChange = "2017-06-10 11:33:30 +0000";
layers = (
{
layerId = "9ECE4C5B-AE6E-45F8-855F-54F501A6946D";
paths = (
{
closed = 1;
nodes = (
"348 -17 LINE",
"506 549 LINE",
"665 -17 LINE",
"681 -17 LINE",
"889 599 LINE SMOOTH",
"900 631 OFFCURVE",
"916 660 OFFCURVE",
"961 660 CURVE SMOOTH",
"1009 660 LINE",
"1009 691 LINE",
"748 691 LINE",
"748 660 LINE",
"771 660 LINE SMOOTH",
"814 660 OFFCURVE",
"843 645 OFFCURVE",
"843 623 CURVE SMOOTH",
"843 589 OFFCURVE",
"840 585 OFFCURVE",
"828 536 CURVE",
"690 119 LINE",
"569 562 LINE",
"563 575 OFFCURVE",
"561 587 OFFCURVE",
"561 597 CURVE SMOOTH",
"561 641 OFFCURVE",
"579 660 OFFCURVE",
"620 660 CURVE SMOOTH",
"652 660 LINE",
"652 691 LINE",
"383 691 LINE",
"383 660 LINE",
"418 660 LINE SMOOTH",
"437 660 OFFCURVE",
"477 652 OFFCURVE",
"482 636 CURVE SMOOTH",
"485 625 LINE",
"352 135 LINE",
"220 621 LINE",
"217 630 OFFCURVE",
"216 638 OFFCURVE",
"216 640 CURVE SMOOTH",
"216 650 OFFCURVE",
"234 660 OFFCURVE",
"250 660 CURVE SMOOTH",
"309 660 LINE",
"309 691 LINE",
"37 691 LINE",
"37 660 LINE",
"120 660 LINE SMOOTH",
"134 660 OFFCURVE",
"148 654 OFFCURVE",
"158 629 CURVE",
"334 -17 LINE"
);
}
);
width = 1033;
},
{
layerId = "6701A4D5-8A3D-41DD-8AA0-CFF5D98C5FFE";
paths = (
{
closed = 1;
nodes = (
"403 -17 LINE",
"544 460 LINE",
"703 -17 LINE",
"747 -17 LINE",
"905 566 LINE SMOOTH",
"923 631 OFFCURVE",
"958 660 OFFCURVE",
"1001 660 CURVE SMOOTH",
"1028 660 LINE",
"1028 691 LINE",
"766 691 LINE",
"766 660 LINE",
"819 660 LINE SMOOTH",
"854 660 OFFCURVE",
"867 629 OFFCURVE",
"867 600 CURVE SMOOTH",
"867 588 OFFCURVE",
"862 556 OFFCURVE",
"861 554 CURVE",
"781 251 LINE",
"658 618 LINE",
"657 625 OFFCURVE",
"656 631 OFFCURVE",
"656 637 CURVE SMOOTH",
"656 647 OFFCURVE",
"668 660 OFFCURVE",
"682 660 CURVE SMOOTH",
"733 660 LINE",
"733 691 LINE",
"407 691 LINE",
"407 660 LINE",
"419 660 LINE SMOOTH",
"466 660 OFFCURVE",
"482 645 OFFCURVE",
"498 597 CURVE SMOOTH",
"523 524 LINE",
"438 243 LINE",
"318 598 LINE SMOOTH",
"315 607 OFFCURVE",
"313 615 OFFCURVE",
"313 624 CURVE SMOOTH",
"313 644 OFFCURVE",
"323 660 OFFCURVE",
"342 660 CURVE SMOOTH",
"365 660 LINE",
"365 691 LINE",
"43 691 LINE",
"43 660 LINE",
"50 660 LINE SMOOTH",
"111 660 OFFCURVE",
"136 637 OFFCURVE",
"151 592 CURVE SMOOTH",
"357 -17 LINE"
);
}
);
width = 1046;
}
);
leftKerningGroup = V;
note = W;
rightKerningGroup = V;
unicode = 0057;
},
{
glyphname = X;
lastChange = "2017-06-10 11:33:30 +0000";
layers = (
{
layerId = "9ECE4C5B-AE6E-45F8-855F-54F501A6946D";
paths = (
{
closed = 1;
nodes = (
"312 0 LINE",
"312 31 LINE",
"254 31 LINE SMOOTH",
"231 31 OFFCURVE",
"219 50 OFFCURVE",
"219 74 CURVE SMOOTH",
"219 90 OFFCURVE",
"227 111 OFFCURVE",
"243 135 CURVE SMOOTH",
"365 321 LINE",
"505 62 LINE SMOOTH",
"507 59 OFFCURVE",
"510 49 OFFCURVE",
"510 43 CURVE SMOOTH",
"510 38 OFFCURVE",
"503 31 OFFCURVE",
"487 31 CURVE SMOOTH",
"414 31 LINE",
"414 0 LINE",
"702 0 LINE",
"702 31 LINE",
"619 31 LINE SMOOTH",
"595 31 OFFCURVE",
"587 39 OFFCURVE",
"570 69 CURVE SMOOTH",
"400 376 LINE",
"559 612 LINE SMOOTH",
"581 646 OFFCURVE",
"605 660 OFFCURVE",
"644 660 CURVE SMOOTH",
"696 660 LINE",
"696 691 LINE",
"425 691 LINE",
"425 660 LINE",
"456 660 LINE SMOOTH",
"484 660 OFFCURVE",
"505 643 OFFCURVE",
"505 621 CURVE SMOOTH",
"505 603 OFFCURVE",
"498 585 OFFCURVE",
"484 564 CURVE SMOOTH",
"384 414 LINE",
"267 628 LINE",
"262 635 OFFCURVE",
"259 644 OFFCURVE",
"259 652 CURVE SMOOTH",
"259 658 OFFCURVE",
"262 660 OFFCURVE",
"274 660 CURVE SMOOTH",
"352 660 LINE",
"352 691 LINE",
"54 691 LINE",
"54 660 LINE",
"137 660 LINE SMOOTH",
"180 660 OFFCURVE",
"189 647 OFFCURVE",
"210 609 CURVE SMOOTH",
"345 358 LINE",
"169 96 LINE SMOOTH",
"141 54 OFFCURVE",
"117 31 OFFCURVE",
"75 31 CURVE SMOOTH",
"45 31 LINE",
"45 0 LINE"
);
}
);
width = 728;
},
{
layerId = "6701A4D5-8A3D-41DD-8AA0-CFF5D98C5FFE";
paths = (
{
closed = 1;
nodes = (
"301 0 LINE",
"301 31 LINE",
"260 31 LINE SMOOTH",
"237 31 OFFCURVE",
"225 50 OFFCURVE",
"225 74 CURVE SMOOTH",
"225 90 OFFCURVE",
"233 111 OFFCURVE",
"249 135 CURVE SMOOTH",
"337 267 LINE",
"424 107 LINE SMOOTH",
"433 92 OFFCURVE",
"437 81 OFFCURVE",
"437 70 CURVE SMOOTH",
"437 45 OFFCURVE",
"425 31 OFFCURVE",
"406 31 CURVE SMOOTH",
"381 31 LINE",
"381 0 LINE",
"708 0 LINE",
"708 31 LINE",
"700 31 LINE SMOOTH",
"669 31 OFFCURVE",
"636 49 OFFCURVE",
"616 84 CURVE SMOOTH",
"437 418 LINE",
"565 612 LINE SMOOTH",
"587 646 OFFCURVE",
"611 660 OFFCURVE",
"650 660 CURVE SMOOTH",
"675 660 LINE",
"675 691 LINE",
"434 691 LINE",
"434 660 LINE",
"462 660 LINE SMOOTH",
"489 660 OFFCURVE",
"503 638 OFFCURVE",
"503 616 CURVE SMOOTH",
"503 596 OFFCURVE",
"499 578 OFFCURVE",
"489 564 CURVE SMOOTH",
"417 454 LINE",
"337 601 LINE",
"332 613 OFFCURVE",
"329 622 OFFCURVE",
"329 629 CURVE SMOOTH",
"329 648 OFFCURVE",
"344 660 OFFCURVE",
"355 660 CURVE SMOOTH",
"366 660 LINE",
"366 691 LINE",
"60 691 LINE",
"60 660 LINE",
"64 660 LINE SMOOTH",
"107 660 OFFCURVE",
"136 640 OFFCURVE",
"153 609 CURVE SMOOTH",
"319 305 LINE",
"181 96 LINE SMOOTH",
"155 57 OFFCURVE",
"123 31 OFFCURVE",
"81 31 CURVE SMOOTH",
"50 31 LINE",
"50 0 LINE"
);
}
);
width = 728;
}
);
leftKerningGroup = X;
note = X;
rightKerningGroup = X;
unicode = 0058;
},
{
glyphname = Y;
lastChange = "2017-06-10 11:33:30 +0000";
layers = (
{
layerId = "9ECE4C5B-AE6E-45F8-855F-54F501A6946D";
paths = (
{
closed = 1;
nodes = (
"555 0 LINE",
"555 31 LINE",
"445 31 LINE SMOOTH",
"428 31 OFFCURVE",
"418 42 OFFCURVE",
"418 59 CURVE SMOOTH",
"418 356 LINE",
"562 589 LINE SMOOTH",
"590 635 OFFCURVE",
"608 660 OFFCURVE",
"650 660 CURVE SMOOTH",
"676 660 LINE",
"676 691 LINE",
"435 691 LINE",
"435 660 LINE",
"466 660 LINE SMOOTH",
"502 660 OFFCURVE",
"520 637 OFFCURVE",
"520 606 CURVE SMOOTH",
"520 592 OFFCURVE",
"508 547 OFFCURVE",
"501 545 CURVE",
"396 372 LINE",
"230 621 LINE SMOOTH",
"228 624 OFFCURVE",
"226 631 OFFCURVE",
"226 638 CURVE SMOOTH",
"226 653 OFFCURVE",
"244 660 OFFCURVE",
"263 660 CURVE SMOOTH",
"339 660 LINE",
"339 691 LINE",
"41 691 LINE",
"41 660 LINE",
"100 660 LINE SMOOTH",
"125 660 OFFCURVE",
"134 651 OFFCURVE",
"158 618 CURVE SMOOTH",
"359 333 LINE",
"359 59 LINE SMOOTH",
"359 42 OFFCURVE",
"348 31 OFFCURVE",
"330 31 CURVE SMOOTH",
"220 31 LINE",
"220 0 LINE"
);
}
);
width = 701;
},
{
layerId = "6701A4D5-8A3D-41DD-8AA0-CFF5D98C5FFE";
paths = (
{
closed = 1;
nodes = (
"525 0 LINE",
"525 31 LINE",
"471 31 LINE SMOOTH",
"454 31 OFFCURVE",
"448 37 OFFCURVE",
"448 53 CURVE SMOOTH",
"447 255 LINE",
"576 589 LINE SMOOTH",
"591 627 OFFCURVE",
"621 660 OFFCURVE",
"665 660 CURVE SMOOTH",
"695 660 LINE",
"695 691 LINE",
"454 691 LINE",
"454 660 LINE",
"481 660 LINE SMOOTH",
"517 660 OFFCURVE",
"533 630 OFFCURVE",
"533 599 CURVE SMOOTH",
"533 583 OFFCURVE",
"529 569 OFFCURVE",
"520 545 CURVE SMOOTH",
"433 315 LINE",
"312 598 LINE SMOOTH",
"308 607 OFFCURVE",
"306 616 OFFCURVE",
"306 628 CURVE SMOOTH",
"306 643 OFFCURVE",
"313 660 OFFCURVE",
"331 660 CURVE SMOOTH",
"350 660 LINE",
"350 691 LINE",
"45 691 LINE",
"45 660 LINE",
"75 660 LINE SMOOTH",
"102 660 OFFCURVE",
"117 649 OFFCURVE",
"131 617 CURVE SMOOTH",
"290 249 LINE",
"290 53 LINE SMOOTH",
"290 37 OFFCURVE",
"287 31 OFFCURVE",
"268 31 CURVE SMOOTH",
"214 31 LINE",
"214 0 LINE"
);
}
);
width = 716;
}
);
leftKerningGroup = Y;
note = Y;
rightKerningGroup = Y;
unicode = 0059;
},
{
glyphname = Yacute;
lastChange = "2017-06-10 11:33:30 +0000";
layers = (
{
layerId = "9ECE4C5B-AE6E-45F8-855F-54F501A6946D";
paths = (
{
closed = 1;
nodes = (
"487 839 LINE SMOOTH",
"504 853 OFFCURVE",
"513 867 OFFCURVE",
"513 880 CURVE SMOOTH",
"513 895 OFFCURVE",
"506 905 OFFCURVE",
"495 905 CURVE SMOOTH",
"476 905 OFFCURVE",
"464 897 OFFCURVE",
"447 873 CURVE SMOOTH",
"355 747 LINE",
"364 741 LINE"
);
},
{
closed = 1;
nodes = (
"555 0 LINE",
"555 31 LINE",
"445 31 LINE SMOOTH",
"428 31 OFFCURVE",
"418 42 OFFCURVE",
"418 59 CURVE SMOOTH",
"418 356 LINE",
"562 589 LINE SMOOTH",
"590 635 OFFCURVE",
"608 660 OFFCURVE",
"650 660 CURVE SMOOTH",
"676 660 LINE",
"676 691 LINE",
"435 691 LINE",
"435 660 LINE",
"466 660 LINE SMOOTH",
"502 660 OFFCURVE",
"520 637 OFFCURVE",
"520 606 CURVE SMOOTH",
"520 592 OFFCURVE",
"508 547 OFFCURVE",
"501 545 CURVE",
"396 372 LINE",
"230 621 LINE SMOOTH",
"228 624 OFFCURVE",
"226 631 OFFCURVE",
"226 638 CURVE SMOOTH",
"226 653 OFFCURVE",
"244 660 OFFCURVE",
"263 660 CURVE SMOOTH",
"339 660 LINE",
"339 691 LINE",
"41 691 LINE",
"41 660 LINE",
"100 660 LINE SMOOTH",
"125 660 OFFCURVE",
"134 651 OFFCURVE",
"158 618 CURVE SMOOTH",
"359 333 LINE",
"359 59 LINE SMOOTH",
"359 42 OFFCURVE",
"348 31 OFFCURVE",
"330 31 CURVE SMOOTH",
"220 31 LINE",
"220 0 LINE"
);
}
);
width = 701;
},
{
layerId = "6701A4D5-8A3D-41DD-8AA0-CFF5D98C5FFE";
paths = (
{
closed = 1;
nodes = (
"511 833 LINE SMOOTH",
"531 847 OFFCURVE",
"538 862 OFFCURVE",
"538 881 CURVE SMOOTH",
"538 906 OFFCURVE",
"519 923 OFFCURVE",
"494 923 CURVE SMOOTH",
"475 923 OFFCURVE",
"461 915 OFFCURVE",
"446 892 CURVE SMOOTH",
"361 757 LINE",
"382 736 LINE"
);
},
{
closed = 1;
nodes = (
"525 0 LINE",
"525 31 LINE",
"471 31 LINE SMOOTH",
"454 31 OFFCURVE",
"448 37 OFFCURVE",
"448 53 CURVE SMOOTH",
"447 255 LINE",
"576 589 LINE SMOOTH",
"591 627 OFFCURVE",
"621 660 OFFCURVE",
"665 660 CURVE SMOOTH",
"695 660 LINE",
"695 691 LINE",
"454 691 LINE",
"454 660 LINE",
"481 660 LINE SMOOTH",
"517 660 OFFCURVE",
"533 630 OFFCURVE",
"533 599 CURVE SMOOTH",
"533 583 OFFCURVE",
"529 569 OFFCURVE",
"520 545 CURVE SMOOTH",
"433 315 LINE",
"312 598 LINE SMOOTH",
"308 607 OFFCURVE",
"306 616 OFFCURVE",
"306 628 CURVE SMOOTH",
"306 643 OFFCURVE",
"313 660 OFFCURVE",
"331 660 CURVE SMOOTH",
"350 660 LINE",
"350 691 LINE",
"45 691 LINE",
"45 660 LINE",
"75 660 LINE SMOOTH",
"102 660 OFFCURVE",
"117 649 OFFCURVE",
"131 617 CURVE SMOOTH",
"290 249 LINE",
"290 53 LINE SMOOTH",
"290 37 OFFCURVE",
"287 31 OFFCURVE",
"268 31 CURVE SMOOTH",
"214 31 LINE",
"214 0 LINE"
);
}
);
width = 716;
}
);
leftKerningGroup = Y;
note = Yacute;
rightKerningGroup = Y;
unicode = 00DD;
},
{
glyphname = Z;
lastChange = "2017-06-10 11:33:30 +0000";
layers = (
{
layerId = "9ECE4C5B-AE6E-45F8-855F-54F501A6946D";
paths = (
{
closed = 1;
nodes = (
"572 0 LINE",
"588 303 LINE",
"568 303 LINE",
"568 303 OFFCURVE",
"571 319 OFFCURVE",
"572 310 CURVE SMOOTH",
"588 180 OFFCURVE",
"495 31 OFFCURVE",
"369 31 CURVE SMOOTH",
"141 31 LINE",
"570 662 LINE",
"570 691 LINE",
"116 691 LINE",
"85 442 LINE",
"107 442 LINE",
"107 445 OFFCURVE",
"110 456 OFFCURVE",
"115 478 CURVE SMOOTH",
"137 571 OFFCURVE",
"192 660 OFFCURVE",
"285 660 CURVE SMOOTH",
"502 660 LINE",
"66 31 LINE",
"66 0 LINE"
);
}
);
width = 632;
},
{
layerId = "6701A4D5-8A3D-41DD-8AA0-CFF5D98C5FFE";
paths = (
{
closed = 1;
nodes = (
"572 0 LINE",
"588 269 LINE",
"555 269 LINE",
"555 260 OFFCURVE",
"538 183 OFFCURVE",
"509 134 CURVE SMOOTH",
"476 79 OFFCURVE",
"419 31 OFFCURVE",
"362 31 CURVE SMOOTH",
"245 31 LINE",
"570 657 LINE",
"570 691 LINE",
"94 691 LINE",
"85 442 LINE",
"118 442 LINE",
"118 445 OFFCURVE",
"119 456 OFFCURVE",
"123 472 CURVE SMOOTH",
"140 541 OFFCURVE",
"207 660 OFFCURVE",
"285 660 CURVE SMOOTH",
"391 660 LINE",
"66 31 LINE",
"66 0 LINE"
);
}
);
width = 632;
}
);
note = Z;
unicode = 005A;
},
{
glyphname = a;
lastChange = "2017-06-10 11:33:30 +0000";
layers = (
{
layerId = "9ECE4C5B-AE6E-45F8-855F-54F501A6946D";
paths = (
{
closed = 1;
nodes = (
"234 -12 OFFCURVE",
"287 56 OFFCURVE",
"301 106 CURVE",
"308 103 LINE",
"302 35 OFFCURVE",
"332 -12 OFFCURVE",
"388 -12 CURVE SMOOTH",
"437 -12 OFFCURVE",
"456 49 OFFCURVE",
"456 123 CURVE",
"443 123 LINE",
"443 67 OFFCURVE",
"429 26 OFFCURVE",
"392 26 CURVE SMOOTH",
"366 26 OFFCURVE",
"356 46 OFFCURVE",
"356 83 CURVE SMOOTH",
"356 316 LINE SMOOTH",
"356 402 OFFCURVE",
"290 444 OFFCURVE",
"208 444 CURVE SMOOTH",
"187 444 OFFCURVE",
"168 440 OFFCURVE",
"147 432 CURVE SMOOTH",
"107 417 OFFCURVE",
"81 382 OFFCURVE",
"81 337 CURVE SMOOTH",
"81 295 OFFCURVE",
"109 272 OFFCURVE",
"134 272 CURVE SMOOTH",
"156 272 OFFCURVE",
"172 278 OFFCURVE",
"172 303 CURVE SMOOTH",
"172 324 OFFCURVE",
"155 334 OFFCURVE",
"131 338 CURVE",
"124 339 OFFCURVE",
"111 339 OFFCURVE",
"111 360 CURVE SMOOTH",
"111 389 OFFCURVE",
"162 421 OFFCURVE",
"211 421 CURVE SMOOTH",
"281 421 OFFCURVE",
"311 391 OFFCURVE",
"311 332 CURVE SMOOTH",
"311 241 LINE",
"211 231 LINE SMOOTH",
"150 225 OFFCURVE",
"45 220 OFFCURVE",
"45 103 CURVE SMOOTH",
"45 15 OFFCURVE",
"102 -12 OFFCURVE",
"170 -12 CURVE SMOOTH"
);
},
{
closed = 1;
nodes = (
"135 21 OFFCURVE",
"106 36 OFFCURVE",
"106 93 CURVE SMOOTH",
"106 162 OFFCURVE",
"136 194 OFFCURVE",
"208 207 CURVE SMOOTH",
"311 225 LINE",
"311 188 LINE",
"278 93 OFFCURVE",
"244 21 OFFCURVE",
"168 21 CURVE SMOOTH"
);
}
);
width = 473;
},
{
layerId = "6701A4D5-8A3D-41DD-8AA0-CFF5D98C5FFE";
paths = (
{
closed = 1;
nodes = (
"217 -12 OFFCURVE",
"250 -2 OFFCURVE",
"278 30 CURVE",
"279 31 LINE",
"302 -2 OFFCURVE",
"323 -12 OFFCURVE",
"375 -12 CURVE SMOOTH",
"453 -12 OFFCURVE",
"476 49 OFFCURVE",
"476 132 CURVE",
"447 132 LINE",
"447 83 OFFCURVE",
"436 37 OFFCURVE",
"414 37 CURVE SMOOTH",
"405 37 OFFCURVE",
"398 47 OFFCURVE",
"398 68 CURVE SMOOTH",
"398 315 LINE SMOOTH",
"398 428 OFFCURVE",
"313 476 OFFCURVE",
"219 476 CURVE SMOOTH",
"194 476 OFFCURVE",
"170 471 OFFCURVE",
"146 461 CURVE SMOOTH",
"99 441 OFFCURVE",
"65 400 OFFCURVE",
"65 349 CURVE SMOOTH",
"65 307 OFFCURVE",
"92 283 OFFCURVE",
"127 283 CURVE SMOOTH",
"155 283 OFFCURVE",
"184 304 OFFCURVE",
"184 336 CURVE SMOOTH",
"184 356 OFFCURVE",
"178 368 OFFCURVE",
"159 380 CURVE",
"147 389 OFFCURVE",
"145 404 OFFCURVE",
"145 410 CURVE SMOOTH",
"145 438 OFFCURVE",
"173 453 OFFCURVE",
"206 453 CURVE SMOOTH",
"244 453 OFFCURVE",
"274 425 OFFCURVE",
"274 358 CURVE SMOOTH",
"274 295 LINE",
"207 269 LINE SMOOTH",
"107 230 OFFCURVE",
"45 182 OFFCURVE",
"45 103 CURVE SMOOTH",
"45 21 OFFCURVE",
"102 -12 OFFCURVE",
"174 -12 CURVE SMOOTH"
);
},
{
closed = 1;
nodes = (
"199 28 OFFCURVE",
"173 51 OFFCURVE",
"173 115 CURVE SMOOTH",
"173 188 OFFCURVE",
"190 233 OFFCURVE",
"228 249 CURVE SMOOTH",
"274 268 LINE",
"274 50 LINE",
"263 34 OFFCURVE",
"245 28 OFFCURVE",
"229 28 CURVE SMOOTH"
);
}
);
width = 496;
}
);
leftKerningGroup = a;
note = a;
rightKerningGroup = a;
unicode = 0061;
},
{
glyphname = aacute;
lastChange = "2017-06-10 11:33:30 +0000";
layers = (
{
layerId = "9ECE4C5B-AE6E-45F8-855F-54F501A6946D";
paths = (
{
closed = 1;
nodes = (
"337 583 LINE SMOOTH",
"354 597 OFFCURVE",
"363 611 OFFCURVE",
"363 623 CURVE SMOOTH",
"363 639 OFFCURVE",
"355 648 OFFCURVE",
"344 648 CURVE SMOOTH",
"325 648 OFFCURVE",
"314 643 OFFCURVE",
"296 617 CURVE SMOOTH",
"205 491 LINE",
"214 484 LINE"
);
},
{
closed = 1;
nodes = (
"234 -12 OFFCURVE",
"287 56 OFFCURVE",
"301 106 CURVE",
"308 103 LINE",
"302 35 OFFCURVE",
"332 -12 OFFCURVE",
"388 -12 CURVE SMOOTH",
"437 -12 OFFCURVE",
"456 49 OFFCURVE",
"456 123 CURVE",
"443 123 LINE",
"443 67 OFFCURVE",
"429 26 OFFCURVE",
"392 26 CURVE SMOOTH",
"366 26 OFFCURVE",
"356 46 OFFCURVE",
"356 83 CURVE SMOOTH",
"356 316 LINE SMOOTH",
"356 402 OFFCURVE",
"290 444 OFFCURVE",
"208 444 CURVE SMOOTH",
"187 444 OFFCURVE",
"168 440 OFFCURVE",
"147 432 CURVE SMOOTH",
"107 417 OFFCURVE",
"81 382 OFFCURVE",
"81 337 CURVE SMOOTH",
"81 295 OFFCURVE",
"109 272 OFFCURVE",
"134 272 CURVE SMOOTH",
"156 272 OFFCURVE",
"172 278 OFFCURVE",
"172 303 CURVE SMOOTH",
"172 320 OFFCURVE",
"162 330 OFFCURVE",
"118 345 CURVE",
"115 346 OFFCURVE",
"111 345 OFFCURVE",
"111 360 CURVE SMOOTH",
"111 389 OFFCURVE",
"162 421 OFFCURVE",
"211 421 CURVE SMOOTH",
"281 421 OFFCURVE",
"311 391 OFFCURVE",
"311 332 CURVE SMOOTH",
"311 241 LINE",
"211 231 LINE SMOOTH",
"150 225 OFFCURVE",
"45 220 OFFCURVE",
"45 103 CURVE SMOOTH",
"45 15 OFFCURVE",
"102 -12 OFFCURVE",
"170 -12 CURVE SMOOTH"
);
},
{
closed = 1;
nodes = (
"135 21 OFFCURVE",
"106 36 OFFCURVE",
"106 93 CURVE SMOOTH",
"106 162 OFFCURVE",
"136 194 OFFCURVE",
"208 207 CURVE SMOOTH",
"311 225 LINE",
"311 188 LINE",
"278 93 OFFCURVE",
"244 21 OFFCURVE",
"168 21 CURVE SMOOTH"
);
}
);
width = 473;
},
{
layerId = "6701A4D5-8A3D-41DD-8AA0-CFF5D98C5FFE";
paths = (
{
closed = 1;
nodes = (
"329 609 LINE SMOOTH",
"347 623 OFFCURVE",
"356 638 OFFCURVE",
"356 657 CURVE SMOOTH",
"356 681 OFFCURVE",
"338 698 OFFCURVE",
"311 698 CURVE SMOOTH",
"294 698 OFFCURVE",
"278 689 OFFCURVE",
"264 667 CURVE SMOOTH",
"178 532 LINE",
"200 512 LINE"
);
},
{
closed = 1;
nodes = (
"217 -12 OFFCURVE",
"250 -2 OFFCURVE",
"278 30 CURVE",
"279 31 LINE",
"302 -2 OFFCURVE",
"323 -12 OFFCURVE",
"375 -12 CURVE SMOOTH",
"453 -12 OFFCURVE",
"476 49 OFFCURVE",
"476 132 CURVE",
"447 132 LINE",
"447 83 OFFCURVE",
"436 37 OFFCURVE",
"414 37 CURVE SMOOTH",
"405 37 OFFCURVE",
"398 47 OFFCURVE",
"398 68 CURVE SMOOTH",
"398 315 LINE SMOOTH",
"398 428 OFFCURVE",
"313 476 OFFCURVE",
"219 476 CURVE SMOOTH",
"194 476 OFFCURVE",
"170 471 OFFCURVE",
"146 461 CURVE SMOOTH",
"99 441 OFFCURVE",
"65 400 OFFCURVE",
"65 349 CURVE SMOOTH",
"65 307 OFFCURVE",
"92 283 OFFCURVE",
"127 283 CURVE SMOOTH",
"155 283 OFFCURVE",
"184 304 OFFCURVE",
"184 336 CURVE SMOOTH",
"184 356 OFFCURVE",
"177 369 OFFCURVE",
"161 379 CURVE",
"149 388 OFFCURVE",
"145 403 OFFCURVE",
"145 410 CURVE SMOOTH",
"145 438 OFFCURVE",
"173 453 OFFCURVE",
"206 453 CURVE SMOOTH",
"244 453 OFFCURVE",
"274 425 OFFCURVE",
"274 358 CURVE SMOOTH",
"274 295 LINE",
"207 269 LINE SMOOTH",
"107 230 OFFCURVE",
"45 182 OFFCURVE",
"45 103 CURVE SMOOTH",
"45 21 OFFCURVE",
"102 -12 OFFCURVE",
"174 -12 CURVE SMOOTH"
);
},
{
closed = 1;
nodes = (
"199 28 OFFCURVE",
"173 51 OFFCURVE",
"173 115 CURVE SMOOTH",
"173 188 OFFCURVE",
"190 233 OFFCURVE",
"228 249 CURVE SMOOTH",
"274 268 LINE",
"274 50 LINE",
"263 34 OFFCURVE",
"245 28 OFFCURVE",
"229 28 CURVE SMOOTH"
);
}
);
width = 496;
}
);
leftKerningGroup = a;
note = aacute;
rightKerningGroup = a;
unicode = 00E1;
},
{
glyphname = acircumflex;
lastChange = "2017-06-10 11:33:30 +0000";
layers = (
{
layerId = "9ECE4C5B-AE6E-45F8-855F-54F501A6946D";
paths = (
{
closed = 1;
nodes = (
"149 506 OFFCURVE",
"181 532 OFFCURVE",
"219 572 CURVE",
"255 533 OFFCURVE",
"287 508 OFFCURVE",
"332 485 CURVE",
"335 490 LINE",
"297 517 OFFCURVE",
"256 565 OFFCURVE",
"231 632 CURVE",
"207 632 LINE",
"183 565 OFFCURVE",
"142 517 OFFCURVE",
"102 490 CURVE",
"108 485 LINE"
);
},
{
closed = 1;
nodes = (
"234 -12 OFFCURVE",
"287 56 OFFCURVE",
"301 106 CURVE",
"308 103 LINE",
"302 35 OFFCURVE",
"332 -12 OFFCURVE",
"388 -12 CURVE SMOOTH",
"437 -12 OFFCURVE",
"456 49 OFFCURVE",
"456 123 CURVE",
"443 123 LINE",
"443 67 OFFCURVE",
"429 26 OFFCURVE",
"392 26 CURVE SMOOTH",
"366 26 OFFCURVE",
"356 46 OFFCURVE",
"356 83 CURVE SMOOTH",
"356 316 LINE SMOOTH",
"356 402 OFFCURVE",
"290 444 OFFCURVE",
"208 444 CURVE SMOOTH",
"187 444 OFFCURVE",
"168 440 OFFCURVE",
"147 432 CURVE SMOOTH",
"107 417 OFFCURVE",
"81 382 OFFCURVE",
"81 337 CURVE SMOOTH",
"81 295 OFFCURVE",
"109 272 OFFCURVE",
"134 272 CURVE SMOOTH",
"156 272 OFFCURVE",
"172 278 OFFCURVE",
"172 303 CURVE SMOOTH",
"172 324 OFFCURVE",
"155 334 OFFCURVE",
"131 338 CURVE",
"124 339 OFFCURVE",
"111 339 OFFCURVE",
"111 360 CURVE SMOOTH",
"111 389 OFFCURVE",
"162 421 OFFCURVE",
"211 421 CURVE SMOOTH",
"281 421 OFFCURVE",
"311 391 OFFCURVE",
"311 332 CURVE SMOOTH",
"311 241 LINE",
"211 231 LINE SMOOTH",
"150 225 OFFCURVE",
"45 220 OFFCURVE",
"45 103 CURVE SMOOTH",
"45 15 OFFCURVE",
"102 -12 OFFCURVE",
"170 -12 CURVE SMOOTH"
);
},
{
closed = 1;
nodes = (
"135 21 OFFCURVE",
"106 36 OFFCURVE",
"106 93 CURVE SMOOTH",
"106 162 OFFCURVE",
"136 194 OFFCURVE",
"208 207 CURVE SMOOTH",
"311 225 LINE",
"311 188 LINE",
"278 93 OFFCURVE",
"244 21 OFFCURVE",
"168 21 CURVE SMOOTH"
);
}
);
width = 473;
},
{
layerId = "6701A4D5-8A3D-41DD-8AA0-CFF5D98C5FFE";
paths = (
{
closed = 1;
nodes = (
"140 535 OFFCURVE",
"196 575 OFFCURVE",
"226 606 CURVE",
"256 575 OFFCURVE",
"313 535 OFFCURVE",
"359 512 CURVE",
"377 539 LINE",
"308 582 OFFCURVE",
"284 634 OFFCURVE",
"263 696 CURVE",
"190 696 LINE",
"168 634 OFFCURVE",
"146 582 OFFCURVE",
"76 539 CURVE",
"93 512 LINE"
);
},
{
closed = 1;
nodes = (
"217 -12 OFFCURVE",
"250 -2 OFFCURVE",
"278 30 CURVE",
"279 31 LINE",
"302 -2 OFFCURVE",
"323 -12 OFFCURVE",
"375 -12 CURVE SMOOTH",
"453 -12 OFFCURVE",
"476 49 OFFCURVE",
"476 132 CURVE",
"447 132 LINE",
"447 83 OFFCURVE",
"436 37 OFFCURVE",
"414 37 CURVE SMOOTH",
"405 37 OFFCURVE",
"398 47 OFFCURVE",
"398 68 CURVE SMOOTH",
"398 315 LINE SMOOTH",
"398 428 OFFCURVE",
"313 476 OFFCURVE",
"219 476 CURVE SMOOTH",
"194 476 OFFCURVE",
"170 471 OFFCURVE",
"146 461 CURVE SMOOTH",
"99 441 OFFCURVE",
"65 400 OFFCURVE",
"65 349 CURVE SMOOTH",
"65 307 OFFCURVE",
"92 283 OFFCURVE",
"127 283 CURVE SMOOTH",
"155 283 OFFCURVE",
"184 304 OFFCURVE",
"184 336 CURVE SMOOTH",
"184 356 OFFCURVE",
"178 368 OFFCURVE",
"159 380 CURVE",
"147 389 OFFCURVE",
"145 404 OFFCURVE",
"145 410 CURVE SMOOTH",
"145 438 OFFCURVE",
"173 453 OFFCURVE",
"206 453 CURVE SMOOTH",
"244 453 OFFCURVE",
"274 425 OFFCURVE",
"274 358 CURVE SMOOTH",
"274 295 LINE",
"207 269 LINE SMOOTH",
"107 230 OFFCURVE",
"45 182 OFFCURVE",
"45 103 CURVE SMOOTH",
"45 21 OFFCURVE",
"102 -12 OFFCURVE",
"174 -12 CURVE SMOOTH"
);
},
{
closed = 1;
nodes = (
"199 28 OFFCURVE",
"173 51 OFFCURVE",
"173 115 CURVE SMOOTH",
"173 188 OFFCURVE",
"190 233 OFFCURVE",
"228 249 CURVE SMOOTH",
"274 268 LINE",
"274 50 LINE",
"263 34 OFFCURVE",
"245 28 OFFCURVE",
"229 28 CURVE SMOOTH"
);
}
);
width = 496;
}
);
leftKerningGroup = abreve;
note = acircumflex;
rightKerningGroup = a;
unicode = 00E2;
},
{
glyphname = adieresis;
lastChange = "2017-06-10 11:33:30 +0000";
layers = (
{
layerId = "9ECE4C5B-AE6E-45F8-855F-54F501A6946D";
paths = (
{
closed = 1;
nodes = (
"151 527 OFFCURVE",
"170 547 OFFCURVE",
"170 566 CURVE SMOOTH",
"170 589 OFFCURVE",
"151 607 OFFCURVE",
"129 607 CURVE SMOOTH",
"109 607 OFFCURVE",
"88 589 OFFCURVE",
"88 566 CURVE SMOOTH",
"88 547 OFFCURVE",
"109 527 OFFCURVE",
"129 527 CURVE SMOOTH"
);
},
{
closed = 1;
nodes = (
"333 527 OFFCURVE",
"349 547 OFFCURVE",
"349 566 CURVE SMOOTH",
"349 589 OFFCURVE",
"333 607 OFFCURVE",
"309 607 CURVE SMOOTH",
"290 607 OFFCURVE",
"269 589 OFFCURVE",
"269 566 CURVE SMOOTH",
"269 547 OFFCURVE",
"290 527 OFFCURVE",
"309 527 CURVE SMOOTH"
);
},
{
closed = 1;
nodes = (
"234 -12 OFFCURVE",
"287 56 OFFCURVE",
"301 106 CURVE",
"308 103 LINE",
"302 35 OFFCURVE",
"332 -12 OFFCURVE",
"388 -12 CURVE SMOOTH",
"437 -12 OFFCURVE",
"456 49 OFFCURVE",
"456 123 CURVE",
"443 123 LINE",
"443 67 OFFCURVE",
"429 26 OFFCURVE",
"392 26 CURVE SMOOTH",
"366 26 OFFCURVE",
"356 46 OFFCURVE",
"356 83 CURVE SMOOTH",
"356 316 LINE SMOOTH",
"356 402 OFFCURVE",
"290 444 OFFCURVE",
"208 444 CURVE SMOOTH",
"187 444 OFFCURVE",
"168 440 OFFCURVE",
"147 432 CURVE SMOOTH",
"107 417 OFFCURVE",
"81 382 OFFCURVE",
"81 337 CURVE SMOOTH",
"81 295 OFFCURVE",
"109 272 OFFCURVE",
"134 272 CURVE SMOOTH",
"156 272 OFFCURVE",
"172 278 OFFCURVE",
"172 303 CURVE SMOOTH",
"172 324 OFFCURVE",
"155 334 OFFCURVE",
"131 338 CURVE",
"124 339 OFFCURVE",
"111 339 OFFCURVE",
"111 360 CURVE SMOOTH",
"111 389 OFFCURVE",
"162 421 OFFCURVE",
"211 421 CURVE SMOOTH",
"281 421 OFFCURVE",
"311 391 OFFCURVE",
"311 332 CURVE SMOOTH",
"311 241 LINE",
"211 231 LINE SMOOTH",
"150 225 OFFCURVE",
"45 220 OFFCURVE",
"45 103 CURVE SMOOTH",
"45 15 OFFCURVE",
"102 -12 OFFCURVE",
"170 -12 CURVE SMOOTH"
);
},
{
closed = 1;
nodes = (
"135 21 OFFCURVE",
"106 36 OFFCURVE",
"106 93 CURVE SMOOTH",
"106 162 OFFCURVE",
"136 194 OFFCURVE",
"208 207 CURVE SMOOTH",
"311 225 LINE",
"311 188 LINE",
"278 93 OFFCURVE",
"244 21 OFFCURVE",
"168 21 CURVE SMOOTH"
);
}
);
width = 473;
},
{
layerId = "6701A4D5-8A3D-41DD-8AA0-CFF5D98C5FFE";
paths = (
{
closed = 1;
nodes = (
"166 543 OFFCURVE",
"193 570 OFFCURVE",
"193 605 CURVE SMOOTH",
"193 638 OFFCURVE",
"166 667 OFFCURVE",
"133 667 CURVE SMOOTH",
"99 667 OFFCURVE",
"72 638 OFFCURVE",
"72 605 CURVE SMOOTH",
"72 570 OFFCURVE",
"99 543 OFFCURVE",
"133 543 CURVE SMOOTH"
);
},
{
closed = 1;
nodes = (
"353 543 OFFCURVE",
"381 570 OFFCURVE",
"381 605 CURVE SMOOTH",
"381 638 OFFCURVE",
"353 667 OFFCURVE",
"320 667 CURVE SMOOTH",
"285 667 OFFCURVE",
"259 638 OFFCURVE",
"259 605 CURVE SMOOTH",
"259 570 OFFCURVE",
"285 543 OFFCURVE",
"320 543 CURVE SMOOTH"
);
},
{
closed = 1;
nodes = (
"217 -12 OFFCURVE",
"250 -2 OFFCURVE",
"278 30 CURVE",
"279 31 LINE",
"302 -2 OFFCURVE",
"323 -12 OFFCURVE",
"375 -12 CURVE SMOOTH",
"453 -12 OFFCURVE",
"476 49 OFFCURVE",
"476 132 CURVE",
"447 132 LINE",
"447 83 OFFCURVE",
"436 37 OFFCURVE",
"414 37 CURVE SMOOTH",
"405 37 OFFCURVE",
"398 47 OFFCURVE",
"398 68 CURVE SMOOTH",
"398 315 LINE SMOOTH",
"398 428 OFFCURVE",
"313 476 OFFCURVE",
"219 476 CURVE SMOOTH",
"194 476 OFFCURVE",
"170 471 OFFCURVE",
"146 461 CURVE SMOOTH",
"99 441 OFFCURVE",
"65 400 OFFCURVE",
"65 349 CURVE SMOOTH",
"65 307 OFFCURVE",
"92 283 OFFCURVE",
"127 283 CURVE SMOOTH",
"155 283 OFFCURVE",
"184 304 OFFCURVE",
"184 336 CURVE SMOOTH",
"184 356 OFFCURVE",
"178 368 OFFCURVE",
"159 380 CURVE",
"147 389 OFFCURVE",
"145 404 OFFCURVE",
"145 410 CURVE SMOOTH",
"145 438 OFFCURVE",
"173 453 OFFCURVE",
"206 453 CURVE SMOOTH",
"244 453 OFFCURVE",
"274 425 OFFCURVE",
"274 358 CURVE SMOOTH",
"274 295 LINE",
"207 269 LINE SMOOTH",
"107 230 OFFCURVE",
"45 182 OFFCURVE",
"45 103 CURVE SMOOTH",
"45 21 OFFCURVE",
"102 -12 OFFCURVE",
"174 -12 CURVE SMOOTH"
);
},
{
closed = 1;
nodes = (
"199 28 OFFCURVE",
"173 51 OFFCURVE",
"173 115 CURVE SMOOTH",
"173 188 OFFCURVE",
"190 233 OFFCURVE",
"228 249 CURVE SMOOTH",
"274 268 LINE",
"274 50 LINE",
"263 34 OFFCURVE",
"245 28 OFFCURVE",
"229 28 CURVE SMOOTH"
);
}
);
width = 496;
}
);
leftKerningGroup = abreve;
note = adieresis;
rightKerningGroup = a;
unicode = 00E4;
},
{
glyphname = agrave;
lastChange = "2017-06-10 11:33:30 +0000";
layers = (
{
layerId = "9ECE4C5B-AE6E-45F8-855F-54F501A6946D";
paths = (
{
closed = 1;
nodes = (
"232 490 LINE",
"142 617 LINE SMOOTH",
"125 641 OFFCURVE",
"114 648 OFFCURVE",
"96 648 CURVE SMOOTH",
"82 648 OFFCURVE",
"74 639 OFFCURVE",
"74 623 CURVE SMOOTH",
"74 611 OFFCURVE",
"84 597 OFFCURVE",
"102 583 CURVE SMOOTH",
"225 485 LINE"
);
},
{
closed = 1;
nodes = (
"234 -12 OFFCURVE",
"287 56 OFFCURVE",
"301 106 CURVE",
"308 103 LINE",
"302 35 OFFCURVE",
"332 -12 OFFCURVE",
"388 -12 CURVE SMOOTH",
"437 -12 OFFCURVE",
"456 49 OFFCURVE",
"456 123 CURVE",
"443 123 LINE",
"443 67 OFFCURVE",
"429 26 OFFCURVE",
"392 26 CURVE SMOOTH",
"366 26 OFFCURVE",
"356 46 OFFCURVE",
"356 83 CURVE SMOOTH",
"356 316 LINE SMOOTH",
"356 402 OFFCURVE",
"290 444 OFFCURVE",
"208 444 CURVE SMOOTH",
"187 444 OFFCURVE",
"168 440 OFFCURVE",
"147 432 CURVE SMOOTH",
"107 417 OFFCURVE",
"81 382 OFFCURVE",
"81 337 CURVE SMOOTH",
"81 295 OFFCURVE",
"109 272 OFFCURVE",
"134 272 CURVE SMOOTH",
"156 272 OFFCURVE",
"172 278 OFFCURVE",
"172 303 CURVE SMOOTH",
"172 324 OFFCURVE",
"155 334 OFFCURVE",
"131 338 CURVE",
"124 339 OFFCURVE",
"111 339 OFFCURVE",
"111 360 CURVE SMOOTH",
"111 389 OFFCURVE",
"162 421 OFFCURVE",
"211 421 CURVE SMOOTH",
"281 421 OFFCURVE",
"311 391 OFFCURVE",
"311 332 CURVE SMOOTH",
"311 241 LINE",
"211 231 LINE SMOOTH",
"150 225 OFFCURVE",
"45 220 OFFCURVE",
"45 103 CURVE SMOOTH",
"45 15 OFFCURVE",
"102 -12 OFFCURVE",
"170 -12 CURVE SMOOTH"
);
},
{
closed = 1;
nodes = (
"135 21 OFFCURVE",
"106 36 OFFCURVE",
"106 93 CURVE SMOOTH",
"106 162 OFFCURVE",
"136 194 OFFCURVE",
"208 207 CURVE SMOOTH",
"311 225 LINE",
"311 188 LINE",
"278 93 OFFCURVE",
"244 21 OFFCURVE",
"168 21 CURVE SMOOTH"
);
}
);
width = 473;
},
{
layerId = "6701A4D5-8A3D-41DD-8AA0-CFF5D98C5FFE";
paths = (
{
closed = 1;
nodes = (
"274 532 LINE",
"188 667 LINE SMOOTH",
"174 689 OFFCURVE",
"158 698 OFFCURVE",
"140 698 CURVE SMOOTH",
"116 698 OFFCURVE",
"96 681 OFFCURVE",
"96 657 CURVE SMOOTH",
"96 638 OFFCURVE",
"105 623 OFFCURVE",
"123 609 CURVE SMOOTH",
"252 512 LINE"
);
},
{
closed = 1;
nodes = (
"217 -12 OFFCURVE",
"250 -2 OFFCURVE",
"278 30 CURVE",
"279 31 LINE",
"302 -2 OFFCURVE",
"323 -12 OFFCURVE",
"375 -12 CURVE SMOOTH",
"453 -12 OFFCURVE",
"476 49 OFFCURVE",
"476 132 CURVE",
"447 132 LINE",
"447 83 OFFCURVE",
"436 37 OFFCURVE",
"414 37 CURVE SMOOTH",
"405 37 OFFCURVE",
"398 47 OFFCURVE",
"398 68 CURVE SMOOTH",
"398 315 LINE SMOOTH",
"398 428 OFFCURVE",
"313 476 OFFCURVE",
"219 476 CURVE SMOOTH",
"194 476 OFFCURVE",
"170 471 OFFCURVE",
"146 461 CURVE SMOOTH",
"99 441 OFFCURVE",
"65 400 OFFCURVE",
"65 349 CURVE SMOOTH",
"65 307 OFFCURVE",
"92 283 OFFCURVE",
"127 283 CURVE SMOOTH",
"155 283 OFFCURVE",
"184 304 OFFCURVE",
"184 336 CURVE SMOOTH",
"184 356 OFFCURVE",
"178 368 OFFCURVE",
"159 380 CURVE",
"147 389 OFFCURVE",
"145 404 OFFCURVE",
"145 410 CURVE SMOOTH",
"145 438 OFFCURVE",
"173 453 OFFCURVE",
"206 453 CURVE SMOOTH",
"244 453 OFFCURVE",
"274 425 OFFCURVE",
"274 358 CURVE SMOOTH",
"274 295 LINE",
"207 269 LINE SMOOTH",
"107 230 OFFCURVE",
"45 182 OFFCURVE",
"45 103 CURVE SMOOTH",
"45 21 OFFCURVE",
"102 -12 OFFCURVE",
"174 -12 CURVE SMOOTH"
);
},
{
closed = 1;
nodes = (
"199 28 OFFCURVE",
"173 51 OFFCURVE",
"173 115 CURVE SMOOTH",
"173 188 OFFCURVE",
"190 233 OFFCURVE",
"228 249 CURVE SMOOTH",
"274 268 LINE",
"274 50 LINE",
"263 34 OFFCURVE",
"245 28 OFFCURVE",
"229 28 CURVE SMOOTH"
);
}
);
width = 496;
}
);
leftKerningGroup = abreve;
note = agrave;
rightKerningGroup = a;
unicode = 00E0;
},
{
glyphname = aring;
lastChange = "2017-06-10 11:33:30 +0000";
layers = (
{
layerId = "9ECE4C5B-AE6E-45F8-855F-54F501A6946D";
paths = (
{
closed = 1;
nodes = (
"270 476 OFFCURVE",
"309 519 OFFCURVE",
"309 567 CURVE SMOOTH",
"309 616 OFFCURVE",
"270 657 OFFCURVE",
"219 657 CURVE SMOOTH",
"172 657 OFFCURVE",
"129 616 OFFCURVE",
"129 567 CURVE SMOOTH",
"129 519 OFFCURVE",
"172 476 OFFCURVE",
"219 476 CURVE SMOOTH"
);
},
{
closed = 1;
nodes = (
"176 488 OFFCURVE",
"141 525 OFFCURVE",
"141 567 CURVE SMOOTH",
"141 608 OFFCURVE",
"176 645 OFFCURVE",
"219 645 CURVE SMOOTH",
"260 645 OFFCURVE",
"297 608 OFFCURVE",
"297 567 CURVE SMOOTH",
"297 525 OFFCURVE",
"260 488 OFFCURVE",
"219 488 CURVE SMOOTH"
);
},
{
closed = 1;
nodes = (
"234 -12 OFFCURVE",
"287 56 OFFCURVE",
"301 106 CURVE",
"308 103 LINE",
"302 35 OFFCURVE",
"332 -12 OFFCURVE",
"388 -12 CURVE SMOOTH",
"437 -12 OFFCURVE",
"456 49 OFFCURVE",
"456 123 CURVE",
"443 123 LINE",
"443 67 OFFCURVE",
"429 26 OFFCURVE",
"392 26 CURVE SMOOTH",
"366 26 OFFCURVE",
"356 46 OFFCURVE",
"356 83 CURVE SMOOTH",
"356 316 LINE SMOOTH",
"356 402 OFFCURVE",
"290 444 OFFCURVE",
"208 444 CURVE SMOOTH",
"187 444 OFFCURVE",
"168 440 OFFCURVE",
"147 432 CURVE SMOOTH",
"107 417 OFFCURVE",
"81 382 OFFCURVE",
"81 337 CURVE SMOOTH",
"81 295 OFFCURVE",
"109 272 OFFCURVE",
"134 272 CURVE SMOOTH",
"156 272 OFFCURVE",
"172 278 OFFCURVE",
"172 303 CURVE SMOOTH",
"172 324 OFFCURVE",
"155 334 OFFCURVE",
"131 338 CURVE",
"124 339 OFFCURVE",
"111 339 OFFCURVE",
"111 360 CURVE SMOOTH",
"111 389 OFFCURVE",
"162 421 OFFCURVE",
"211 421 CURVE SMOOTH",
"281 421 OFFCURVE",
"311 391 OFFCURVE",
"311 332 CURVE SMOOTH",
"311 241 LINE",
"211 231 LINE SMOOTH",
"150 225 OFFCURVE",
"45 220 OFFCURVE",
"45 103 CURVE SMOOTH",
"45 15 OFFCURVE",
"102 -12 OFFCURVE",
"170 -12 CURVE SMOOTH"
);
},
{
closed = 1;
nodes = (
"135 21 OFFCURVE",
"106 36 OFFCURVE",
"106 93 CURVE SMOOTH",
"106 162 OFFCURVE",
"136 194 OFFCURVE",
"208 207 CURVE SMOOTH",
"311 225 LINE",
"311 188 LINE",
"278 93 OFFCURVE",
"244 21 OFFCURVE",
"168 21 CURVE SMOOTH"
);
}
);
width = 473;
},
{
layerId = "6701A4D5-8A3D-41DD-8AA0-CFF5D98C5FFE";
paths = (
{
closed = 1;
nodes = (
"285 505 OFFCURVE",
"332 551 OFFCURVE",
"332 610 CURVE SMOOTH",
"332 671 OFFCURVE",
"285 717 OFFCURVE",
"226 717 CURVE SMOOTH",
"166 717 OFFCURVE",
"120 671 OFFCURVE",
"120 610 CURVE SMOOTH",
"120 551 OFFCURVE",
"166 505 OFFCURVE",
"226 505 CURVE SMOOTH"
);
},
{
closed = 1;
nodes = (
"191 552 OFFCURVE",
"168 575 OFFCURVE",
"168 610 CURVE SMOOTH",
"168 648 OFFCURVE",
"191 668 OFFCURVE",
"226 668 CURVE SMOOTH",
"264 668 OFFCURVE",
"284 648 OFFCURVE",
"284 610 CURVE SMOOTH",
"284 575 OFFCURVE",
"264 552 OFFCURVE",
"226 552 CURVE SMOOTH"
);
},
{
closed = 1;
nodes = (
"217 -12 OFFCURVE",
"250 -2 OFFCURVE",
"278 30 CURVE",
"279 31 LINE",
"302 -2 OFFCURVE",
"323 -12 OFFCURVE",
"375 -12 CURVE SMOOTH",
"453 -12 OFFCURVE",
"476 49 OFFCURVE",
"476 132 CURVE",
"447 132 LINE",
"447 83 OFFCURVE",
"436 37 OFFCURVE",
"414 37 CURVE SMOOTH",
"405 37 OFFCURVE",
"398 47 OFFCURVE",
"398 68 CURVE SMOOTH",
"398 315 LINE SMOOTH",
"398 428 OFFCURVE",
"313 476 OFFCURVE",
"219 476 CURVE SMOOTH",
"194 476 OFFCURVE",
"170 471 OFFCURVE",
"146 461 CURVE SMOOTH",
"99 441 OFFCURVE",
"65 400 OFFCURVE",
"65 349 CURVE SMOOTH",
"65 307 OFFCURVE",
"92 283 OFFCURVE",
"127 283 CURVE SMOOTH",
"155 283 OFFCURVE",
"184 304 OFFCURVE",
"184 336 CURVE SMOOTH",
"184 356 OFFCURVE",
"178 368 OFFCURVE",
"159 380 CURVE",
"147 389 OFFCURVE",
"145 404 OFFCURVE",
"145 410 CURVE SMOOTH",
"145 438 OFFCURVE",
"173 453 OFFCURVE",
"206 453 CURVE SMOOTH",
"244 453 OFFCURVE",
"274 425 OFFCURVE",
"274 358 CURVE SMOOTH",
"274 295 LINE",
"207 269 LINE SMOOTH",
"107 230 OFFCURVE",
"45 182 OFFCURVE",
"45 103 CURVE SMOOTH",
"45 21 OFFCURVE",
"102 -12 OFFCURVE",
"174 -12 CURVE SMOOTH"
);
},
{
closed = 1;
nodes = (
"199 28 OFFCURVE",
"173 51 OFFCURVE",
"173 115 CURVE SMOOTH",
"173 188 OFFCURVE",
"190 233 OFFCURVE",
"228 249 CURVE SMOOTH",
"274 268 LINE",
"274 50 LINE",
"263 34 OFFCURVE",
"245 28 OFFCURVE",
"229 28 CURVE SMOOTH"
);
}
);
width = 496;
}
);
leftKerningGroup = abreve;
note = aring;
rightKerningGroup = a;
unicode = 00E5;
},
{
glyphname = atilde;
lastChange = "2017-06-10 11:33:30 +0000";
layers = (
{
layerId = "9ECE4C5B-AE6E-45F8-855F-54F501A6946D";
paths = (
{
closed = 1;
nodes = (
"108 560 OFFCURVE",
"124 573 OFFCURVE",
"147 573 CURVE SMOOTH",
"166 573 OFFCURVE",
"176 569 OFFCURVE",
"203 558 CURVE SMOOTH",
"228 548 OFFCURVE",
"249 538 OFFCURVE",
"270 538 CURVE SMOOTH",
"317 538 OFFCURVE",
"341 571 OFFCURVE",
"354 614 CURVE",
"339 619 LINE",
"332 592 OFFCURVE",
"315 579 OFFCURVE",
"293 579 CURVE SMOOTH",
"271 579 OFFCURVE",
"260 584 OFFCURVE",
"237 594 CURVE SMOOTH",
"211 605 OFFCURVE",
"189 614 OFFCURVE",
"167 614 CURVE SMOOTH",
"122 614 OFFCURVE",
"96 581 OFFCURVE",
"85 538 CURVE",
"98 532 LINE"
);
},
{
closed = 1;
nodes = (
"234 -12 OFFCURVE",
"287 56 OFFCURVE",
"301 106 CURVE",
"308 103 LINE",
"302 35 OFFCURVE",
"332 -12 OFFCURVE",
"388 -12 CURVE SMOOTH",
"437 -12 OFFCURVE",
"456 49 OFFCURVE",
"456 123 CURVE",
"443 123 LINE",
"443 67 OFFCURVE",
"429 26 OFFCURVE",
"392 26 CURVE SMOOTH",
"366 26 OFFCURVE",
"356 46 OFFCURVE",
"356 83 CURVE SMOOTH",
"356 316 LINE SMOOTH",
"356 402 OFFCURVE",
"290 444 OFFCURVE",
"208 444 CURVE SMOOTH",
"187 444 OFFCURVE",
"168 440 OFFCURVE",
"147 432 CURVE SMOOTH",
"107 417 OFFCURVE",
"81 382 OFFCURVE",
"81 337 CURVE SMOOTH",
"81 295 OFFCURVE",
"109 272 OFFCURVE",
"134 272 CURVE SMOOTH",
"156 272 OFFCURVE",
"172 278 OFFCURVE",
"172 303 CURVE SMOOTH",
"172 343 OFFCURVE",
"140 329 OFFCURVE",
"118 345 CURVE SMOOTH",
"115 347 OFFCURVE",
"111 345 OFFCURVE",
"111 360 CURVE SMOOTH",
"111 389 OFFCURVE",
"162 421 OFFCURVE",
"211 421 CURVE SMOOTH",
"281 421 OFFCURVE",
"311 391 OFFCURVE",
"311 332 CURVE SMOOTH",
"311 241 LINE",
"211 231 LINE SMOOTH",
"150 225 OFFCURVE",
"45 220 OFFCURVE",
"45 103 CURVE SMOOTH",
"45 15 OFFCURVE",
"102 -12 OFFCURVE",
"170 -12 CURVE SMOOTH"
);
},
{
closed = 1;
nodes = (
"135 21 OFFCURVE",
"106 36 OFFCURVE",
"106 93 CURVE SMOOTH",
"106 162 OFFCURVE",
"136 194 OFFCURVE",
"208 207 CURVE SMOOTH",
"311 225 LINE",
"311 188 LINE",
"278 93 OFFCURVE",
"244 21 OFFCURVE",
"168 21 CURVE SMOOTH"
);
}
);
width = 473;
},
{
layerId = "6701A4D5-8A3D-41DD-8AA0-CFF5D98C5FFE";
paths = (
{
closed = 1;
nodes = (
"108 575 OFFCURVE",
"119 588 OFFCURVE",
"141 588 CURVE SMOOTH",
"159 588 OFFCURVE",
"181 583 OFFCURVE",
"204 573 CURVE SMOOTH",
"239 558 OFFCURVE",
"256 553 OFFCURVE",
"285 553 CURVE SMOOTH",
"332 553 OFFCURVE",
"374 607 OFFCURVE",
"372 663 CURVE",
"348 662 LINE",
"344 636 OFFCURVE",
"333 623 OFFCURVE",
"311 623 CURVE SMOOTH",
"293 623 OFFCURVE",
"270 628 OFFCURVE",
"248 637 CURVE SMOOTH",
"212 652 OFFCURVE",
"196 658 OFFCURVE",
"167 658 CURVE SMOOTH",
"116 658 OFFCURVE",
"79 603 OFFCURVE",
"80 549 CURVE",
"104 550 LINE"
);
},
{
closed = 1;
nodes = (
"217 -12 OFFCURVE",
"250 -2 OFFCURVE",
"278 30 CURVE",
"279 31 LINE",
"302 -2 OFFCURVE",
"323 -12 OFFCURVE",
"375 -12 CURVE SMOOTH",
"453 -12 OFFCURVE",
"476 49 OFFCURVE",
"476 132 CURVE",
"447 132 LINE",
"447 83 OFFCURVE",
"436 37 OFFCURVE",
"414 37 CURVE SMOOTH",
"405 37 OFFCURVE",
"398 47 OFFCURVE",
"398 68 CURVE SMOOTH",
"398 315 LINE SMOOTH",
"398 428 OFFCURVE",
"313 476 OFFCURVE",
"219 476 CURVE SMOOTH",
"194 476 OFFCURVE",
"170 471 OFFCURVE",
"146 461 CURVE SMOOTH",
"99 441 OFFCURVE",
"65 400 OFFCURVE",
"65 349 CURVE SMOOTH",
"65 307 OFFCURVE",
"92 283 OFFCURVE",
"127 283 CURVE SMOOTH",
"155 283 OFFCURVE",
"184 304 OFFCURVE",
"184 336 CURVE SMOOTH",
"184 352 OFFCURVE",
"181 369 OFFCURVE",
"161 379 CURVE",
"149 388 OFFCURVE",
"145 403 OFFCURVE",
"145 410 CURVE SMOOTH",
"145 438 OFFCURVE",
"173 453 OFFCURVE",
"206 453 CURVE SMOOTH",
"244 453 OFFCURVE",
"274 425 OFFCURVE",
"274 358 CURVE SMOOTH",
"274 295 LINE",
"207 269 LINE SMOOTH",
"107 230 OFFCURVE",
"45 182 OFFCURVE",
"45 103 CURVE SMOOTH",
"45 21 OFFCURVE",
"102 -12 OFFCURVE",
"174 -12 CURVE SMOOTH"
);
},
{
closed = 1;
nodes = (
"199 28 OFFCURVE",
"173 51 OFFCURVE",
"173 115 CURVE SMOOTH",
"173 188 OFFCURVE",
"190 233 OFFCURVE",
"228 249 CURVE SMOOTH",
"274 268 LINE",
"274 50 LINE",
"263 34 OFFCURVE",
"245 28 OFFCURVE",
"229 28 CURVE SMOOTH"
);
}
);
width = 496;
}
);
leftKerningGroup = abreve;
note = atilde;
rightKerningGroup = a;
unicode = 00E3;
},
{
glyphname = ae;
lastChange = "2017-06-10 11:33:30 +0000";
layers = (
{
layerId = "9ECE4C5B-AE6E-45F8-855F-54F501A6946D";
paths = (
{
closed = 1;
nodes = (
"225 -12 OFFCURVE",
"296 62 OFFCURVE",
"310 103 CURVE",
"336 39 OFFCURVE",
"384 -12 OFFCURVE",
"482 -12 CURVE SMOOTH",
"569 -12 OFFCURVE",
"637 51 OFFCURVE",
"645 148 CURVE",
"624 148 LINE",
"604 40 OFFCURVE",
"534 9 OFFCURVE",
"477 9 CURVE SMOOTH",
"401 9 OFFCURVE",
"356 77 OFFCURVE",
"356 225 CURVE",
"640 225 LINE",
"640 252 OFFCURVE",
"633 315 OFFCURVE",
"618 353 CURVE SMOOTH",
"597 405 OFFCURVE",
"548 444 OFFCURVE",
"470 444 CURVE SMOOTH",
"419 444 OFFCURVE",
"381 422 OFFCURVE",
"349 378 CURVE",
"325 424 OFFCURVE",
"269 444 OFFCURVE",
"211 444 CURVE SMOOTH",
"191 444 OFFCURVE",
"170 440 OFFCURVE",
"149 432 CURVE SMOOTH",
"109 417 OFFCURVE",
"81 381 OFFCURVE",
"81 337 CURVE SMOOTH",
"81 295 OFFCURVE",
"109 272 OFFCURVE",
"134 272 CURVE SMOOTH",
"156 272 OFFCURVE",
"172 278 OFFCURVE",
"172 303 CURVE SMOOTH",
"172 320 OFFCURVE",
"162 330 OFFCURVE",
"118 345 CURVE",
"115 346 OFFCURVE",
"111 345 OFFCURVE",
"111 360 CURVE SMOOTH",
"111 389 OFFCURVE",
"162 421 OFFCURVE",
"211 421 CURVE SMOOTH",
"281 421 OFFCURVE",
"311 391 OFFCURVE",
"311 332 CURVE SMOOTH",
"311 241 LINE",
"211 231 LINE SMOOTH",
"150 225 OFFCURVE",
"45 218 OFFCURVE",
"45 103 CURVE SMOOTH",
"45 14 OFFCURVE",
"102 -12 OFFCURVE",
"173 -12 CURVE SMOOTH"
);
},
{
closed = 1;
nodes = (
"356 351 OFFCURVE",
"404 421 OFFCURVE",
"473 421 CURVE SMOOTH",
"536 421 OFFCURVE",
"573 352 OFFCURVE",
"573 245 CURVE",
"356 245 LINE"
);
},
{
closed = 1;
nodes = (
"135 21 OFFCURVE",
"106 36 OFFCURVE",
"106 93 CURVE SMOOTH",
"106 162 OFFCURVE",
"134 196 OFFCURVE",
"207 206 CURVE SMOOTH",
"311 221 LINE",
"311 172 OFFCURVE",
"313 144 OFFCURVE",
"320 138 CURVE",
"299 79 OFFCURVE",
"246 21 OFFCURVE",
"169 21 CURVE SMOOTH"
);
}
);
width = 684;
},
{
layerId = "6701A4D5-8A3D-41DD-8AA0-CFF5D98C5FFE";
paths = (
{
closed = 1;
nodes = (
"241 -12 OFFCURVE",
"281 8 OFFCURVE",
"319 58 CURVE",
"352 12 OFFCURVE",
"416 -12 OFFCURVE",
"473 -12 CURVE SMOOTH",
"575 -12 OFFCURVE",
"621 71 OFFCURVE",
"629 159 CURVE",
"602 159 LINE",
"597 89 OFFCURVE",
"561 18 OFFCURVE",
"497 18 CURVE SMOOTH",
"402 18 OFFCURVE",
"398 125 OFFCURVE",
"398 220 CURVE",
"627 220 LINE",
"627 267 OFFCURVE",
"626 295 OFFCURVE",
"623 312 CURVE",
"604 411 OFFCURVE",
"541 476 OFFCURVE",
"463 476 CURVE SMOOTH",
"418 476 OFFCURVE",
"371 465 OFFCURVE",
"339 438 CURVE",
"303 463 OFFCURVE",
"262 476 OFFCURVE",
"211 476 CURVE SMOOTH",
"186 476 OFFCURVE",
"165 472 OFFCURVE",
"142 461 CURVE SMOOTH",
"97 440 OFFCURVE",
"65 401 OFFCURVE",
"65 349 CURVE SMOOTH",
"65 307 OFFCURVE",
"92 283 OFFCURVE",
"127 283 CURVE SMOOTH",
"155 283 OFFCURVE",
"184 304 OFFCURVE",
"184 336 CURVE SMOOTH",
"184 356 OFFCURVE",
"177 369 OFFCURVE",
"161 379 CURVE",
"149 388 OFFCURVE",
"145 403 OFFCURVE",
"145 410 CURVE SMOOTH",
"145 438 OFFCURVE",
"171 453 OFFCURVE",
"204 453 CURVE SMOOTH",
"241 453 OFFCURVE",
"274 425 OFFCURVE",
"274 358 CURVE SMOOTH",
"274 295 LINE",
"207 269 LINE SMOOTH",
"108 231 OFFCURVE",
"45 184 OFFCURVE",
"45 104 CURVE SMOOTH",
"45 23 OFFCURVE",
"102 -12 OFFCURVE",
"168 -12 CURVE SMOOTH"
);
},
{
closed = 1;
nodes = (
"398 341 OFFCURVE",
"395 453 OFFCURVE",
"451 453 CURVE SMOOTH",
"509 453 OFFCURVE",
"507 346 OFFCURVE",
"507 249 CURVE",
"398 249 LINE"
);
},
{
closed = 1;
nodes = (
"200 28 OFFCURVE",
"173 51 OFFCURVE",
"173 115 CURVE SMOOTH",
"173 188 OFFCURVE",
"191 234 OFFCURVE",
"228 249 CURVE SMOOTH",
"274 268 LINE",
"274 199 OFFCURVE",
"273 128 OFFCURVE",
"272 52 CURVE",
"257 34 OFFCURVE",
"243 28 OFFCURVE",
"225 28 CURVE SMOOTH"
);
}
);
width = 677;
}
);
leftKerningGroup = a;
note = ae;
unicode = 00E6;
},
{
glyphname = b;
lastChange = "2017-06-10 11:33:30 +0000";
layers = (
{
layerId = "9ECE4C5B-AE6E-45F8-855F-54F501A6946D";
paths = (
{
closed = 1;
nodes = (
"296 -12 OFFCURVE",
"326 -1 OFFCURVE",
"352 17 CURVE SMOOTH",
"404 53 OFFCURVE",
"437 128 OFFCURVE",
"437 216 CURVE SMOOTH",
"437 262 OFFCURVE",
"428 301 OFFCURVE",
"413 336 CURVE SMOOTH",
"383 406 OFFCURVE",
"323 444 OFFCURVE",
"266 444 CURVE SMOOTH",
"211 444 OFFCURVE",
"163 400 OFFCURVE",
"144 352 CURVE",
"141 353 LINE",
"141 691 LINE",
"21 691 LINE",
"21 667 LINE",
"70 667 LINE SMOOTH",
"87 667 OFFCURVE",
"95 662 OFFCURVE",
"95 643 CURVE SMOOTH",
"95 0 LINE",
"98 0 LINE",
"144 85 LINE",
"144 85 LINE",
"171 17 OFFCURVE",
"215 -12 OFFCURVE",
"267 -12 CURVE SMOOTH"
);
},
{
closed = 1;
nodes = (
"236 14 OFFCURVE",
"218 18 OFFCURVE",
"199 31 CURVE SMOOTH",
"164 55 OFFCURVE",
"141 100 OFFCURVE",
"141 149 CURVE SMOOTH",
"141 289 OFFCURVE",
"128 262 OFFCURVE",
"139 308 CURVE SMOOTH",
"156 378 OFFCURVE",
"205 420 OFFCURVE",
"259 420 CURVE SMOOTH",
"334 420 OFFCURVE",
"373 343 OFFCURVE",
"373 216 CURVE SMOOTH",
"373 89 OFFCURVE",
"334 14 OFFCURVE",
"259 14 CURVE SMOOTH"
);
}
);
width = 484;
},
{
layerId = "6701A4D5-8A3D-41DD-8AA0-CFF5D98C5FFE";
paths = (
{
closed = 1;
nodes = (
"331 -12 OFFCURVE",
"361 0 OFFCURVE",
"388 24 CURVE SMOOTH",
"442 72 OFFCURVE",
"472 151 OFFCURVE",
"472 232 CURVE SMOOTH",
"472 274 OFFCURVE",
"466 311 OFFCURVE",
"451 349 CURVE SMOOTH",
"421 423 OFFCURVE",
"370 476 OFFCURVE",
"301 476 CURVE SMOOTH",
"262 476 OFFCURVE",
"231 453 OFFCURVE",
"211 412 CURVE",
"204 413 LINE",
"204 691 LINE",
"12 691 LINE",
"12 667 LINE",
"67 667 LINE SMOOTH",
"78 667 OFFCURVE",
"80 663 OFFCURVE",
"80 654 CURVE SMOOTH",
"80 0 LINE",
"131 0 LINE",
"158 79 LINE",
"171 79 LINE",
"195 46 OFFCURVE",
"250 -12 OFFCURVE",
"297 -12 CURVE SMOOTH"
);
},
{
closed = 1;
nodes = (
"269 20 OFFCURVE",
"257 31 OFFCURVE",
"245 51 CURVE SMOOTH",
"221 90 OFFCURVE",
"204 158 OFFCURVE",
"204 240 CURVE SMOOTH",
"204 325 OFFCURVE",
"230 407 OFFCURVE",
"261 435 CURVE SMOOTH",
"270 443 OFFCURVE",
"278 443 OFFCURVE",
"282 443 CURVE SMOOTH",
"319 443 OFFCURVE",
"337 376 OFFCURVE",
"337 232 CURVE SMOOTH",
"337 89 OFFCURVE",
"319 20 OFFCURVE",
"282 20 CURVE SMOOTH"
);
}
);
width = 518;
}
);
note = b;
rightKerningGroup = b;
unicode = 0062;
},
{
glyphname = c;
lastChange = "2017-06-10 11:33:30 +0000";
layers = (
{
layerId = "9ECE4C5B-AE6E-45F8-855F-54F501A6946D";
paths = (
{
closed = 1;
nodes = (
"308 -12 OFFCURVE",
"373 51 OFFCURVE",
"380 148 CURVE",
"357 148 LINE",
"348 74 OFFCURVE",
"303 9 OFFCURVE",
"217 9 CURVE SMOOTH",
"141 9 OFFCURVE",
"110 59 OFFCURVE",
"110 216 CURVE SMOOTH",
"110 378 OFFCURVE",
"138 421 OFFCURVE",
"225 421 CURVE SMOOTH",
"267 421 OFFCURVE",
"337 397 OFFCURVE",
"337 353 CURVE SMOOTH",
"337 339 OFFCURVE",
"291 347 OFFCURVE",
"291 308 CURVE SMOOTH",
"291 287 OFFCURVE",
"311 268 OFFCURVE",
"334 268 CURVE SMOOTH",
"359 268 OFFCURVE",
"377 284 OFFCURVE",
"377 320 CURVE SMOOTH",
"377 380 OFFCURVE",
"318 444 OFFCURVE",
"229 444 CURVE SMOOTH",
"127 444 OFFCURVE",
"47 348 OFFCURVE",
"47 216 CURVE SMOOTH",
"47 108 OFFCURVE",
"105 -12 OFFCURVE",
"229 -12 CURVE SMOOTH"
);
}
);
width = 413;
},
{
layerId = "6701A4D5-8A3D-41DD-8AA0-CFF5D98C5FFE";
paths = (
{
closed = 1;
nodes = (
"361 -12 OFFCURVE",
"407 71 OFFCURVE",
"414 159 CURVE",
"389 159 LINE",
"381 83 OFFCURVE",
"342 18 OFFCURVE",
"282 18 CURVE SMOOTH",
"184 18 OFFCURVE",
"181 131 OFFCURVE",
"181 232 CURVE SMOOTH",
"181 323 OFFCURVE",
"193 453 OFFCURVE",
"265 453 CURVE SMOOTH",
"309 453 OFFCURVE",
"320 425 OFFCURVE",
"320 401 CURVE SMOOTH",
"320 359 OFFCURVE",
"264 348 OFFCURVE",
"264 302 CURVE SMOOTH",
"264 271 OFFCURVE",
"285 252 OFFCURVE",
"317 252 CURVE SMOOTH",
"359 252 OFFCURVE",
"395 296 OFFCURVE",
"395 343 CURVE SMOOTH",
"395 408 OFFCURVE",
"351 476 OFFCURVE",
"255 476 CURVE SMOOTH",
"138 476 OFFCURVE",
"47 375 OFFCURVE",
"47 232 CURVE SMOOTH",
"47 114 OFFCURVE",
"120 -12 OFFCURVE",
"257 -12 CURVE SMOOTH"
);
}
);
width = 459;
}
);
leftKerningGroup = c;
note = c;
unicode = 0063;
},
{
glyphname = ccedilla;
lastChange = "2017-06-10 11:33:30 +0000";
layers = (
{
layerId = "9ECE4C5B-AE6E-45F8-855F-54F501A6946D";
paths = (
{
closed = 1;
nodes = (
"302 -208 OFFCURVE",
"329 -168 OFFCURVE",
"329 -121 CURVE SMOOTH",
"329 -73 OFFCURVE",
"294 -54 OFFCURVE",
"253 -54 CURVE SMOOTH",
"228 -54 LINE",
"234 -12 LINE",
"310 -12 OFFCURVE",
"373 53 OFFCURVE",
"380 148 CURVE",
"357 148 LINE",
"348 74 OFFCURVE",
"303 9 OFFCURVE",
"217 9 CURVE SMOOTH",
"141 9 OFFCURVE",
"110 59 OFFCURVE",
"110 216 CURVE SMOOTH",
"110 378 OFFCURVE",
"138 421 OFFCURVE",
"225 421 CURVE SMOOTH",
"267 421 OFFCURVE",
"337 397 OFFCURVE",
"337 353 CURVE SMOOTH",
"337 347 OFFCURVE",
"334 345 OFFCURVE",
"326 347 CURVE SMOOTH",
"310 351 OFFCURVE",
"291 334 OFFCURVE",
"291 308 CURVE SMOOTH",
"291 287 OFFCURVE",
"311 268 OFFCURVE",
"334 268 CURVE SMOOTH",
"359 268 OFFCURVE",
"377 284 OFFCURVE",
"377 320 CURVE SMOOTH",
"377 380 OFFCURVE",
"318 444 OFFCURVE",
"229 444 CURVE SMOOTH",
"127 444 OFFCURVE",
"47 348 OFFCURVE",
"47 216 CURVE SMOOTH",
"47 118 OFFCURVE",
"96 0 OFFCURVE",
"211 -11 CURVE",
"200 -95 LINE",
"236 -95 LINE SMOOTH",
"277 -95 OFFCURVE",
"297 -111 OFFCURVE",
"297 -145 CURVE SMOOTH",
"297 -177 OFFCURVE",
"275 -193 OFFCURVE",
"235 -193 CURVE SMOOTH",
"217 -193 OFFCURVE",
"208 -181 OFFCURVE",
"202 -152 CURVE",
"200 -134 OFFCURVE",
"190 -123 OFFCURVE",
"178 -123 CURVE SMOOTH",
"169 -123 OFFCURVE",
"157 -137 OFFCURVE",
"157 -148 CURVE SMOOTH",
"157 -186 OFFCURVE",
"192 -208 OFFCURVE",
"234 -208 CURVE SMOOTH"
);
}
);
width = 413;
},
{
layerId = "6701A4D5-8A3D-41DD-8AA0-CFF5D98C5FFE";
paths = (
{
closed = 1;
nodes = (
"318 -201 OFFCURVE",
"352 -162 OFFCURVE",
"352 -112 CURVE SMOOTH",
"352 -72 OFFCURVE",
"317 -39 OFFCURVE",
"271 -39 CURVE SMOOTH",
"246 -39 LINE",
"249 -12 LINE",
"363 -12 OFFCURVE",
"407 68 OFFCURVE",
"414 159 CURVE",
"389 159 LINE",
"381 83 OFFCURVE",
"342 18 OFFCURVE",
"282 18 CURVE SMOOTH",
"184 18 OFFCURVE",
"181 131 OFFCURVE",
"181 232 CURVE SMOOTH",
"181 323 OFFCURVE",
"193 453 OFFCURVE",
"265 453 CURVE SMOOTH",
"309 453 OFFCURVE",
"320 425 OFFCURVE",
"320 401 CURVE SMOOTH",
"320 386 OFFCURVE",
"310 370 OFFCURVE",
"294 355 CURVE SMOOTH",
"273 335 OFFCURVE",
"264 318 OFFCURVE",
"264 302 CURVE SMOOTH",
"264 271 OFFCURVE",
"285 252 OFFCURVE",
"317 252 CURVE SMOOTH",
"359 252 OFFCURVE",
"395 296 OFFCURVE",
"395 343 CURVE SMOOTH",
"395 408 OFFCURVE",
"351 476 OFFCURVE",
"255 476 CURVE SMOOTH",
"138 476 OFFCURVE",
"47 375 OFFCURVE",
"47 232 CURVE SMOOTH",
"47 125 OFFCURVE",
"105 11 OFFCURVE",
"226 -10 CURVE",
"212 -95 LINE",
"259 -95 LINE SMOOTH",
"289 -95 OFFCURVE",
"304 -112 OFFCURVE",
"304 -135 CURVE SMOOTH",
"304 -160 OFFCURVE",
"287 -178 OFFCURVE",
"261 -178 CURVE SMOOTH",
"233 -178 OFFCURVE",
"215 -166 OFFCURVE",
"211 -143 CURVE SMOOTH",
"206 -117 OFFCURVE",
"201 -106 OFFCURVE",
"179 -106 CURVE SMOOTH",
"160 -106 OFFCURVE",
"150 -116 OFFCURVE",
"150 -138 CURVE SMOOTH",
"150 -177 OFFCURVE",
"199 -201 OFFCURVE",
"245 -201 CURVE SMOOTH"
);
}
);
width = 459;
}
);
leftKerningGroup = c;
note = ccedilla;
unicode = 00E7;
},
{
glyphname = d;
lastChange = "2017-06-10 11:33:30 +0000";
layers = (
{
layerId = "9ECE4C5B-AE6E-45F8-855F-54F501A6946D";
paths = (
{
closed = 1;
nodes = (
"269 -12 OFFCURVE",
"311 21 OFFCURVE",
"340 83 CURVE",
"343 81 LINE",
"343 0 LINE",
"460 0 LINE",
"460 23 LINE",
"413 23 LINE SMOOTH",
"394 23 OFFCURVE",
"389 31 OFFCURVE",
"389 48 CURVE SMOOTH",
"389 691 LINE",
"240 691 LINE",
"240 667 LINE",
"317 667 LINE SMOOTH",
"336 667 OFFCURVE",
"343 662 OFFCURVE",
"343 643 CURVE SMOOTH",
"343 353 LINE",
"340 352 LINE",
"320 400 OFFCURVE",
"273 444 OFFCURVE",
"217 444 CURVE SMOOTH",
"189 444 OFFCURVE",
"161 435 OFFCURVE",
"136 417 CURVE SMOOTH",
"83 379 OFFCURVE",
"47 304 OFFCURVE",
"47 216 CURVE SMOOTH",
"47 172 OFFCURVE",
"54 133 OFFCURVE",
"70 98 CURVE SMOOTH",
"102 29 OFFCURVE",
"158 -12 OFFCURVE",
"215 -12 CURVE SMOOTH"
);
},
{
closed = 1;
nodes = (
"150 14 OFFCURVE",
"110 89 OFFCURVE",
"110 216 CURVE SMOOTH",
"110 343 OFFCURVE",
"150 420 OFFCURVE",
"225 420 CURVE SMOOTH",
"247 420 OFFCURVE",
"268 413 OFFCURVE",
"286 398 CURVE SMOOTH",
"320 370 OFFCURVE",
"343 326 OFFCURVE",
"343 288 CURVE SMOOTH",
"343 263 OFFCURVE",
"346 236 OFFCURVE",
"349 207 CURVE SMOOTH",
"358 119 OFFCURVE",
"312 14 OFFCURVE",
"225 14 CURVE SMOOTH"
);
}
);
width = 491;
},
{
layerId = "6701A4D5-8A3D-41DD-8AA0-CFF5D98C5FFE";
paths = (
{
closed = 1;
nodes = (
"262 -12 OFFCURVE",
"294 20 OFFCURVE",
"307 52 CURVE",
"314 52 LINE",
"314 0 LINE",
"508 0 LINE",
"508 23 LINE",
"452 23 LINE SMOOTH",
"442 23 OFFCURVE",
"438 26 OFFCURVE",
"438 38 CURVE SMOOTH",
"438 691 LINE",
"249 691 LINE",
"249 667 LINE",
"301 667 LINE SMOOTH",
"310 667 OFFCURVE",
"314 663 OFFCURVE",
"314 654 CURVE SMOOTH",
"314 413 LINE",
"307 412 LINE",
"287 453 OFFCURVE",
"257 476 OFFCURVE",
"217 476 CURVE SMOOTH",
"182 476 OFFCURVE",
"153 464 OFFCURVE",
"127 440 CURVE SMOOTH",
"76 393 OFFCURVE",
"47 313 OFFCURVE",
"47 232 CURVE SMOOTH",
"47 192 OFFCURVE",
"54 153 OFFCURVE",
"69 115 CURVE SMOOTH",
"99 40 OFFCURVE",
"153 -12 OFFCURVE",
"222 -12 CURVE SMOOTH"
);
},
{
closed = 1;
nodes = (
"199 20 OFFCURVE",
"181 89 OFFCURVE",
"181 232 CURVE SMOOTH",
"181 376 OFFCURVE",
"199 443 OFFCURVE",
"237 443 CURVE SMOOTH",
"246 443 OFFCURVE",
"257 436 OFFCURVE",
"270 420 CURVE SMOOTH",
"295 389 OFFCURVE",
"314 319 OFFCURVE",
"314 217 CURVE SMOOTH",
"314 177 OFFCURVE",
"309 140 OFFCURVE",
"299 108 CURVE SMOOTH",
"280 49 OFFCURVE",
"257 20 OFFCURVE",
"237 20 CURVE SMOOTH"
);
}
);
width = 529;
}
);
leftKerningGroup = c;
note = d;
unicode = 0064;
},
{
glyphname = eth;
lastChange = "2017-06-10 11:33:30 +0000";
layers = (
{
layerId = "9ECE4C5B-AE6E-45F8-855F-54F501A6946D";
paths = (
{
closed = 1;
nodes = (
"271 -12 OFFCURVE",
"303 -1 OFFCURVE",
"334 21 CURVE SMOOTH",
"391 62 OFFCURVE",
"428 148 OFFCURVE",
"428 258 CURVE SMOOTH",
"428 356 OFFCURVE",
"382 464 OFFCURVE",
"289 575 CURVE SMOOTH",
"283 582 OFFCURVE",
"281 572 OFFCURVE",
"267 586 CURVE",
"377 658 LINE",
"363 680 LINE",
"251 607 LINE",
"220 647 OFFCURVE",
"193 676 OFFCURVE",
"175 691 CURVE",
"95 691 LINE",
"136 654 OFFCURVE",
"178 614 OFFCURVE",
"208 580 CURVE",
"101 510 LINE",
"115 490 LINE",
"228 561 LINE",
"276 501 OFFCURVE",
"307 459 OFFCURVE",
"320 433 CURVE",
"317 429 LINE",
"291 440 OFFCURVE",
"268 444 OFFCURVE",
"244 444 CURVE SMOOTH",
"207 444 OFFCURVE",
"175 433 OFFCURVE",
"144 413 CURVE SMOOTH",
"81 372 OFFCURVE",
"47 299 OFFCURVE",
"47 216 CURVE SMOOTH",
"47 176 OFFCURVE",
"55 139 OFFCURVE",
"73 103 CURVE SMOOTH",
"108 34 OFFCURVE",
"168 -12 OFFCURVE",
"238 -12 CURVE SMOOTH"
);
},
{
closed = 1;
nodes = (
"153 12 OFFCURVE",
"110 68 OFFCURVE",
"110 216 CURVE SMOOTH",
"110 364 OFFCURVE",
"153 421 OFFCURVE",
"238 421 CURVE SMOOTH",
"321 421 OFFCURVE",
"363 362 OFFCURVE",
"363 216 CURVE SMOOTH",
"363 68 OFFCURVE",
"321 12 OFFCURVE",
"238 12 CURVE SMOOTH"
);
}
);
width = 478;
},
{
layerId = "6701A4D5-8A3D-41DD-8AA0-CFF5D98C5FFE";
paths = (
{
closed = 1;
nodes = (
"286 -12 OFFCURVE",
"321 -2 OFFCURVE",
"350 15 CURVE SMOOTH",
"412 52 OFFCURVE",
"451 127 OFFCURVE",
"451 232 CURVE SMOOTH",
"451 273 OFFCURVE",
"452 312 OFFCURVE",
"449 347 CURVE SMOOTH",
"440 457 OFFCURVE",
"352 566 OFFCURVE",
"309 625 CURVE",
"395 673 LINE",
"381 698 LINE",
"291 646 LINE",
"276 663 OFFCURVE",
"262 677 OFFCURVE",
"251 691 CURVE",
"128 691 LINE",
"158 660 OFFCURVE",
"173 634 OFFCURVE",
"198 592 CURVE",
"113 542 LINE",
"126 518 LINE",
"213 568 LINE",
"234 540 OFFCURVE",
"253 509 OFFCURVE",
"271 477 CURVE",
"267 473 LINE",
"257 474 OFFCURVE",
"246 476 OFFCURVE",
"234 476 CURVE SMOOTH",
"200 476 OFFCURVE",
"170 466 OFFCURVE",
"141 444 CURVE SMOOTH",
"84 401 OFFCURVE",
"47 322 OFFCURVE",
"47 232 CURVE SMOOTH",
"47 187 OFFCURVE",
"55 146 OFFCURVE",
"74 109 CURVE SMOOTH",
"111 35 OFFCURVE",
"175 -12 OFFCURVE",
"249 -12 CURVE SMOOTH"
);
},
{
closed = 1;
nodes = (
"187 12 OFFCURVE",
"181 133 OFFCURVE",
"181 232 CURVE SMOOTH",
"181 331 OFFCURVE",
"186 453 OFFCURVE",
"249 453 CURVE SMOOTH",
"311 453 OFFCURVE",
"318 336 OFFCURVE",
"318 232 CURVE SMOOTH",
"318 133 OFFCURVE",
"311 12 OFFCURVE",
"249 12 CURVE SMOOTH"
);
}
);
width = 498;
}
);
note = eth;
unicode = 00F0;
},
{
glyphname = e;
lastChange = "2017-06-10 11:33:30 +0000";
layers = (
{
layerId = "9ECE4C5B-AE6E-45F8-855F-54F501A6946D";
paths = (
{
closed = 1;
nodes = (
"331 -12 OFFCURVE",
"399 51 OFFCURVE",
"406 148 CURVE",
"384 148 LINE",
"367 40 OFFCURVE",
"294 9 OFFCURVE",
"237 9 CURVE SMOOTH",
"158 9 OFFCURVE",
"110 81 OFFCURVE",
"110 225 CURVE",
"402 225 LINE",
"402 270 OFFCURVE",
"397 307 OFFCURVE",
"378 353 CURVE SMOOTH",
"357 405 OFFCURVE",
"308 444 OFFCURVE",
"230 444 CURVE SMOOTH",
"194 444 OFFCURVE",
"163 433 OFFCURVE",
"136 412 CURVE SMOOTH",
"79 368 OFFCURVE",
"47 292 OFFCURVE",
"47 213 CURVE SMOOTH",
"47 54 OFFCURVE",
"131 -12 OFFCURVE",
"243 -12 CURVE SMOOTH"
);
},
{
closed = 1;
nodes = (
"110 351 OFFCURVE",
"162 421 OFFCURVE",
"233 421 CURVE SMOOTH",
"297 421 OFFCURVE",
"334 352 OFFCURVE",
"334 245 CURVE",
"110 245 LINE"
);
}
);
width = 445;
},
{
layerId = "6701A4D5-8A3D-41DD-8AA0-CFF5D98C5FFE";
paths = (
{
closed = 1;
nodes = (
"357 -12 OFFCURVE",
"403 71 OFFCURVE",
"410 159 CURVE",
"384 159 LINE",
"378 89 OFFCURVE",
"343 18 OFFCURVE",
"279 18 CURVE SMOOTH",
"184 18 OFFCURVE",
"181 124 OFFCURVE",
"181 220 CURVE",
"408 220 LINE",
"408 264 OFFCURVE",
"406 297 OFFCURVE",
"405 312 CURVE",
"386 411 OFFCURVE",
"323 476 OFFCURVE",
"245 476 CURVE SMOOTH",
"209 476 OFFCURVE",
"177 466 OFFCURVE",
"146 445 CURVE SMOOTH",
"84 403 OFFCURVE",
"47 325 OFFCURVE",
"47 233 CURVE SMOOTH",
"47 123 OFFCURVE",
"116 -12 OFFCURVE",
"255 -12 CURVE SMOOTH"
);
},
{
closed = 1;
nodes = (
"181 341 OFFCURVE",
"177 453 OFFCURVE",
"233 453 CURVE SMOOTH",
"291 453 OFFCURVE",
"289 346 OFFCURVE",
"289 249 CURVE",
"181 249 LINE"
);
}
);
width = 459;
}
);
leftKerningGroup = c;
note = e;
unicode = 0065;
},
{
glyphname = eacute;
lastChange = "2017-06-10 11:33:30 +0000";
layers = (
{
layerId = "9ECE4C5B-AE6E-45F8-855F-54F501A6946D";
paths = (
{
closed = 1;
nodes = (
"350 583 LINE SMOOTH",
"368 597 OFFCURVE",
"376 611 OFFCURVE",
"376 623 CURVE SMOOTH",
"376 639 OFFCURVE",
"370 648 OFFCURVE",
"357 648 CURVE SMOOTH",
"339 648 OFFCURVE",
"327 641 OFFCURVE",
"310 617 CURVE SMOOTH",
"219 490 LINE",
"226 485 LINE"
);
},
{
closed = 1;
nodes = (
"331 -12 OFFCURVE",
"399 51 OFFCURVE",
"406 148 CURVE",
"384 148 LINE",
"367 40 OFFCURVE",
"294 9 OFFCURVE",
"237 9 CURVE SMOOTH",
"158 9 OFFCURVE",
"110 81 OFFCURVE",
"110 225 CURVE",
"402 225 LINE",
"402 252 OFFCURVE",
"394 315 OFFCURVE",
"379 353 CURVE SMOOTH",
"358 405 OFFCURVE",
"308 444 OFFCURVE",
"230 444 CURVE SMOOTH",
"194 444 OFFCURVE",
"163 433 OFFCURVE",
"136 412 CURVE SMOOTH",
"79 368 OFFCURVE",
"47 292 OFFCURVE",
"47 213 CURVE SMOOTH",
"47 62 OFFCURVE",
"124 -12 OFFCURVE",
"243 -12 CURVE SMOOTH"
);
},
{
closed = 1;
nodes = (
"110 351 OFFCURVE",
"162 421 OFFCURVE",
"233 421 CURVE SMOOTH",
"297 421 OFFCURVE",
"334 352 OFFCURVE",
"334 245 CURVE",
"110 245 LINE"
);
}
);
width = 445;
},
{
layerId = "6701A4D5-8A3D-41DD-8AA0-CFF5D98C5FFE";
paths = (
{
closed = 1;
nodes = (
"336 609 LINE SMOOTH",
"354 623 OFFCURVE",
"363 638 OFFCURVE",
"363 657 CURVE SMOOTH",
"363 681 OFFCURVE",
"343 698 OFFCURVE",
"319 698 CURVE SMOOTH",
"301 698 OFFCURVE",
"285 690 OFFCURVE",
"270 667 CURVE SMOOTH",
"185 532 LINE",
"207 512 LINE"
);
},
{
closed = 1;
nodes = (
"357 -12 OFFCURVE",
"403 71 OFFCURVE",
"410 159 CURVE",
"384 159 LINE",
"378 89 OFFCURVE",
"343 18 OFFCURVE",
"279 18 CURVE SMOOTH",
"184 18 OFFCURVE",
"181 124 OFFCURVE",
"181 220 CURVE",
"408 220 LINE",
"408 267 OFFCURVE",
"407 295 OFFCURVE",
"405 312 CURVE",
"386 411 OFFCURVE",
"323 476 OFFCURVE",
"245 476 CURVE SMOOTH",
"209 476 OFFCURVE",
"177 466 OFFCURVE",
"146 445 CURVE SMOOTH",
"84 403 OFFCURVE",
"47 325 OFFCURVE",
"47 233 CURVE SMOOTH",
"47 106 OFFCURVE",
"130 -12 OFFCURVE",
"255 -12 CURVE SMOOTH"
);
},
{
closed = 1;
nodes = (
"181 341 OFFCURVE",
"177 453 OFFCURVE",
"233 453 CURVE SMOOTH",
"291 453 OFFCURVE",
"289 346 OFFCURVE",
"289 249 CURVE",
"181 249 LINE"
);
}
);
width = 459;
}
);
leftKerningGroup = c;
note = eacute;
unicode = 00E9;
},
{
glyphname = ecircumflex;
lastChange = "2017-06-10 11:33:30 +0000";
layers = (
{
layerId = "9ECE4C5B-AE6E-45F8-855F-54F501A6946D";
paths = (
{
closed = 1;
nodes = (
"163 506 OFFCURVE",
"196 532 OFFCURVE",
"233 572 CURVE",
"269 533 OFFCURVE",
"302 508 OFFCURVE",
"344 485 CURVE",
"350 490 LINE",
"310 517 OFFCURVE",
"268 565 OFFCURVE",
"244 632 CURVE",
"220 632 LINE",
"197 565 OFFCURVE",
"156 517 OFFCURVE",
"116 490 CURVE",
"121 485 LINE"
);
},
{
closed = 1;
nodes = (
"331 -12 OFFCURVE",
"399 51 OFFCURVE",
"406 148 CURVE",
"384 148 LINE",
"367 40 OFFCURVE",
"294 9 OFFCURVE",
"237 9 CURVE SMOOTH",
"158 9 OFFCURVE",
"110 81 OFFCURVE",
"110 225 CURVE",
"402 225 LINE",
"402 252 OFFCURVE",
"394 315 OFFCURVE",
"379 353 CURVE SMOOTH",
"358 405 OFFCURVE",
"308 444 OFFCURVE",
"230 444 CURVE SMOOTH",
"194 444 OFFCURVE",
"163 433 OFFCURVE",
"136 412 CURVE SMOOTH",
"79 368 OFFCURVE",
"47 292 OFFCURVE",
"47 213 CURVE SMOOTH",
"47 54 OFFCURVE",
"131 -12 OFFCURVE",
"243 -12 CURVE SMOOTH"
);
},
{
closed = 1;
nodes = (
"110 351 OFFCURVE",
"162 421 OFFCURVE",
"233 421 CURVE SMOOTH",
"297 421 OFFCURVE",
"334 352 OFFCURVE",
"334 245 CURVE",
"110 245 LINE"
);
}
);
width = 445;
},
{
layerId = "6701A4D5-8A3D-41DD-8AA0-CFF5D98C5FFE";
paths = (
{
closed = 1;
nodes = (
"146 535 OFFCURVE",
"203 575 OFFCURVE",
"233 606 CURVE",
"263 575 OFFCURVE",
"320 535 OFFCURVE",
"366 512 CURVE",
"383 539 LINE",
"314 582 OFFCURVE",
"291 634 OFFCURVE",
"270 696 CURVE",
"197 696 LINE",
"175 634 OFFCURVE",
"151 582 OFFCURVE",
"82 539 CURVE",
"100 512 LINE"
);
},
{
closed = 1;
nodes = (
"357 -12 OFFCURVE",
"403 71 OFFCURVE",
"410 159 CURVE",
"384 159 LINE",
"378 89 OFFCURVE",
"343 18 OFFCURVE",
"279 18 CURVE SMOOTH",
"184 18 OFFCURVE",
"181 124 OFFCURVE",
"181 220 CURVE",
"408 220 LINE",
"408 267 OFFCURVE",
"407 295 OFFCURVE",
"405 312 CURVE",
"386 411 OFFCURVE",
"323 476 OFFCURVE",
"245 476 CURVE SMOOTH",
"209 476 OFFCURVE",
"177 466 OFFCURVE",
"146 445 CURVE SMOOTH",
"84 403 OFFCURVE",
"47 325 OFFCURVE",
"47 233 CURVE SMOOTH",
"47 123 OFFCURVE",
"116 -12 OFFCURVE",
"255 -12 CURVE SMOOTH"
);
},
{
closed = 1;
nodes = (
"181 341 OFFCURVE",
"177 453 OFFCURVE",
"233 453 CURVE SMOOTH",
"291 453 OFFCURVE",
"289 346 OFFCURVE",
"289 249 CURVE",
"181 249 LINE"
);
}
);
width = 459;
}
);
leftKerningGroup = cacute;
note = ecircumflex;
unicode = 00EA;
},
{
glyphname = edieresis;
lastChange = "2017-06-10 11:33:30 +0000";
layers = (
{
layerId = "9ECE4C5B-AE6E-45F8-855F-54F501A6946D";
paths = (
{
closed = 1;
nodes = (
"166 527 OFFCURVE",
"183 547 OFFCURVE",
"183 566 CURVE SMOOTH",
"183 589 OFFCURVE",
"166 607 OFFCURVE",
"144 607 CURVE SMOOTH",
"122 607 OFFCURVE",
"103 589 OFFCURVE",
"103 566 CURVE SMOOTH",
"103 547 OFFCURVE",
"122 527 OFFCURVE",
"144 527 CURVE SMOOTH"
);
},
{
closed = 1;
nodes = (
"345 527 OFFCURVE",
"364 547 OFFCURVE",
"364 566 CURVE SMOOTH",
"364 589 OFFCURVE",
"345 607 OFFCURVE",
"323 607 CURVE SMOOTH",
"303 607 OFFCURVE",
"282 589 OFFCURVE",
"282 566 CURVE SMOOTH",
"282 547 OFFCURVE",
"303 527 OFFCURVE",
"323 527 CURVE SMOOTH"
);
},
{
closed = 1;
nodes = (
"331 -12 OFFCURVE",
"399 51 OFFCURVE",
"406 148 CURVE",
"384 148 LINE",
"367 40 OFFCURVE",
"294 9 OFFCURVE",
"237 9 CURVE SMOOTH",
"158 9 OFFCURVE",
"110 81 OFFCURVE",
"110 225 CURVE",
"402 225 LINE",
"402 252 OFFCURVE",
"394 315 OFFCURVE",
"379 353 CURVE SMOOTH",
"358 405 OFFCURVE",
"308 444 OFFCURVE",
"230 444 CURVE SMOOTH",
"194 444 OFFCURVE",
"163 433 OFFCURVE",
"136 412 CURVE SMOOTH",
"79 368 OFFCURVE",
"47 292 OFFCURVE",
"47 213 CURVE SMOOTH",
"47 54 OFFCURVE",
"131 -12 OFFCURVE",
"243 -12 CURVE SMOOTH"
);
},
{
closed = 1;
nodes = (
"110 351 OFFCURVE",
"162 421 OFFCURVE",
"233 421 CURVE SMOOTH",
"297 421 OFFCURVE",
"334 352 OFFCURVE",
"334 245 CURVE",
"110 245 LINE"
);
}
);
width = 445;
},
{
layerId = "6701A4D5-8A3D-41DD-8AA0-CFF5D98C5FFE";
paths = (
{
closed = 1;
nodes = (
"173 543 OFFCURVE",
"201 570 OFFCURVE",
"201 605 CURVE SMOOTH",
"201 638 OFFCURVE",
"173 667 OFFCURVE",
"139 667 CURVE SMOOTH",
"106 667 OFFCURVE",
"77 638 OFFCURVE",
"77 605 CURVE SMOOTH",
"77 570 OFFCURVE",
"106 543 OFFCURVE",
"139 543 CURVE SMOOTH"
);
},
{
closed = 1;
nodes = (
"360 543 OFFCURVE",
"387 570 OFFCURVE",
"387 605 CURVE SMOOTH",
"387 638 OFFCURVE",
"360 667 OFFCURVE",
"327 667 CURVE SMOOTH",
"293 667 OFFCURVE",
"266 638 OFFCURVE",
"266 605 CURVE SMOOTH",
"266 570 OFFCURVE",
"293 543 OFFCURVE",
"327 543 CURVE SMOOTH"
);
},
{
closed = 1;
nodes = (
"357 -12 OFFCURVE",
"403 71 OFFCURVE",
"410 159 CURVE",
"384 159 LINE",
"378 89 OFFCURVE",
"343 18 OFFCURVE",
"279 18 CURVE SMOOTH",
"184 18 OFFCURVE",
"181 124 OFFCURVE",
"181 220 CURVE",
"408 220 LINE",
"408 267 OFFCURVE",
"407 295 OFFCURVE",
"405 312 CURVE",
"386 411 OFFCURVE",
"323 476 OFFCURVE",
"245 476 CURVE SMOOTH",
"209 476 OFFCURVE",
"177 466 OFFCURVE",
"146 445 CURVE SMOOTH",
"84 403 OFFCURVE",
"47 325 OFFCURVE",
"47 233 CURVE SMOOTH",
"47 123 OFFCURVE",
"116 -12 OFFCURVE",
"255 -12 CURVE SMOOTH"
);
},
{
closed = 1;
nodes = (
"181 341 OFFCURVE",
"177 453 OFFCURVE",
"233 453 CURVE SMOOTH",
"291 453 OFFCURVE",
"289 346 OFFCURVE",
"289 249 CURVE",
"181 249 LINE"
);
}
);
width = 459;
}
);
leftKerningGroup = cacute;
note = edieresis;
unicode = 00EB;
},
{
glyphname = egrave;
lastChange = "2017-06-10 11:33:30 +0000";
layers = (
{
layerId = "9ECE4C5B-AE6E-45F8-855F-54F501A6946D";
paths = (
{
closed = 1;
nodes = (
"247 491 LINE",
"156 617 LINE SMOOTH",
"138 642 OFFCURVE",
"127 648 OFFCURVE",
"108 648 CURVE SMOOTH",
"96 648 OFFCURVE",
"88 639 OFFCURVE",
"88 623 CURVE SMOOTH",
"88 611 OFFCURVE",
"98 596 OFFCURVE",
"115 583 CURVE SMOOTH",
"238 485 LINE"
);
},
{
closed = 1;
nodes = (
"331 -12 OFFCURVE",
"399 51 OFFCURVE",
"406 148 CURVE",
"384 148 LINE",
"367 40 OFFCURVE",
"294 9 OFFCURVE",
"237 9 CURVE SMOOTH",
"158 9 OFFCURVE",
"110 81 OFFCURVE",
"110 225 CURVE",
"402 225 LINE",
"402 252 OFFCURVE",
"394 315 OFFCURVE",
"379 353 CURVE SMOOTH",
"358 405 OFFCURVE",
"308 444 OFFCURVE",
"230 444 CURVE SMOOTH",
"194 444 OFFCURVE",
"163 433 OFFCURVE",
"136 412 CURVE SMOOTH",
"79 368 OFFCURVE",
"47 292 OFFCURVE",
"47 213 CURVE SMOOTH",
"47 54 OFFCURVE",
"131 -12 OFFCURVE",
"243 -12 CURVE SMOOTH"
);
},
{
closed = 1;
nodes = (
"110 351 OFFCURVE",
"162 421 OFFCURVE",
"233 421 CURVE SMOOTH",
"297 421 OFFCURVE",
"334 352 OFFCURVE",
"334 245 CURVE",
"110 245 LINE"
);
}
);
width = 445;
},
{
layerId = "6701A4D5-8A3D-41DD-8AA0-CFF5D98C5FFE";
paths = (
{
closed = 1;
nodes = (
"279 532 LINE",
"195 667 LINE SMOOTH",
"181 689 OFFCURVE",
"166 698 OFFCURVE",
"148 698 CURVE SMOOTH",
"122 698 OFFCURVE",
"103 681 OFFCURVE",
"103 657 CURVE SMOOTH",
"103 638 OFFCURVE",
"112 623 OFFCURVE",
"130 609 CURVE SMOOTH",
"259 512 LINE"
);
},
{
closed = 1;
nodes = (
"357 -12 OFFCURVE",
"403 71 OFFCURVE",
"410 159 CURVE",
"384 159 LINE",
"378 89 OFFCURVE",
"343 18 OFFCURVE",
"279 18 CURVE SMOOTH",
"184 18 OFFCURVE",
"181 124 OFFCURVE",
"181 220 CURVE",
"408 220 LINE",
"408 267 OFFCURVE",
"407 295 OFFCURVE",
"405 312 CURVE",
"386 411 OFFCURVE",
"323 476 OFFCURVE",
"245 476 CURVE SMOOTH",
"209 476 OFFCURVE",
"177 466 OFFCURVE",
"146 445 CURVE SMOOTH",
"84 403 OFFCURVE",
"47 325 OFFCURVE",
"47 233 CURVE SMOOTH",
"47 123 OFFCURVE",
"116 -12 OFFCURVE",
"255 -12 CURVE SMOOTH"
);
},
{
closed = 1;
nodes = (
"181 341 OFFCURVE",
"177 453 OFFCURVE",
"233 453 CURVE SMOOTH",
"291 453 OFFCURVE",
"289 346 OFFCURVE",
"289 249 CURVE",
"181 249 LINE"
);
}
);
width = 459;
}
);
leftKerningGroup = cacute;
note = egrave;
unicode = 00E8;
},
{
glyphname = f;
lastChange = "2017-06-10 11:33:30 +0000";
layers = (
{
layerId = "9ECE4C5B-AE6E-45F8-855F-54F501A6946D";
paths = (
{
closed = 1;
nodes = (
"250 0 LINE",
"250 23 LINE",
"170 23 LINE SMOOTH",
"154 23 OFFCURVE",
"147 31 OFFCURVE",
"147 48 CURVE SMOOTH",
"147 405 LINE",
"250 405 LINE",
"250 432 LINE",
"147 432 LINE",
"147 530 LINE SMOOTH",
"147 585 OFFCURVE",
"156 622 OFFCURVE",
"171 642 CURVE SMOOTH",
"187 663 OFFCURVE",
"207 675 OFFCURVE",
"230 675 CURVE SMOOTH",
"262 675 OFFCURVE",
"288 665 OFFCURVE",
"288 641 CURVE SMOOTH",
"288 631 OFFCURVE",
"284 626 OFFCURVE",
"273 623 CURVE",
"267 620 OFFCURVE",
"262 605 OFFCURVE",
"262 598 CURVE SMOOTH",
"262 577 OFFCURVE",
"271 563 OFFCURVE",
"292 563 CURVE SMOOTH",
"313 563 OFFCURVE",
"322 578 OFFCURVE",
"322 607 CURVE SMOOTH",
"322 670 OFFCURVE",
"280 698 OFFCURVE",
"232 698 CURVE SMOOTH",
"210 698 OFFCURVE",
"188 692 OFFCURVE",
"168 680 CURVE SMOOTH",
"127 655 OFFCURVE",
"100 601 OFFCURVE",
"100 511 CURVE SMOOTH",
"100 432 LINE",
"27 432 LINE",
"27 405 LINE",
"100 405 LINE",
"100 48 LINE SMOOTH",
"100 31 OFFCURVE",
"93 23 OFFCURVE",
"76 23 CURVE SMOOTH",
"27 23 LINE",
"27 0 LINE"
);
}
);
width = 295;
},
{
layerId = "6701A4D5-8A3D-41DD-8AA0-CFF5D98C5FFE";
paths = (
{
closed = 1;
nodes = (
"286 0 LINE",
"286 23 LINE",
"236 23 LINE SMOOTH",
"225 23 OFFCURVE",
"221 26 OFFCURVE",
"221 38 CURVE SMOOTH",
"221 438 LINE",
"286 438 LINE",
"286 465 LINE",
"221 465 LINE",
"221 550 LINE SMOOTH",
"221 596 OFFCURVE",
"227 628 OFFCURVE",
"240 647 CURVE SMOOTH",
"252 666 OFFCURVE",
"264 675 OFFCURVE",
"280 675 CURVE SMOOTH",
"296 675 OFFCURVE",
"311 669 OFFCURVE",
"311 652 CURVE SMOOTH",
"311 640 OFFCURVE",
"306 629 OFFCURVE",
"295 618 CURVE SMOOTH",
"275 598 OFFCURVE",
"265 582 OFFCURVE",
"265 561 CURVE SMOOTH",
"265 527 OFFCURVE",
"295 505 OFFCURVE",
"327 505 CURVE SMOOTH",
"370 505 OFFCURVE",
"406 541 OFFCURVE",
"406 581 CURVE SMOOTH",
"406 648 OFFCURVE",
"358 698 OFFCURVE",
"283 698 CURVE SMOOTH",
"254 698 OFFCURVE",
"226 692 OFFCURVE",
"198 677 CURVE SMOOTH",
"141 647 OFFCURVE",
"99 586 OFFCURVE",
"99 505 CURVE SMOOTH",
"99 465 LINE",
"29 465 LINE",
"29 438 LINE",
"99 438 LINE",
"99 38 LINE SMOOTH",
"99 26 OFFCURVE",
"95 23 OFFCURVE",
"84 23 CURVE SMOOTH",
"29 23 LINE",
"29 0 LINE"
);
}
);
width = 352;
}
);
note = f;
unicode = 0066;
},
{
glyphname = g;
lastChange = "2017-06-10 11:33:30 +0000";
layers = (
{
layerId = "9ECE4C5B-AE6E-45F8-855F-54F501A6946D";
paths = (
{
closed = 1;
nodes = (
"385 -231 OFFCURVE",
"461 -193 OFFCURVE",
"461 -114 CURVE SMOOTH",
"461 -30 OFFCURVE",
"401 18 OFFCURVE",
"324 18 CURVE SMOOTH",
"164 18 OFFCURVE",
"157 15 OFFCURVE",
"156 15 CURVE SMOOTH",
"113 15 OFFCURVE",
"86 21 OFFCURVE",
"86 46 CURVE SMOOTH",
"86 92 OFFCURVE",
"157 118 OFFCURVE",
"234 118 CURVE SMOOTH",
"265 118 OFFCURVE",
"293 125 OFFCURVE",
"317 136 CURVE SMOOTH",
"367 159 OFFCURVE",
"401 210 OFFCURVE",
"401 285 CURVE SMOOTH",
"401 316 OFFCURVE",
"394 346 OFFCURVE",
"376 372 CURVE",
"373 393 OFFCURVE",
"397 423 OFFCURVE",
"424 423 CURVE SMOOTH",
"438 423 OFFCURVE",
"453 418 OFFCURVE",
"453 405 CURVE SMOOTH",
"453 396 OFFCURVE",
"453 398 OFFCURVE",
"445 395 CURVE SMOOTH",
"434 391 OFFCURVE",
"428 381 OFFCURVE",
"428 365 CURVE SMOOTH",
"428 339 OFFCURVE",
"446 330 OFFCURVE",
"466 330 CURVE SMOOTH",
"488 330 OFFCURVE",
"499 345 OFFCURVE",
"499 371 CURVE SMOOTH",
"499 418 OFFCURVE",
"465 444 OFFCURVE",
"422 444 CURVE SMOOTH",
"395 444 OFFCURVE",
"363 427 OFFCURVE",
"357 394 CURVE",
"351 409 OFFCURVE",
"283 444 OFFCURVE",
"233 444 CURVE SMOOTH",
"202 444 OFFCURVE",
"175 438 OFFCURVE",
"150 426 CURVE SMOOTH",
"98 401 OFFCURVE",
"62 351 OFFCURVE",
"62 282 CURVE SMOOTH",
"62 199 OFFCURVE",
"106 152 OFFCURVE",
"161 128 CURVE",
"161 127 LINE",
"110 118 OFFCURVE",
"57 94 OFFCURVE",
"57 44 CURVE SMOOTH",
"57 13 OFFCURVE",
"80 -5 OFFCURVE",
"149 -22 CURVE",
"149 -25 LINE",
"99 -32 OFFCURVE",
"50 -73 OFFCURVE",
"50 -122 CURVE SMOOTH",
"50 -203 OFFCURVE",
"146 -231 OFFCURVE",
"257 -231 CURVE SMOOTH"
);
},
{
closed = 1;
nodes = (
"166 141 OFFCURVE",
"118 189 OFFCURVE",
"118 282 CURVE SMOOTH",
"118 375 OFFCURVE",
"168 421 OFFCURVE",
"233 421 CURVE SMOOTH",
"297 421 OFFCURVE",
"348 373 OFFCURVE",
"348 282 CURVE SMOOTH",
"348 187 OFFCURVE",
"297 141 OFFCURVE",
"233 141 CURVE SMOOTH"
);
},
{
closed = 1;
nodes = (
"182 -213 OFFCURVE",
"98 -183 OFFCURVE",
"98 -118 CURVE SMOOTH",
"98 -52 OFFCURVE",
"159 -25 OFFCURVE",
"231 -25 CURVE SMOOTH",
"275 -25 OFFCURVE",
"322 -23 OFFCURVE",
"368 -22 CURVE SMOOTH",
"430 -20 OFFCURVE",
"445 -61 OFFCURVE",
"445 -101 CURVE SMOOTH",
"445 -187 OFFCURVE",
"360 -213 OFFCURVE",
"265 -213 CURVE SMOOTH"
);
}
);
width = 511;
},
{
layerId = "6701A4D5-8A3D-41DD-8AA0-CFF5D98C5FFE";
paths = (
{
closed = 1;
nodes = (
"376 -231 OFFCURVE",
"478 -153 OFFCURVE",
"478 -38 CURVE SMOOTH",
"478 51 OFFCURVE",
"408 93 OFFCURVE",
"314 93 CURVE SMOOTH",
"281 93 OFFCURVE",
"223 93 OFFCURVE",
"163 93 CURVE SMOOTH",
"133 93 OFFCURVE",
"119 106 OFFCURVE",
"119 128 CURVE SMOOTH",
"119 175 OFFCURVE",
"182 176 OFFCURVE",
"247 176 CURVE SMOOTH",
"284 176 OFFCURVE",
"316 183 OFFCURVE",
"346 198 CURVE SMOOTH",
"401 226 OFFCURVE",
"431 275 OFFCURVE",
"431 317 CURVE SMOOTH",
"431 358 OFFCURVE",
"419 390 OFFCURVE",
"399 412 CURVE",
"417 441 OFFCURVE",
"432 451 OFFCURVE",
"448 451 CURVE SMOOTH",
"462 451 OFFCURVE",
"467 446 OFFCURVE",
"467 437 CURVE SMOOTH",
"467 429 OFFCURVE",
"458 414 OFFCURVE",
"450 406 CURVE",
"439 392 OFFCURVE",
"435 380 OFFCURVE",
"435 371 CURVE SMOOTH",
"435 351 OFFCURVE",
"453 337 OFFCURVE",
"473 337 CURVE SMOOTH",
"505 337 OFFCURVE",
"532 373 OFFCURVE",
"532 413 CURVE SMOOTH",
"532 446 OFFCURVE",
"505 476 OFFCURVE",
"463 476 CURVE SMOOTH",
"435 476 OFFCURVE",
"412 460 OFFCURVE",
"390 426 CURVE",
"349 458 OFFCURVE",
"308 476 OFFCURVE",
"250 476 CURVE SMOOTH",
"219 476 OFFCURVE",
"190 471 OFFCURVE",
"164 458 CURVE SMOOTH",
"110 431 OFFCURVE",
"73 383 OFFCURVE",
"73 326 CURVE SMOOTH",
"73 260 OFFCURVE",
"117 216 OFFCURVE",
"167 193 CURVE",
"167 189 LINE",
"91 174 OFFCURVE",
"57 134 OFFCURVE",
"57 71 CURVE SMOOTH",
"57 25 OFFCURVE",
"97 -11 OFFCURVE",
"131 -12 CURVE",
"131 -15 LINE",
"73 -27 OFFCURVE",
"41 -67 OFFCURVE",
"41 -109 CURVE SMOOTH",
"41 -182 OFFCURVE",
"136 -231 OFFCURVE",
"257 -231 CURVE SMOOTH"
);
},
{
closed = 1;
nodes = (
"207 201 OFFCURVE",
"201 258 OFFCURVE",
"201 326 CURVE SMOOTH",
"201 391 OFFCURVE",
"203 453 OFFCURVE",
"252 453 CURVE SMOOTH",
"299 453 OFFCURVE",
"302 395 OFFCURVE",
"302 326 CURVE SMOOTH",
"302 264 OFFCURVE",
"300 201 OFFCURVE",
"252 201 CURVE SMOOTH"
);
},
{
closed = 1;
nodes = (
"150 -198 OFFCURVE",
"74 -167 OFFCURVE",
"74 -111 CURVE SMOOTH",
"74 -45 OFFCURVE",
"168 -26 OFFCURVE",
"272 -26 CURVE SMOOTH",
"288 -26 OFFCURVE",
"303 -28 OFFCURVE",
"314 -31 CURVE SMOOTH",
"365 -44 OFFCURVE",
"405 -56 OFFCURVE",
"405 -94 CURVE SMOOTH",
"405 -158 OFFCURVE",
"328 -198 OFFCURVE",
"240 -198 CURVE SMOOTH"
);
}
);
width = 543;
}
);
leftKerningGroup = g;
note = g;
unicode = 0067;
},
